<?xml version="1.0" standalone="no"?>
<!DOCTYPE svg PUBLIC "-//W3C//DTD SVG 20010904//EN"
 "http://www.w3.org/TR/2001/REC-SVG-20010904/DTD/svg10.dtd">
<svg version="1.0" xmlns="http://www.w3.org/2000/svg"
 width="1000.000000pt" height="1000.000000pt" viewBox="0 0 1000.000000 1000.000000"
 preserveAspectRatio="xMidYMid meet">
<metadata>
Created by potrace 1.11, written by Peter Selinger 2001-2013
</metadata>
<g transform="translate(0.000000,1000.000000) scale(0.100000,-0.100000)"
fill="#000000" stroke="none">
<path d="M6347 9634 c-1 -1 -42 -4 -92 -8 -49 -3 -108 -9 -130 -12 -22 -3 -53
-7 -70 -9 -35 -4 -66 -10 -160 -31 -38 -9 -81 -18 -95 -20 -14 -3 -47 -12 -73
-20 -26 -9 -56 -17 -65 -19 -9 -2 -17 -4 -17 -5 0 -1 -7 -3 -15 -5 -8 -1 -55
-17 -105 -35 -49 -18 -96 -33 -102 -33 -7 0 -13 -4 -13 -9 0 -4 -6 -8 -12 -8
-23 0 -210 -83 -348 -154 -74 -38 -145 -74 -157 -80 -13 -6 -23 -14 -23 -18 0
-5 -5 -8 -11 -8 -27 0 -393 -240 -529 -347 -8 -6 -51 -40 -95 -74 -44 -34 -82
-65 -85 -68 -3 -3 -25 -22 -50 -42 -47 -38 -52 -43 -165 -142 -79 -69 -384
-372 -460 -458 -28 -30 -78 -87 -113 -127 -67 -75 -63 -73 -222 -107 -21 -4
-232 -60 -300 -78 -125 -35 -508 -166 -605 -207 -204 -88 -270 -117 -379 -169
-71 -35 -140 -70 -154 -79 -14 -9 -32 -17 -41 -19 -9 -1 -17 -7 -19 -12 -2 -6
-8 -11 -14 -11 -15 0 -266 -152 -378 -229 -258 -176 -453 -346 -670 -581 -35
-37 -132 -161 -185 -235 -206 -288 -344 -633 -382 -955 -10 -84 -9 -380 1
-445 4 -27 10 -66 12 -85 6 -41 41 -194 53 -230 5 -14 12 -34 17 -45 4 -11 8
-27 10 -35 2 -9 11 -34 20 -55 10 -22 18 -42 19 -45 9 -30 104 -224 138 -280
38 -63 110 -175 117 -180 3 -3 17 -21 30 -40 78 -115 335 -389 469 -500 29
-25 63 -53 75 -64 11 -10 37 -30 56 -45 19 -14 37 -28 40 -31 4 -5 99 -74 177
-128 10 -7 56 -37 103 -67 111 -71 110 -70 111 -113 0 -20 2 -46 4 -57 2 -11
5 -42 6 -70 1 -27 6 -60 10 -72 5 -15 5 -23 -2 -23 -6 0 -7 -5 -4 -11 4 -5 9
-25 11 -42 7 -53 25 -170 30 -197 3 -14 8 -38 11 -55 3 -16 6 -34 8 -40 2 -12
15 -74 19 -95 2 -8 5 -22 9 -30 3 -8 13 -44 21 -80 24 -95 24 -95 26 -95 1 0
3 -7 5 -16 4 -22 60 -185 80 -234 9 -22 22 -53 28 -69 7 -16 41 -88 77 -160
148 -296 337 -531 579 -724 206 -163 507 -303 756 -352 28 -5 59 -11 70 -13
22 -5 83 -14 155 -23 102 -13 413 -6 510 11 8 1 40 6 70 10 30 4 64 9 75 11
11 2 34 7 50 10 117 21 427 112 520 153 11 5 61 26 110 46 94 39 280 130 375
182 116 65 185 105 227 133 24 17 48 30 54 30 5 0 9 5 9 10 0 6 5 10 10 10 6
0 28 12 49 28 21 15 49 34 61 42 116 76 419 316 568 448 159 142 510 501 614
628 33 40 35 41 203 83 94 23 178 44 187 46 92 21 500 155 648 213 41 16 102
40 135 53 33 13 63 28 67 34 4 5 8 7 8 3 0 -13 330 146 495 239 206 116 501
314 605 405 8 7 46 39 85 71 65 55 305 292 350 348 22 26 95 117 108 134 74
95 191 285 249 405 40 82 98 224 104 254 2 11 10 40 18 65 9 25 18 61 21 80 3
19 8 37 10 41 4 7 13 50 21 105 2 17 8 57 13 90 5 33 7 139 6 235 -3 158 -6
202 -19 265 -2 11 -9 49 -16 85 -29 152 -114 385 -197 537 -20 37 -42 78 -47
90 -6 13 -14 23 -18 23 -5 0 -8 5 -8 11 0 14 -118 185 -174 254 -23 27 -45 55
-51 62 -46 60 -202 220 -301 310 -91 82 -301 252 -324 261 -8 3 -17 9 -20 12
-6 8 -201 138 -247 165 -23 14 -33 27 -34 45 -3 92 -21 264 -45 425 -10 63
-10 64 -16 71 -4 3 -5 11 -2 17 2 7 -10 68 -26 137 -17 69 -32 134 -35 145 -3
11 -14 52 -26 90 -11 39 -21 76 -22 83 0 6 -4 12 -9 12 -4 0 -8 10 -8 23 0 13
-5 28 -12 35 -7 7 -9 12 -6 12 3 0 -9 37 -29 83 -19 45 -36 87 -37 92 -9 35
-139 284 -177 337 -10 14 -19 31 -19 36 0 6 -3 12 -8 14 -4 2 -29 33 -55 71
-173 243 -419 457 -681 591 -109 56 -276 122 -357 140 -195 45 -213 48 -349
62 -66 6 -267 13 -273 8z m224 -699 c37 -3 77 -8 90 -10 13 -3 38 -8 54 -11
184 -32 405 -134 560 -258 62 -49 215 -202 215 -215 0 -5 3 -11 8 -13 12 -5
65 -77 110 -149 54 -88 116 -212 152 -304 4 -11 13 -33 20 -50 18 -44 58 -178
81 -275 36 -146 43 -190 32 -190 -4 0 -42 14 -83 31 -219 89 -627 226 -790
265 -46 11 -269 65 -290 71 -14 3 -29 7 -35 8 -5 0 -28 5 -50 9 -54 12 -74 15
-114 22 -18 3 -42 8 -52 10 -43 9 -56 12 -102 18 -27 4 -59 9 -70 12 -58 11
-85 16 -117 19 -37 4 -93 12 -150 20 -19 3 -60 8 -90 11 -30 3 -68 7 -85 9
-16 2 -61 6 -100 9 -38 4 -92 9 -120 11 -171 16 -292 20 -640 20 -214 0 -429
-3 -477 -7 -72 -5 -86 -4 -81 8 3 8 8 14 12 14 4 0 26 17 48 38 86 77 102 91
229 188 139 108 133 104 274 197 162 108 238 152 397 231 234 117 520 215 703
242 192 28 315 33 461 19z m-1196 -1539 c83 -4 168 -9 190 -12 22 -2 74 -6
115 -9 41 -3 95 -8 120 -11 25 -3 63 -7 84 -9 49 -5 135 -16 161 -21 11 -3 38
-6 60 -8 38 -4 144 -21 191 -30 12 -2 38 -7 58 -10 21 -3 70 -13 109 -21 40
-8 86 -17 102 -20 31 -5 39 -7 115 -26 25 -6 53 -13 63 -15 9 -2 26 -6 37 -9
11 -3 29 -7 41 -10 11 -2 30 -7 42 -10 12 -3 38 -10 57 -15 187 -50 518 -160
645 -215 17 -7 53 -22 80 -33 28 -11 86 -38 130 -58 44 -21 82 -38 85 -39 3 0
24 -11 48 -24 l43 -22 -5 -112 c-4 -62 -8 -132 -11 -157 -2 -25 -7 -79 -10
-120 -3 -42 -7 -84 -9 -95 -4 -22 -16 -104 -22 -150 -2 -16 -5 -40 -8 -52 -2
-11 -8 -43 -12 -70 -5 -39 -52 -272 -70 -348 -2 -11 -6 -29 -8 -40 -2 -11 -13
-53 -25 -94 -11 -40 -20 -76 -19 -80 1 -3 -1 -13 -5 -21 -3 -8 -15 -49 -27
-90 -68 -231 -166 -520 -215 -635 -7 -16 -30 -73 -50 -125 -39 -99 -64 -156
-122 -277 -18 -40 -34 -75 -33 -78 0 -8 -171 -339 -182 -352 -6 -7 -8 -13 -5
-13 12 0 -289 -512 -305 -518 -4 -2 -8 -9 -8 -16 0 -7 -9 -23 -20 -36 -11 -13
-20 -27 -20 -31 0 -4 -6 -14 -12 -21 -7 -7 -31 -40 -53 -73 -37 -57 -189 -270
-218 -307 -10 -12 -63 -25 -198 -47 -101 -17 -206 -33 -234 -36 -27 -3 -61 -8
-75 -9 -14 -2 -59 -7 -100 -11 -41 -4 -77 -9 -80 -10 -5 -3 -75 -9 -235 -20
-316 -23 -781 -23 -1105 -1 -110 8 -223 17 -255 21 -16 2 -50 7 -75 10 -25 3
-63 8 -85 11 -83 10 -120 15 -135 16 -8 0 -37 5 -65 10 -27 5 -66 11 -85 13
-19 3 -84 15 -145 26 -60 12 -119 23 -130 24 -11 2 -49 10 -85 19 -36 9 -78
18 -95 21 -16 2 -55 11 -85 20 -30 10 -66 19 -80 22 -37 7 -38 8 -120 31 -41
12 -95 29 -120 38 -25 8 -54 17 -64 19 -41 9 -327 111 -391 140 -16 7 -53 23
-81 34 -29 11 -87 37 -129 57 l-78 37 7 96 c4 53 9 112 11 131 2 19 6 67 9
105 4 39 8 77 11 85 2 8 6 38 10 65 3 28 8 64 11 80 2 17 6 44 8 60 3 17 9 50
15 75 5 25 12 59 15 75 16 94 19 107 41 200 9 39 18 77 20 85 29 132 147 531
189 640 8 19 26 69 41 110 60 165 152 391 179 440 8 14 14 29 14 33 1 8 19 48
88 193 24 50 44 95 44 101 0 6 3 13 8 15 4 2 40 68 81 148 41 80 79 148 85
152 6 4 7 8 2 8 -5 0 -4 6 2 13 5 6 19 29 30 49 12 20 49 85 84 143 35 58 70
118 78 133 8 15 18 29 23 30 4 2 7 10 7 18 0 8 3 14 8 14 4 0 18 20 32 45 14
25 28 45 32 45 5 0 7 4 5 8 -1 5 17 34 41 66 23 31 42 59 42 62 0 5 201 287
210 294 4 3 20 23 36 45 16 22 49 66 74 97 45 56 64 66 145 73 39 4 130 16
155 20 41 8 150 19 290 30 47 3 99 8 115 10 17 2 102 7 190 10 88 4 161 8 162
9 5 4 450 -2 578 -8z m-2677 -378 c-13 -18 -27 -40 -33 -49 -5 -10 -26 -43
-45 -74 -19 -31 -40 -64 -45 -73 -6 -10 -33 -55 -60 -102 -28 -47 -55 -94 -62
-105 -7 -11 -16 -27 -20 -35 -4 -8 -22 -42 -41 -75 -55 -97 -245 -480 -302
-610 -29 -66 -64 -143 -77 -172 -12 -28 -23 -54 -23 -57 0 -4 -9 -25 -19 -49
-47 -105 -189 -509 -245 -697 -33 -113 -101 -377 -122 -470 -29 -133 -45 -214
-50 -249 -2 -19 -9 -52 -15 -75 -5 -23 -11 -59 -13 -81 -4 -36 -14 -107 -21
-145 -6 -33 -19 -147 -19 -172 0 -16 -3 -28 -6 -28 -6 0 -49 28 -66 45 -7 5
-31 26 -54 45 -109 90 -350 344 -350 368 0 6 -4 12 -8 14 -5 2 -28 32 -52 68
-23 36 -50 76 -59 90 -61 90 -159 332 -180 446 -36 194 -35 403 5 574 54 236
186 484 374 704 51 60 197 204 255 251 33 28 69 58 80 68 34 32 254 187 264
187 5 0 11 4 13 8 5 12 314 191 343 198 13 3 29 12 36 20 6 8 19 14 29 14 10
0 23 7 30 15 7 8 20 15 29 15 9 0 21 4 27 9 13 12 185 87 207 90 4 0 21 8 38
17 24 12 261 101 277 103 2 1 -7 -14 -20 -31z m5852 -626 c0 -5 9 -13 19 -18
53 -25 279 -244 377 -364 51 -63 118 -159 171 -245 38 -61 130 -264 138 -305
2 -8 10 -40 19 -71 9 -31 19 -71 22 -90 2 -19 8 -54 11 -79 14 -86 7 -321 -12
-410 -20 -97 -65 -239 -95 -301 -11 -24 -20 -48 -20 -55 0 -7 -3 -14 -7 -16
-5 -1 -19 -25 -33 -52 -14 -27 -50 -87 -80 -132 -243 -361 -621 -669 -1146
-932 -182 -92 -518 -231 -530 -220 -2 3 24 52 59 109 35 57 81 136 102 174 20
39 41 75 45 80 21 28 250 475 251 490 0 2 18 42 41 87 22 46 41 87 42 93 1 5
9 26 18 45 27 60 45 102 72 170 15 36 31 74 36 85 23 52 148 400 155 430 1 5
5 17 8 25 10 25 58 184 63 205 2 11 8 31 14 45 12 30 100 375 104 410 2 14 11
57 20 95 19 86 27 123 31 155 2 14 4 25 5 25 1 0 3 11 5 25 2 14 8 52 14 85
14 81 19 111 26 170 3 28 12 102 19 165 8 63 12 118 10 122 -3 5 2 8 10 8 9 0
16 -4 16 -8z m-6245 -3927 c50 -20 97 -38 105 -40 8 -2 76 -25 150 -50 198
-68 525 -161 634 -181 16 -2 33 -7 36 -9 4 -3 25 -7 46 -10 22 -4 47 -8 56
-11 18 -5 48 -12 93 -19 17 -3 37 -8 45 -10 8 -2 31 -6 50 -9 19 -3 46 -8 60
-11 49 -10 135 -25 175 -30 22 -2 51 -7 65 -9 14 -2 66 -9 115 -16 50 -6 104
-13 120 -16 17 -2 62 -7 100 -9 39 -3 84 -7 100 -9 58 -8 221 -19 292 -20 40
-1 73 -3 73 -6 0 -7 684 -4 830 3 58 3 146 8 195 12 l90 7 -35 -32 c-77 -70
-219 -191 -274 -235 -36 -29 -46 -37 -95 -77 -12 -10 -25 -18 -30 -18 -5 0
-11 -4 -13 -8 -9 -23 -337 -238 -468 -308 -30 -16 -58 -33 -61 -37 -3 -5 -9
-8 -13 -8 -3 0 -56 -23 -118 -52 -62 -30 -129 -59 -148 -66 -19 -8 -48 -19
-65 -26 -25 -11 -139 -48 -260 -85 -120 -36 -336 -63 -495 -62 -269 2 -522 72
-720 200 -19 12 -44 28 -54 35 -36 23 -141 111 -176 146 -44 45 -120 131 -140
157 -40 53 -60 84 -60 92 0 5 -7 15 -15 22 -8 7 -22 26 -31 44 -128 244 -178
374 -233 606 -41 175 -45 204 -29 197 7 -3 54 -22 103 -42z"/>
</g>
</svg>
