<svg version="1" xmlns="http://www.w3.org/2000/svg" width="2666.667" height="2666.667" viewBox="0 0 2000.000000 2000.000000" preserveAspectRatio="xMidYMid meet"><metadata>Created by potrace 1.11, written by Peter Selinger 2001-2013</metadata><g fill="#000" stroke="none"><path d="M9944 18610 c-5 -5 -25 -11 -43 -13 -18 -2 -36 -8 -39 -14 -7 -10 -45 -27 -49 -21 -1 2 -9 -6 -18 -17 -9 -11 -14 -14 -10 -8 4 9 1 11 -9 7 -9 -3 -13 -10 -10 -15 3 -5 -6 -13 -20 -19 -14 -5 -26 -15 -26 -21 0 -7 -3 -9 -7 -6 -3 4 -15 -5 -25 -20 -10 -16 -18 -25 -18 -21 0 7 -85 -77 -132 -130 -14 -17 -24 -33 -20 -36 3 -3 -1 -6 -8 -6 -7 0 -11 -3 -7 -6 3 -4 -4 -15 -16 -26 -12 -11 -15 -17 -7 -13 8 4 6 -1 -4 -9 -11 -9 -16 -16 -10 -16 5 0 1 -5 -9 -11 -9 -6 -15 -14 -12 -20 4 -5 -1 -9 -9 -9 -9 0 -16 -5 -16 -11 0 -5 6 -7 13 -4 6 4 1 -3 -12 -14 -13 -12 -20 -21 -17 -21 4 0 -7 -20 -24 -45 -17 -25 -28 -50 -24 -57 5 -7 3 -8 -6 -3 -10 6 -12 4 -7 -9 4 -9 3 -15 -1 -12 -4 3 -14 -4 -21 -16 -10 -16 -10 -19 1 -12 7 4 2 -4 -11 -19 -12 -14 -20 -30 -16 -36 3 -6 -1 -14 -9 -17 -9 -3 -13 -10 -10 -15 3 -5 0 -9 -6 -9 -6 0 -9 -4 -5 -9 3 -5 -2 -17 -11 -25 -8 -9 -13 -16 -9 -16 4 0 -1 -7 -9 -16 -9 -8 -14 -20 -11 -25 4 -5 1 -9 -5 -9 -6 0 -8 -4 -5 -10 3 -5 2 -10 -4 -10 -6 0 -8 -7 -5 -15 4 -8 1 -15 -6 -15 -6 0 -8 -4 -5 -10 3 -5 1 -10 -4 -10 -6 0 -10 -3 -9 -7 1 -5 -3 -18 -10 -30 -7 -13 -10 -23 -7 -23 4 0 -1 -7 -9 -16 -9 -8 -14 -20 -11 -25 4 -5 1 -9 -6 -9 -7 0 -10 -3 -6 -6 3 -4 -5 -28 -18 -54 -13 -26 -21 -50 -18 -54 4 -3 1 -6 -6 -6 -7 0 -10 -4 -7 -9 3 -5 -1 -11 -9 -15 -8 -3 -12 -12 -9 -20 3 -8 1 -17 -5 -21 -6 -3 -11 -15 -11 -26 0 -10 -5 -19 -11 -19 -5 0 -7 -4 -4 -10 3 -5 1 -10 -5 -10 -6 0 -8 -4 -5 -10 3 -5 1 -10 -4 -10 -6 0 -11 -9 -11 -19 0 -11 -5 -23 -10 -26 -6 -4 -8 -11 -5 -16 4 -5 1 -9 -5 -9 -6 0 -8 -4 -5 -10 3 -5 1 -10 -5 -10 -6 0 -8 -4 -5 -10 3 -5 2 -10 -4 -10 -5 0 -8 -9 -6 -20 2 -11 0 -18 -6 -15 -5 4 -9 -3 -9 -14 0 -12 -5 -21 -11 -21 -6 0 -9 -7 -5 -15 3 -8 1 -15 -4 -15 -9 0 -26 -39 -22 -52 1 -5 -3 -8 -9 -8 -5 0 -7 -4 -4 -10 3 -5 1 -10 -5 -10 -6 0 -9 -4 -6 -9 4 -5 1 -11 -4 -13 -6 -2 -12 -13 -13 -26 0 -12 -5 -22 -10 -22 -4 0 -5 -4 -2 -10 3 -5 1 -10 -5 -10 -6 0 -8 -4 -5 -10 3 -5 1 -10 -5 -10 -6 0 -8 -4 -5 -10 3 -5 1 -10 -4 -10 -6 0 -11 -6 -11 -13 0 -7 -9 -29 -19 -49 -11 -19 -17 -39 -14 -42 4 -3 1 -6 -6 -6 -7 0 -9 -4 -6 -10 3 -5 1 -10 -6 -10 -7 0 -9 -3 -6 -7 4 -3 -1 -15 -10 -26 -13 -15 -14 -19 -3 -13 12 6 12 5 -1 -6 -9 -7 -14 -19 -12 -25 3 -7 -1 -13 -7 -13 -7 0 -10 -7 -6 -16 3 -8 2 -13 -3 -10 -8 5 -25 -29 -22 -46 1 -5 -3 -8 -9 -8 -6 0 -9 -3 -8 -7 1 -5 -4 -21 -11 -38 -7 -16 -12 -32 -12 -35 0 -3 -7 -13 -16 -22 -8 -9 -12 -22 -8 -27 3 -6 0 -14 -8 -17 -16 -6 -32 -49 -28 -73 1 -7 -2 -10 -7 -7 -12 7 -25 -22 -16 -35 3 -5 -2 -12 -10 -15 -9 -3 -16 -15 -16 -25 0 -10 -5 -19 -11 -19 -5 0 -7 -4 -4 -10 3 -5 1 -10 -5 -10 -6 0 -9 -4 -5 -9 3 -5 1 -12 -5 -16 -5 -3 -10 -15 -10 -26 0 -10 -4 -19 -9 -19 -8 0 -24 -37 -22 -52 1 -5 -4 -8 -10 -8 -5 0 -7 -4 -4 -10 3 -5 2 -10 -4 -10 -6 0 -7 -7 -4 -17 4 -10 2 -14 -5 -9 -6 3 -13 2 -17 -4 -3 -5 0 -10 7 -10 9 -1 7 -5 -4 -14 -20 -15 -25 -31 -6 -20 6 4 0 -8 -14 -27 -14 -19 -23 -40 -20 -48 3 -8 0 -11 -7 -7 -10 6 -15 -6 -12 -26 0 -5 -3 -8 -9 -8 -6 0 -9 -3 -9 -7 3 -20 -2 -34 -10 -28 -6 3 -8 -6 -5 -21 3 -14 1 -23 -5 -20 -5 3 -12 -4 -16 -17 -9 -27 -8 -25 -26 -62 -7 -16 -18 -33 -23 -36 -5 -4 -5 -12 -1 -19 5 -9 4 -11 -3 -6 -8 4 -12 0 -12 -11 0 -10 -7 -29 -16 -41 -8 -12 -12 -27 -9 -32 3 -6 -1 -13 -9 -16 -9 -3 -13 -10 -10 -15 3 -5 0 -9 -6 -9 -6 0 -8 -4 -5 -10 3 -5 3 -10 -2 -10 -11 0 -34 -51 -27 -61 3 -5 1 -9 -5 -9 -10 0 -27 -38 -23 -52 1 -5 -3 -8 -9 -8 -5 0 -7 -4 -4 -10 3 -5 1 -10 -4 -10 -6 0 -10 -3 -9 -7 2 -12 -14 -46 -29 -61 -7 -8 -11 -18 -8 -23 4 -5 1 -9 -5 -9 -6 0 -8 -4 -5 -10 3 -5 1 -10 -5 -10 -6 0 -8 -4 -5 -10 3 -5 1 -10 -5 -10 -6 0 -8 -4 -5 -10 3 -5 1 -10 -6 -10 -7 0 -10 -3 -6 -6 3 -4 -1 -21 -10 -38 -10 -17 -16 -34 -15 -38 1 -5 -3 -8 -10 -8 -6 0 -8 -3 -5 -6 4 -4 -2 -19 -13 -34 -11 -15 -17 -30 -13 -34 3 -3 0 -6 -7 -6 -7 0 -10 -3 -7 -7 4 -3 0 -15 -10 -25 -9 -10 -13 -18 -9 -18 3 0 0 -10 -9 -23 -8 -13 -12 -27 -8 -30 3 -4 1 -7 -6 -7 -7 0 -9 -4 -6 -10 3 -5 1 -10 -5 -10 -6 0 -8 -4 -5 -10 3 -5 2 -10 -4 -10 -6 0 -8 -8 -4 -17 3 -10 3 -15 -2 -11 -8 8 -34 -20 -35 -37 0 -5 5 -3 10 5 7 10 10 11 10 2 0 -7 -7 -15 -15 -18 -8 -4 -12 -10 -9 -15 3 -5 0 -9 -6 -9 -6 0 -8 -4 -5 -10 3 -5 1 -10 -5 -10 -6 0 -8 -4 -5 -10 3 -5 1 -10 -6 -10 -7 0 -9 -3 -6 -7 4 -3 -1 -12 -11 -20 -9 -8 -11 -12 -4 -8 17 9 15 -3 -4 -22 -8 -9 -13 -22 -10 -29 3 -8 1 -14 -4 -14 -5 0 -15 -14 -24 -30 -9 -20 -10 -28 -3 -24 7 3 4 -1 -5 -9 -10 -8 -15 -17 -11 -20 3 -4 1 -7 -6 -7 -7 0 -9 -4 -6 -10 3 -5 1 -10 -5 -10 -7 0 -9 -7 -6 -16 3 -8 2 -12 -4 -9 -6 3 -10 -3 -10 -14 0 -12 -5 -21 -11 -21 -5 0 -7 -4 -4 -10 3 -5 1 -10 -5 -10 -6 0 -9 -4 -5 -9 3 -5 1 -12 -5 -16 -6 -4 -8 -11 -5 -16 4 -5 1 -9 -5 -9 -6 0 -8 -4 -5 -10 3 -5 1 -10 -5 -10 -6 0 -8 -4 -5 -10 3 -5 1 -10 -5 -10 -6 0 -8 -4 -5 -10 3 -5 1 -10 -5 -10 -6 0 -8 -4 -5 -10 3 -5 1 -10 -5 -10 -6 0 -8 -4 -5 -10 3 -5 1 -10 -5 -10 -6 0 -8 -4 -5 -10 3 -5 1 -10 -5 -10 -7 0 -10 -7 -6 -15 3 -8 1 -15 -4 -15 -6 0 -10 -6 -10 -14 0 -8 -5 -16 -10 -18 -6 -2 -12 -16 -14 -31 -1 -15 -6 -30 -11 -35 -4 -4 -5 -1 0 7 6 10 4 12 -4 7 -7 -5 -10 -14 -7 -21 3 -8 -2 -19 -9 -25 -8 -7 -12 -16 -9 -21 3 -5 0 -9 -6 -9 -6 0 -8 -4 -5 -10 3 -5 1 -10 -5 -10 -6 0 -8 -4 -5 -10 3 -5 1 -10 -5 -10 -6 0 -8 -4 -5 -10 3 -5 1 -10 -5 -10 -6 0 -8 -4 -5 -10 3 -5 1 -10 -5 -10 -6 0 -8 -4 -5 -10 3 -5 1 -10 -5 -10 -6 0 -9 -4 -6 -9 4 -5 2 -11 -4 -13 -5 -1 -11 -14 -13 -27 -2 -14 -9 -27 -14 -28 -6 -2 -9 -13 -6 -23 3 -12 -1 -22 -11 -26 -9 -3 -16 -12 -16 -20 0 -8 -5 -14 -11 -14 -5 0 -8 -4 -5 -9 3 -5 -7 -34 -24 -65 -16 -31 -24 -54 -17 -50 7 4 2 -3 -10 -15 -12 -12 -20 -28 -17 -36 4 -8 -1 -17 -10 -21 -9 -3 -13 -10 -10 -15 3 -5 0 -9 -6 -9 -7 0 -9 -7 -6 -15 3 -9 -1 -18 -8 -21 -8 -3 -17 -12 -20 -20 -4 -10 -1 -13 7 -9 6 4 4 0 -7 -9 -10 -8 -15 -19 -11 -25 3 -6 1 -11 -5 -11 -6 0 -8 -4 -5 -10 3 -5 1 -10 -5 -10 -7 0 -10 -6 -7 -14 3 -8 -1 -17 -9 -20 -9 -3 -12 -10 -9 -16 3 -5 1 -10 -5 -10 -6 0 -8 -4 -5 -10 3 -5 1 -10 -5 -10 -7 0 -10 -6 -7 -14 3 -8 -1 -17 -9 -20 -9 -3 -12 -10 -9 -16 3 -5 1 -10 -4 -10 -6 0 -11 -7 -11 -16 0 -8 -6 -22 -14 -30 -8 -8 -13 -23 -11 -34 2 -11 0 -18 -6 -15 -5 4 -9 -3 -9 -14 0 -12 -5 -21 -11 -21 -5 0 -7 -4 -4 -10 3 -5 1 -10 -5 -10 -7 0 -9 -7 -6 -15 3 -9 -1 -18 -10 -22 -8 -3 -13 -12 -10 -20 3 -8 1 -11 -4 -8 -6 3 -10 -3 -10 -14 0 -12 -3 -21 -7 -21 -5 0 -13 -11 -20 -25 -8 -19 -8 -24 0 -19 7 3 4 -1 -7 -10 -10 -8 -15 -19 -11 -25 3 -6 1 -11 -5 -11 -6 0 -9 -4 -6 -9 3 -5 -1 -12 -10 -15 -10 -4 -13 -13 -9 -27 5 -15 4 -19 -4 -15 -10 6 -15 -6 -12 -26 0 -5 -4 -8 -10 -8 -5 0 -7 -4 -4 -10 3 -5 1 -10 -5 -10 -7 0 -10 -7 -6 -15 3 -8 -2 -18 -10 -23 -8 -5 -16 -18 -17 -30 -1 -12 -5 -22 -10 -22 -4 0 -5 -4 -2 -10 3 -5 2 -10 -3 -10 -6 0 -13 -7 -16 -16 -4 -10 -2 -13 7 -9 6 4 4 0 -5 -8 -10 -8 -15 -17 -11 -20 3 -4 1 -7 -6 -7 -7 0 -9 -4 -6 -10 3 -5 1 -10 -5 -10 -7 0 -9 -7 -6 -16 3 -8 2 -12 -4 -9 -6 3 -10 -3 -10 -14 0 -12 -5 -21 -11 -21 -5 0 -7 -4 -4 -10 3 -5 1 -10 -5 -10 -6 0 -8 -4 -5 -10 3 -5 1 -10 -5 -10 -6 0 -8 -4 -5 -10 3 -5 1 -10 -5 -10 -7 0 -10 -6 -7 -12 2 -7 -3 -19 -12 -26 -13 -11 -13 -12 -1 -6 11 6 10 2 -3 -13 -9 -11 -14 -23 -10 -26 3 -4 1 -7 -6 -7 -7 0 -9 -4 -6 -10 3 -5 1 -10 -5 -10 -6 0 -8 -4 -5 -10 3 -5 1 -10 -5 -10 -6 0 -8 -4 -5 -10 3 -5 3 -10 -2 -10 -4 0 -13 -11 -20 -25 -8 -19 -8 -24 0 -19 7 3 4 -1 -5 -9 -10 -8 -15 -17 -11 -20 3 -4 0 -7 -7 -7 -7 0 -10 -3 -7 -6 3 -4 1 -16 -5 -28 -7 -11 -11 -24 -10 -28 1 -5 -3 -8 -9 -8 -6 0 -8 -7 -5 -15 3 -9 -1 -18 -8 -21 -8 -3 -17 -12 -20 -20 -4 -10 -1 -13 7 -9 6 4 4 0 -5 -8 -10 -8 -15 -17 -11 -20 3 -4 1 -7 -6 -7 -7 0 -9 -4 -6 -10 3 -5 1 -10 -5 -10 -6 0 -8 -4 -5 -10 3 -5 1 -10 -5 -10 -7 0 -10 -7 -6 -15 3 -8 1 -15 -5 -15 -6 0 -7 -4 -4 -10 3 -5 1 -10 -5 -10 -6 0 -8 -4 -5 -10 3 -5 1 -10 -5 -10 -6 0 -9 -4 -6 -8 3 -5 -2 -18 -12 -28 -9 -10 -19 -28 -20 -39 -2 -11 -9 -23 -15 -27 -7 -4 -8 -8 -3 -8 6 0 2 -6 -9 -13 -10 -8 -15 -19 -11 -25 4 -7 2 -12 -4 -12 -6 0 -9 -4 -5 -9 3 -5 1 -12 -4 -16 -6 -3 -7 -13 -4 -22 4 -11 3 -14 -5 -9 -11 6 -17 -5 -13 -26 0 -5 -4 -8 -10 -8 -5 0 -7 -4 -4 -10 3 -5 2 -10 -3 -10 -9 0 -25 -37 -23 -52 1 -5 -4 -8 -10 -8 -5 0 -7 -4 -4 -10 3 -5 1 -10 -5 -10 -6 0 -8 -4 -5 -10 3 -5 2 -10 -4 -10 -6 0 -8 -6 -5 -13 3 -8 -2 -20 -10 -27 -9 -7 -13 -16 -10 -21 3 -5 0 -9 -6 -9 -6 0 -8 -4 -5 -10 3 -5 1 -10 -5 -10 -6 0 -8 -4 -5 -10 3 -5 1 -10 -5 -10 -6 0 -10 -6 -8 -14 2 -8 -6 -22 -17 -31 -11 -9 -13 -13 -5 -9 12 6 12 4 -1 -12 -9 -10 -15 -27 -14 -37 2 -9 -1 -15 -6 -11 -8 5 -13 -9 -10 -28 0 -5 -4 -8 -10 -8 -5 0 -7 -4 -4 -10 3 -5 1 -10 -5 -10 -6 0 -8 -4 -5 -10 3 -5 1 -10 -5 -10 -6 0 -9 -4 -6 -9 4 -5 1 -11 -4 -13 -6 -2 -12 -13 -13 -25 0 -12 -4 -20 -8 -18 -7 5 -29 -40 -29 -59 0 -8 9 -24 21 -37 11 -13 18 -18 14 -11 -3 6 -1 12 4 12 6 0 11 -4 11 -10 0 -5 9 -10 20 -10 11 0 20 -6 20 -12 0 -10 2 -10 8 -1 6 9 16 7 41 -8 18 -11 30 -15 26 -9 -3 5 -1 10 4 10 6 0 11 -5 11 -10 0 -6 3 -9 8 -8 4 1 32 -6 62 -17 30 -10 60 -20 65 -21 32 -6 41 -10 52 -24 11 -13 12 -13 13 -1 0 11 4 10 16 -5 8 -10 13 -13 9 -6 -3 6 -1 12 4 12 6 0 11 -5 11 -12 0 -6 3 -8 7 -5 3 4 17 0 30 -8 16 -11 23 -12 23 -3 0 6 7 3 16 -8 8 -10 13 -13 9 -6 -3 6 -2 12 4 12 5 0 11 -5 13 -11 3 -10 29 -17 76 -21 6 -1 12 -5 12 -10 0 -5 4 -7 9 -3 5 3 12 1 16 -5 4 -6 11 -8 16 -5 5 4 9 2 9 -2 0 -5 9 -10 20 -11 43 -4 50 -6 50 -14 0 -4 11 -8 25 -8 14 0 25 -5 25 -12 0 -6 3 -8 7 -5 3 4 13 1 21 -6 13 -9 14 -9 8 0 -5 9 -2 11 8 7 9 -3 16 -11 16 -16 0 -5 6 -8 13 -5 6 2 23 0 37 -5 14 -6 36 -12 50 -15 13 -2 28 -10 32 -16 4 -7 8 -8 8 -3 0 6 5 5 12 -2 16 -16 31 -16 22 0 -4 7 8 1 26 -12 18 -13 30 -19 26 -12 -5 8 -2 10 8 6 9 -3 16 -10 16 -15 0 -4 7 -5 17 -2 9 4 14 2 10 -3 -3 -5 2 -10 11 -11 32 -2 77 -14 82 -22 3 -4 15 -7 27 -6 12 1 20 -2 17 -7 -3 -4 -1 -8 5 -8 5 0 17 -3 27 -7 12 -4 15 -3 10 5 -5 8 -2 10 8 6 9 -3 13 -10 10 -15 -3 -5 2 -6 10 -3 9 3 16 2 16 -4 0 -6 11 -9 25 -7 14 1 28 -2 32 -8 4 -6 1 -7 -8 -2 -8 5 -11 4 -6 -1 4 -4 22 -9 38 -9 17 0 34 -7 39 -15 7 -11 10 -12 10 -2 0 10 4 9 16 -2 8 -9 20 -14 25 -11 5 4 9 1 9 -4 0 -6 14 -11 31 -11 16 0 28 -4 25 -9 -3 -4 5 -7 19 -6 14 2 26 -3 29 -12 5 -12 9 -13 21 -3 10 9 15 9 15 1 0 -6 11 -11 25 -11 14 0 25 -4 25 -8 0 -5 6 -9 13 -10 16 -1 38 -7 59 -16 9 -4 21 -5 26 -2 6 3 13 -1 16 -10 4 -10 13 -13 27 -9 14 5 19 4 15 -4 -5 -7 -1 -9 8 -5 9 3 16 2 16 -3 0 -5 9 -10 20 -11 11 -1 29 -3 39 -4 11 -1 17 -6 15 -10 -4 -7 18 -10 42 -7 4 0 10 -4 13 -10 4 -6 19 -12 34 -13 15 -1 27 -6 27 -10 0 -4 5 -8 11 -8 5 0 8 4 5 9 -4 5 5 4 18 -2 13 -7 23 -14 21 -17 -2 -3 11 -6 27 -7 17 -1 40 -10 51 -20 11 -10 17 -12 13 -5 -4 6 -3 12 2 12 6 0 13 -7 16 -16 5 -12 9 -14 20 -5 10 9 16 7 26 -4 7 -9 19 -14 27 -11 7 3 13 1 13 -5 0 -6 5 -7 10 -4 6 3 10 2 10 -4 0 -6 7 -8 15 -5 8 4 15 2 15 -3 0 -5 14 -10 32 -11 18 -2 36 -8 40 -15 4 -7 8 -8 8 -3 0 5 8 2 17 -5 15 -12 16 -12 8 1 -8 13 -7 13 8 1 9 -7 17 -10 17 -5 0 5 4 3 9 -5 5 -7 20 -13 35 -13 14 0 26 -5 26 -10 0 -5 5 -6 10 -3 6 3 10 2 10 -4 0 -5 9 -8 20 -6 11 2 20 0 20 -6 0 -5 11 -9 25 -9 14 0 25 -4 25 -8 0 -8 14 -12 53 -13 9 0 17 -4 17 -10 0 -5 13 -9 29 -9 16 0 31 -5 33 -11 2 -6 19 -13 38 -15 64 -9 72 -10 78 -20 18 -25 62 -3 62 30 0 9 5 16 12 16 6 0 8 3 5 7 -4 3 1 12 11 20 10 9 11 11 2 7 -12 -7 -13 -5 -3 8 7 8 10 18 6 21 -3 4 -1 7 6 7 7 0 9 5 6 10 -3 6 -1 10 5 10 6 0 8 5 5 10 -3 6 -1 10 5 10 7 0 10 7 6 15 -3 8 -1 15 4 15 6 0 10 9 10 21 0 11 4 17 10 14 6 -3 7 1 4 9 -4 10 -1 16 7 16 7 0 9 3 6 6 -4 4 3 20 14 35 11 16 17 29 13 29 -3 0 -1 7 6 15 7 8 9 15 4 15 -5 0 -2 5 8 10 9 6 14 18 11 29 -3 10 1 22 8 26 8 6 10 4 4 -5 -5 -9 -4 -11 4 -6 6 4 9 11 6 16 -3 5 -1 11 5 15 6 4 8 11 5 16 -4 5 -1 9 4 9 6 0 10 3 9 8 -3 14 14 62 23 62 5 0 9 9 9 20 0 11 5 20 11 20 5 0 7 5 4 10 -3 6 -1 10 5 10 6 0 8 5 5 10 -3 6 -1 10 5 10 6 0 8 5 5 10 -3 6 -1 10 5 10 7 0 10 6 7 13 -2 6 3 18 12 25 13 11 13 12 1 7 -12 -5 -12 -4 1 7 9 7 14 19 12 26 -3 6 1 12 7 12 7 0 10 6 7 14 -3 8 1 17 9 20 9 3 12 10 9 16 -3 5 -1 10 5 10 6 0 9 4 6 9 -3 5 1 14 9 21 8 7 12 16 9 21 -3 5 0 9 7 9 7 0 9 3 6 7 -4 3 1 12 11 20 9 8 11 12 5 8 -9 -4 -11 -1 -7 9 3 9 11 16 16 16 6 0 8 7 4 15 -3 8 -1 15 5 15 6 0 7 5 4 10 -3 6 -1 10 5 10 6 0 8 5 5 10 -3 6 -1 10 5 10 6 0 8 5 5 10 -3 6 -1 10 4 10 6 0 11 9 11 20 0 11 5 20 11 20 5 0 7 5 4 10 -3 6 -1 10 5 10 6 0 8 5 5 10 -3 6 -1 10 5 10 6 0 8 5 5 10 -3 6 -1 10 5 10 6 0 8 5 5 10 -3 6 -2 10 4 10 5 0 12 14 16 30 4 17 11 30 16 30 6 0 7 5 4 10 -3 6 -1 10 5 10 6 0 8 5 5 10 -3 6 -1 10 5 10 6 0 8 5 5 10 -3 6 -1 10 4 10 6 0 11 7 11 15 0 8 5 15 11 15 5 0 7 5 4 10 -3 6 0 13 9 16 8 3 12 12 9 20 -3 8 0 14 7 14 6 0 8 5 5 10 -3 6 -1 10 6 10 7 0 9 3 6 7 -4 3 1 12 11 20 9 8 11 12 5 8 -8 -3 -6 6 5 24 9 17 21 31 25 31 5 0 5 5 2 10 -3 6 -1 10 4 10 6 0 11 9 11 20 0 11 5 20 10 20 6 0 10 7 10 15 0 8 5 15 10 15 6 0 10 7 10 15 0 9 7 18 15 21 8 4 12 10 10 15 -3 4 3 17 15 29 11 11 17 20 13 20 -5 0 0 5 10 11 9 5 17 16 17 23 0 8 7 17 16 20 9 4 14 9 11 12 -3 4 1 14 10 22 22 23 63 43 63 31 0 -5 6 -9 14 -9 8 0 18 -9 21 -20 4 -11 11 -18 16 -15 5 4 9 -1 9 -10 0 -9 5 -13 10 -10 6 3 10 -3 10 -14 0 -11 12 -29 26 -40 15 -12 23 -21 18 -21 -5 0 -3 -4 4 -9 7 -4 14 -16 16 -26 1 -9 13 -26 27 -37 13 -11 17 -17 9 -13 -10 4 -9 2 2 -8 10 -8 15 -17 11 -20 -3 -4 2 -9 11 -13 9 -3 13 -10 10 -15 -3 -5 -1 -9 5 -9 6 0 7 -7 4 -17 -5 -12 -3 -14 7 -8 10 6 12 4 7 -9 -4 -9 -3 -15 2 -12 4 3 16 -12 26 -34 10 -22 22 -40 27 -40 5 0 6 -4 3 -10 -3 -5 -2 -10 4 -10 6 0 7 -7 4 -17 -4 -10 -2 -14 4 -10 6 4 14 0 17 -9 4 -10 2 -13 -7 -9 -6 4 -4 0 7 -9 10 -8 15 -19 12 -24 -3 -6 6 -17 20 -27 14 -9 23 -19 20 -22 -3 -4 0 -13 7 -21 10 -13 9 -15 -3 -8 -8 4 -7 1 3 -7 10 -8 19 -24 20 -35 0 -11 5 -18 9 -16 4 3 8 -4 8 -15 0 -12 4 -21 9 -21 5 0 12 -7 15 -16 4 -10 2 -13 -7 -8 -6 4 -1 -5 12 -19 14 -15 20 -27 15 -27 -5 0 -4 -4 1 -8 6 -4 16 -18 23 -31 11 -19 11 -22 0 -16 -7 3 -4 -1 7 -10 11 -9 21 -21 21 -28 1 -7 2 -18 3 -25 0 -7 6 -10 12 -6 8 4 9 -1 4 -16 -4 -13 -3 -20 2 -17 5 3 16 -9 25 -28 9 -20 11 -32 4 -29 -6 3 0 -3 13 -14 13 -11 21 -24 17 -31 -4 -6 -3 -11 3 -11 6 0 7 -7 4 -17 -4 -10 -2 -14 4 -10 6 4 16 -11 23 -33 7 -22 17 -37 23 -33 5 3 6 -3 2 -16 -4 -15 -1 -23 10 -27 9 -4 14 -13 11 -20 -3 -8 -1 -14 5 -14 6 0 7 -4 4 -10 -3 -5 -1 -10 5 -10 6 0 8 -4 5 -10 -3 -5 -1 -10 5 -10 6 0 8 -4 5 -10 -3 -5 -1 -10 5 -10 6 0 8 -4 5 -10 -3 -5 -1 -10 5 -10 6 0 8 -4 5 -10 -3 -5 -1 -10 5 -10 7 0 9 -7 6 -15 -3 -9 1 -18 9 -21 8 -4 12 -10 9 -15 -3 -5 -1 -9 4 -9 12 0 34 -49 26 -61 -3 -5 1 -12 10 -15 8 -3 13 -14 11 -25 -2 -11 -1 -18 3 -15 4 2 12 -7 19 -20 8 -18 8 -23 0 -18 -7 3 -4 -1 6 -9 10 -8 16 -21 15 -28 -2 -8 2 -13 9 -12 6 1 10 -8 9 -22 -2 -13 3 -26 11 -29 8 -3 11 -10 8 -16 -3 -5 -1 -10 6 -10 7 0 9 -3 6 -7 -4 -3 1 -15 10 -26 13 -15 14 -19 3 -13 -12 6 -12 5 1 -6 9 -7 14 -19 11 -27 -3 -9 0 -11 8 -6 8 5 11 3 8 -6 -3 -8 2 -23 11 -33 13 -16 13 -18 1 -11 -8 4 -2 -6 13 -22 20 -21 25 -33 17 -38 -8 -5 -5 -13 9 -27 12 -10 19 -23 16 -29 -4 -5 -1 -9 6 -9 7 0 9 -3 6 -7 -4 -3 1 -15 10 -26 10 -11 12 -17 5 -13 -11 7 -11 4 0 -13 7 -12 16 -21 20 -21 5 0 8 -11 8 -25 0 -14 5 -25 11 -25 5 0 8 -4 4 -9 -3 -6 3 -14 12 -20 11 -6 13 -11 5 -11 -7 0 -10 -5 -7 -10 4 -6 10 -8 15 -5 5 3 7 -4 5 -15 -2 -11 1 -20 6 -20 6 0 7 -4 4 -10 -3 -5 -1 -10 5 -10 6 0 9 -4 6 -9 -4 -5 -1 -11 4 -13 6 -2 12 -13 13 -26 0 -12 5 -22 9 -22 4 0 8 -7 8 -15 0 -8 5 -15 10 -15 6 0 10 -5 10 -11 0 -5 -6 -7 -12 -3 -7 4 -3 -4 10 -18 12 -13 22 -32 22 -41 0 -9 5 -17 10 -17 6 0 10 -5 10 -11 0 -5 -6 -7 -12 -4 -7 4 -3 -2 10 -13 23 -21 30 -38 11 -26 -7 4 -1 -7 11 -24 13 -18 21 -34 18 -38 -9 -9 31 -46 42 -39 6 4 10 2 10 -4 0 -6 7 -7 17 -4 12 5 14 3 8 -7 -6 -10 -4 -12 8 -7 10 4 17 2 17 -5 0 -7 5 -6 15 2 12 10 16 9 21 -3 3 -9 12 -13 19 -11 7 3 16 0 20 -5 3 -6 11 -9 16 -6 5 4 9 2 9 -4 0 -6 7 -8 15 -5 8 4 15 1 15 -5 0 -6 7 -8 17 -4 10 4 14 2 10 -4 -4 -6 3 -9 18 -7 14 1 25 -2 25 -7 0 -5 9 -9 20 -9 11 0 20 -6 20 -12 0 -9 4 -8 10 2 7 11 10 11 10 2 0 -7 5 -10 10 -7 6 3 10 2 10 -4 0 -6 6 -8 14 -5 8 3 17 0 21 -5 3 -6 11 -9 16 -6 5 4 9 2 9 -4 0 -6 7 -8 15 -5 8 4 15 2 15 -3 0 -5 8 -9 18 -10 17 -1 55 -10 60 -13 4 -4 22 -7 43 -9 13 -1 18 -5 13 -13 -5 -8 -2 -9 9 -5 9 3 19 2 22 -4 4 -5 11 -7 16 -4 5 4 9 2 9 -4 0 -6 6 -8 14 -5 8 3 17 0 21 -5 3 -6 11 -9 16 -6 5 4 9 1 9 -4 0 -6 5 -11 11 -11 5 0 7 6 3 13 -4 6 2 4 14 -6 11 -11 26 -16 31 -12 6 3 11 1 11 -6 0 -6 8 -9 20 -6 11 3 18 2 15 -3 -3 -4 2 -11 11 -14 10 -4 13 -2 9 7 -4 6 -1 5 7 -3 7 -8 23 -14 36 -12 12 2 22 -1 22 -7 0 -6 6 -8 14 -5 8 3 17 1 20 -5 4 -6 14 -7 23 -4 11 4 14 3 9 -5 -5 -8 -2 -10 8 -6 9 3 16 2 16 -4 0 -6 8 -9 18 -8 9 2 20 -1 23 -6 3 -5 19 -10 36 -11 17 -1 29 -5 26 -9 -2 -5 7 -8 21 -8 14 0 26 -5 26 -11 0 -5 5 -7 11 -4 5 4 20 -1 31 -12 12 -10 18 -12 14 -5 -4 6 -2 12 3 12 6 0 11 -5 11 -12 0 -6 3 -8 7 -5 3 4 15 -1 26 -10 11 -10 17 -12 13 -6 -4 7 -2 13 3 13 6 0 11 -4 11 -9 0 -5 12 -8 26 -6 14 1 28 -3 30 -10 3 -7 17 -13 31 -12 14 0 28 -4 32 -9 6 -9 23 -15 53 -17 10 -1 18 -5 18 -10 0 -4 4 -6 9 -2 5 3 13 0 16 -6 4 -5 13 -8 21 -5 8 3 14 0 14 -6 0 -6 3 -8 7 -5 3 4 12 2 20 -4 7 -6 13 -8 13 -4 0 4 7 2 15 -5 8 -6 19 -9 25 -5 5 3 10 1 10 -5 0 -6 5 -8 10 -5 6 3 10 2 10 -3 0 -9 7 -10 54 -13 14 -1 27 -7 30 -14 3 -8 13 -11 27 -8 14 4 25 0 31 -10 4 -9 15 -14 23 -11 9 4 15 0 15 -7 0 -11 3 -11 10 1 7 11 10 11 10 2 0 -7 5 -10 10 -7 6 3 10 2 10 -4 0 -6 7 -8 16 -4 9 3 19 1 23 -5 4 -7 19 -13 34 -14 15 -1 29 -8 31 -14 2 -6 16 -10 30 -9 14 2 26 -1 26 -7 0 -6 12 -8 26 -5 15 3 28 0 30 -8 3 -7 16 -12 30 -10 13 1 27 -2 31 -8 4 -6 1 -7 -8 -2 -8 5 -11 4 -6 -1 4 -4 22 -9 38 -9 17 0 34 -7 39 -15 7 -11 10 -12 10 -2 0 10 4 9 16 -2 8 -9 20 -14 25 -11 5 4 9 1 9 -4 0 -6 14 -11 30 -11 17 0 30 -4 30 -8 0 -5 6 -9 13 -10 6 0 21 -3 32 -6 11 -2 28 -5 38 -5 10 -1 16 -5 13 -10 -4 -5 3 -7 14 -4 11 3 20 1 20 -4 0 -5 6 -10 13 -11 16 -1 38 -7 59 -16 9 -4 21 -5 26 -2 6 3 13 -1 16 -10 4 -10 13 -13 27 -9 14 5 19 4 15 -4 -5 -7 -1 -9 8 -5 9 3 16 1 16 -6 0 -6 5 -8 10 -5 6 4 22 -1 35 -9 15 -10 25 -12 25 -6 0 6 5 8 10 5 6 -4 8 -10 6 -14 -3 -4 5 -7 17 -6 12 1 25 -2 28 -6 3 -5 17 -10 32 -11 15 -1 27 -6 27 -10 0 -4 5 -8 11 -8 5 0 8 4 5 9 -4 5 5 4 18 -2 13 -7 22 -15 20 -19 -2 -4 7 -5 22 -2 16 3 23 1 19 -6 -3 -6 0 -7 9 -4 9 3 16 1 16 -5 0 -6 3 -10 8 -10 22 4 52 -2 48 -9 -3 -5 8 -8 24 -7 17 1 27 -2 23 -8 -4 -6 0 -8 10 -4 9 3 17 2 19 -3 2 -5 18 -10 36 -12 17 -1 32 -6 32 -10 0 -4 12 -8 26 -8 14 0 23 -4 19 -9 -3 -6 4 -8 15 -6 11 2 26 -3 34 -11 10 -9 17 -11 21 -3 5 7 13 4 26 -7 15 -13 19 -14 19 -3 1 12 3 11 13 -1 11 -14 18 -17 60 -25 10 -2 31 -11 48 -19 16 -8 26 -10 23 -4 -4 5 5 3 18 -6 14 -9 28 -13 31 -9 4 3 7 1 7 -5 0 -7 5 -12 11 -12 5 0 7 6 3 13 -4 6 3 3 15 -7 12 -11 32 -21 44 -23 12 -2 31 -5 42 -7 11 -2 24 -4 28 -5 5 0 6 -5 3 -10 -3 -4 5 -7 18 -6 12 2 44 -7 69 -20 29 -14 50 -19 54 -12 3 5 9 3 15 -6 5 -9 15 -14 23 -11 8 4 15 1 15 -4 0 -6 9 -9 19 -7 11 2 22 -3 25 -10 3 -8 13 -11 27 -8 17 5 20 3 14 -8 -7 -11 -5 -11 10 1 10 8 16 10 12 4 -4 -8 4 -13 23 -16 33 -5 59 5 41 16 -6 4 -11 16 -11 26 0 11 -9 24 -20 30 -11 6 -20 16 -20 23 0 8 4 7 11 -3 9 -13 10 -13 5 0 -3 8 -9 23 -12 33 -4 9 -11 17 -16 17 -5 0 -6 5 -3 10 3 6 1 10 -5 10 -7 0 -10 7 -6 15 3 8 1 15 -5 15 -6 0 -7 4 -4 10 3 5 1 10 -4 10 -6 0 -10 3 -9 7 2 11 -14 47 -24 54 -5 3 -10 16 -11 27 -1 12 -5 22 -10 22 -4 0 -5 5 -2 10 3 6 1 10 -4 10 -6 0 -10 6 -9 13 2 6 -2 11 -8 10 -8 -1 -10 6 -6 19 4 16 2 19 -8 13 -10 -6 -12 -4 -7 8 4 11 -2 25 -16 38 -12 12 -16 19 -10 15 9 -5 11 -2 7 8 -3 9 -10 16 -16 16 -5 0 -6 5 -3 10 3 6 1 10 -5 10 -6 0 -8 5 -5 10 3 6 1 10 -4 10 -6 0 -10 3 -10 8 3 20 -2 43 -9 38 -4 -2 -9 5 -9 16 -1 11 -8 28 -16 37 -8 9 -12 22 -9 30 3 9 0 11 -8 6 -10 -6 -12 -2 -7 14 3 14 0 24 -9 28 -8 3 -11 9 -8 14 3 5 0 9 -6 9 -6 0 -8 5 -5 10 3 6 1 10 -5 10 -6 0 -8 5 -5 10 3 6 1 10 -5 10 -6 0 -8 5 -5 10 3 5 1 10 -5 10 -6 0 -8 5 -5 10 3 5 1 10 -5 10 -6 0 -9 4 -6 9 3 5 0 11 -8 14 -9 4 -12 14 -9 26 3 12 1 21 -6 21 -6 0 -11 8 -11 18 0 11 -9 27 -20 37 -13 11 -18 25 -14 37 3 12 0 18 -10 18 -9 0 -16 5 -16 11 0 5 6 7 13 4 6 -4 1 3 -13 15 -14 12 -18 19 -10 15 8 -4 6 1 -4 9 -11 9 -17 16 -13 16 4 0 -2 16 -13 36 -12 20 -15 32 -8 28 7 -4 0 8 -17 26 -16 18 -24 30 -18 26 9 -5 11 -2 7 8 -3 9 -11 13 -16 10 -6 -4 -8 1 -4 14 4 13 1 22 -9 25 -8 4 -12 13 -9 22 4 8 0 17 -9 21 -9 3 -14 11 -11 19 3 7 -2 15 -10 18 -9 4 -13 13 -10 22 3 8 1 15 -5 15 -6 0 -8 7 -5 15 4 8 -1 17 -9 21 -9 3 -13 12 -10 20 3 8 0 14 -6 14 -6 0 -11 7 -11 16 0 9 -14 37 -31 62 -17 26 -24 40 -15 33 14 -12 16 -12 10 3 -3 9 -10 16 -15 16 -5 0 -8 3 -8 8 4 21 -2 32 -13 26 -8 -5 -9 -2 -5 9 3 10 2 17 -2 17 -5 0 -12 7 -15 16 -4 10 -2 13 7 9 6 -4 3 2 -9 12 -11 10 -19 24 -16 31 2 6 -4 15 -13 18 -13 5 -14 8 -3 15 10 7 11 9 0 9 -7 0 -10 5 -7 10 3 6 1 10 -6 10 -7 0 -9 3 -6 7 4 3 -3 18 -15 31 -13 14 -17 22 -11 18 9 -5 11 -2 7 8 -3 9 -10 13 -15 10 -5 -3 -6 2 -3 10 4 9 -1 18 -10 22 -9 3 -16 10 -16 16 0 5 6 6 13 2 6 -4 3 2 -7 14 -11 12 -15 22 -11 22 5 0 0 7 -11 16 -10 8 -13 13 -7 9 9 -4 11 -1 7 9 -3 9 -10 16 -16 16 -5 0 -6 5 -3 10 3 6 1 10 -5 10 -6 0 -8 5 -5 10 3 6 1 10 -5 10 -7 0 -10 6 -7 14 3 8 1 16 -4 18 -5 2 -11 13 -12 26 0 12 -7 22 -14 22 -7 0 -12 3 -12 8 3 15 -14 72 -22 72 -13 0 -39 60 -26 60 7 0 3 7 -7 15 -11 8 -16 15 -11 15 5 0 0 7 -11 16 -10 8 -13 13 -7 9 9 -4 11 -1 7 9 -3 9 -10 16 -16 16 -5 0 -6 5 -3 10 3 6 1 10 -5 10 -6 0 -8 5 -5 10 3 6 1 10 -5 10 -6 0 -8 5 -5 10 3 6 2 10 -2 10 -5 0 -9 9 -10 20 -1 11 -9 27 -17 35 -8 9 -12 23 -9 32 4 11 3 14 -5 9 -8 -5 -12 0 -12 13 0 12 -4 21 -9 21 -10 0 -24 38 -22 58 1 6 -3 12 -9 12 -6 0 -8 5 -5 10 3 6 1 10 -5 10 -6 0 -8 5 -5 10 3 6 2 10 -4 10 -6 0 -7 7 -4 17 4 10 2 14 -4 10 -10 -7 -28 19 -25 36 1 4 -14 39 -33 77 -19 38 -35 76 -35 84 0 7 -7 19 -15 26 -8 7 -12 16 -9 21 3 5 0 9 -6 9 -6 0 -8 5 -5 10 3 6 1 10 -5 10 -6 0 -8 5 -5 10 3 6 1 10 -6 10 -7 0 -9 3 -6 7 4 3 -1 12 -11 20 -9 8 -11 12 -4 8 6 -3 12 -2 12 3 0 6 -7 12 -15 16 -8 3 -15 9 -14 13 3 20 -2 34 -11 28 -6 -3 -7 1 -4 9 3 9 1 16 -5 16 -6 0 -11 5 -11 11 0 5 6 7 13 4 6 -4 4 0 -5 8 -10 8 -15 17 -11 20 3 4 1 7 -5 7 -7 0 -12 8 -12 18 0 9 -7 26 -15 36 -8 10 -12 23 -9 27 3 5 0 9 -6 9 -6 0 -8 5 -5 10 3 6 1 10 -5 10 -6 0 -8 5 -5 10 3 6 1 10 -5 10 -6 0 -9 4 -5 9 3 5 1 12 -5 16 -6 4 -8 11 -5 16 4 5 -1 12 -10 15 -8 4 -14 14 -13 23 2 9 -2 15 -9 14 -7 -2 -10 4 -7 12 4 8 2 15 -3 15 -5 0 -10 6 -10 13 0 19 -59 137 -66 131 -3 -3 -4 2 -3 13 2 10 -4 24 -13 31 -9 8 -10 11 -4 7 9 -4 11 -1 7 9 -3 9 -10 13 -15 10 -5 -3 -6 2 -3 10 3 9 1 16 -5 16 -6 0 -8 6 -5 14 3 8 -3 19 -15 25 -12 7 -18 17 -15 26 4 8 1 15 -6 15 -6 0 -9 4 -6 9 3 4 -1 16 -8 27 -8 10 -11 25 -8 33 3 8 1 12 -5 8 -6 -4 -16 11 -23 33 -7 22 -16 37 -20 35 -4 -3 -7 7 -7 22 0 15 -6 29 -12 31 -6 2 -9 8 -5 13 3 5 -1 12 -10 15 -8 3 -12 12 -9 20 3 8 0 14 -7 14 -6 0 -8 5 -5 10 3 6 1 10 -4 10 -6 0 -10 3 -10 8 3 19 -2 33 -11 27 -6 -4 -10 8 -10 29 0 25 -5 36 -14 36 -9 0 -13 7 -11 19 2 11 -3 22 -11 25 -9 3 -12 10 -9 16 3 5 1 10 -4 10 -6 0 -11 12 -11 26 0 17 -4 23 -12 18 -8 -5 -9 -2 -5 9 3 10 2 17 -4 17 -6 0 -7 5 -4 10 3 6 1 10 -6 10 -7 0 -9 3 -6 7 4 3 -1 12 -11 20 -9 8 -11 12 -5 8 9 -4 11 -1 7 9 -3 9 -10 16 -16 16 -5 0 -6 5 -3 10 3 6 1 10 -5 10 -6 0 -8 5 -5 10 3 6 1 10 -5 10 -6 0 -8 5 -5 10 3 6 2 10 -2 10 -5 0 -9 10 -10 22 -1 11 -6 24 -10 27 -15 11 -38 45 -25 37 6 -4 12 -2 12 3 0 6 -4 11 -10 11 -5 0 -10 7 -10 15 0 8 -5 15 -11 15 -7 0 -9 9 -6 21 3 12 0 22 -9 26 -8 3 -11 9 -8 14 3 5 0 9 -6 9 -6 0 -8 5 -5 10 3 6 1 10 -5 10 -6 0 -8 5 -5 10 3 6 1 10 -5 10 -6 0 -8 5 -5 10 3 6 1 10 -4 10 -6 0 -11 9 -11 20 0 11 -5 20 -11 20 -5 0 -7 5 -4 10 3 6 1 10 -5 10 -6 0 -9 4 -6 8 3 5 -1 20 -9 35 -7 14 -11 28 -7 31 3 3 -2 6 -11 6 -10 0 -15 7 -12 19 2 11 -3 22 -11 25 -9 3 -12 10 -9 16 3 5 1 10 -6 10 -7 0 -9 3 -6 7 4 3 -1 15 -10 26 -10 11 -12 17 -6 13 9 -5 11 -2 7 8 -3 9 -10 16 -16 16 -5 0 -6 5 -3 10 3 6 1 10 -6 10 -7 0 -9 3 -6 7 4 3 -1 12 -11 20 -9 8 -11 12 -4 8 6 -3 12 -1 12 4 0 6 -3 11 -8 11 -4 0 -13 9 -20 21 -11 17 -11 20 0 13 7 -4 2 5 -12 21 -14 16 -19 25 -12 21 18 -11 15 2 -8 27 -11 12 -18 27 -16 33 3 7 -4 20 -14 29 -11 10 -17 22 -14 26 3 5 0 9 -6 9 -6 0 -8 5 -4 11 3 6 0 15 -7 20 -8 4 -14 14 -15 21 -3 35 -5 39 -16 32 -8 -5 -9 -2 -5 9 4 10 2 17 -4 17 -6 0 -9 7 -5 15 3 8 1 15 -4 15 -6 0 -10 7 -10 15 0 8 -5 15 -11 15 -5 0 -8 4 -5 8 3 5 -6 27 -20 51 -13 24 -24 52 -24 62 0 10 -4 19 -10 19 -5 0 -10 9 -10 20 0 11 -5 20 -11 20 -5 0 -7 5 -4 10 3 6 1 10 -5 10 -6 0 -8 5 -5 10 3 6 1 10 -5 10 -6 0 -9 4 -6 9 3 5 -1 14 -10 21 -8 7 -13 19 -10 26 3 8 -1 20 -9 28 -8 7 -11 17 -7 20 4 4 -4 16 -18 28 -14 11 -19 17 -13 13 8 -4 11 -1 7 9 -3 8 -12 17 -20 20 -9 3 -12 11 -9 16 4 6 1 17 -5 25 -7 8 -9 15 -4 15 4 0 -1 7 -12 16 -10 8 -13 12 -5 8 9 -4 12 -2 9 7 -3 8 -10 13 -16 12 -6 -2 -9 4 -6 12 4 8 1 15 -6 15 -6 0 -8 5 -5 10 3 6 1 10 -5 10 -6 0 -8 5 -5 10 3 6 1 10 -5 10 -6 0 -8 5 -5 10 3 6 1 10 -5 10 -6 0 -9 4 -6 9 3 5 -1 12 -10 15 -8 3 -12 11 -9 16 4 6 -1 22 -10 37 -12 17 -13 23 -4 18 8 -4 4 2 -9 14 -12 12 -20 26 -17 32 4 5 1 9 -4 9 -6 0 -11 11 -11 25 0 14 -3 25 -7 25 -5 0 -16 14 -25 31 -11 18 -13 27 -5 24 6 -4 3 1 -7 9 -11 9 -16 16 -11 16 4 0 0 10 -11 22 -10 12 -13 18 -7 14 9 -5 11 -2 7 8 -3 9 -10 16 -16 16 -5 0 -6 5 -3 10 3 6 1 10 -5 10 -6 0 -8 5 -5 10 3 6 1 10 -6 10 -7 0 -9 3 -6 7 4 3 -1 12 -11 20 -9 8 -11 12 -5 8 9 -4 11 -1 7 9 -3 9 -10 16 -16 16 -5 0 -6 5 -3 10 3 6 1 10 -5 10 -6 0 -8 5 -5 10 3 6 1 10 -6 10 -7 0 -9 3 -6 7 4 3 -1 12 -11 20 -9 8 -11 12 -4 8 6 -3 12 -1 12 4 0 6 -5 11 -11 11 -5 0 -8 4 -5 9 3 5 -1 14 -9 21 -8 7 -12 16 -9 21 3 5 0 9 -6 9 -6 0 -8 5 -4 12 4 6 -1 17 -11 24 -10 8 -16 17 -12 20 4 4 -1 14 -11 23 -9 9 -19 25 -20 36 -2 11 -8 23 -14 26 -5 3 -9 9 -9 13 3 19 0 27 -8 21 -6 -3 -8 4 -6 15 2 11 -1 20 -6 20 -6 0 -7 5 -4 10 3 6 1 10 -5 10 -6 0 -8 5 -5 10 3 6 1 10 -5 10 -6 0 -8 5 -5 10 3 6 1 10 -5 10 -6 0 -8 5 -5 10 3 6 1 10 -5 10 -6 0 -8 5 -5 10 3 6 1 10 -5 10 -6 0 -8 5 -5 10 3 6 1 10 -6 10 -7 0 -9 3 -6 7 4 3 -1 12 -11 20 -9 8 -11 12 -5 8 9 -4 11 -1 7 9 -3 9 -10 16 -16 16 -5 0 -6 5 -3 10 3 6 1 10 -5 10 -6 0 -8 5 -5 10 3 6 1 10 -5 10 -6 0 -8 5 -5 10 3 6 0 10 -7 10 -11 0 -10 2 0 9 11 7 10 9 -3 15 -9 3 -13 10 -10 16 3 6 -1 13 -9 16 -9 3 -16 10 -16 16 0 5 6 6 13 3 6 -4 1 3 -12 14 -13 12 -20 21 -16 21 4 0 -5 20 -19 45 -13 25 -19 43 -13 39 7 -3 4 1 -5 9 -10 8 -15 17 -11 20 3 4 1 7 -5 7 -7 0 -12 9 -12 20 0 11 -5 20 -11 20 -5 0 -8 4 -4 9 3 5 1 12 -5 16 -6 4 -8 11 -5 16 4 5 1 9 -6 9 -7 0 -9 3 -6 7 4 3 -1 12 -11 20 -9 8 -11 12 -5 8 9 -4 11 -1 7 9 -3 9 -10 16 -16 16 -5 0 -6 5 -3 10 3 6 1 10 -5 10 -6 0 -8 5 -5 10 3 6 1 10 -5 10 -6 0 -8 5 -5 10 3 6 1 10 -5 10 -6 0 -8 5 -5 10 3 6 1 10 -5 10 -6 0 -8 5 -5 10 3 6 1 10 -5 10 -6 0 -8 5 -5 10 3 6 1 10 -6 10 -7 0 -9 3 -6 7 4 3 -1 12 -11 20 -9 8 -11 12 -5 8 9 -4 11 -1 7 9 -3 9 -10 16 -16 16 -5 0 -6 5 -3 10 3 6 1 10 -4 10 -6 0 -11 3 -10 8 2 14 -13 52 -22 52 -4 0 -6 9 -4 20 2 11 0 20 -6 20 -5 0 -9 7 -9 16 0 8 -4 12 -10 9 -6 -3 -7 1 -4 9 3 9 1 16 -6 16 -6 0 -9 4 -6 9 3 4 -4 17 -15 27 -11 10 -17 24 -14 33 4 9 -3 23 -17 34 -13 10 -18 16 -11 13 7 -4 6 4 -3 24 -9 16 -20 30 -25 30 -6 0 -7 5 -4 10 3 6 1 10 -4 10 -6 0 -11 5 -11 11 0 5 6 7 13 4 6 -4 3 1 -7 9 -11 9 -16 16 -10 16 5 0 3 4 -4 9 -7 4 -14 18 -15 29 -1 12 -5 22 -10 22 -4 0 -6 4 -3 9 3 5 -1 14 -9 21 -8 7 -15 21 -15 31 0 11 -5 19 -11 19 -5 0 -7 5 -4 10 3 6 1 10 -5 10 -6 0 -8 5 -5 10 3 6 1 10 -5 10 -6 0 -8 5 -5 10 3 6 1 10 -5 10 -6 0 -8 5 -5 10 3 6 1 10 -5 10 -6 0 -8 5 -5 10 3 6 1 10 -5 10 -6 0 -8 5 -5 10 3 6 1 10 -5 10 -6 0 -8 5 -5 10 3 6 1 10 -5 10 -6 0 -8 5 -5 10 3 6 1 10 -5 10 -6 0 -8 5 -5 10 3 6 1 10 -5 10 -6 0 -8 5 -5 10 3 6 1 10 -5 10 -6 0 -8 5 -5 10 3 6 1 10 -5 10 -6 0 -8 5 -5 10 3 6 1 10 -5 10 -6 0 -8 5 -5 10 3 6 1 10 -5 10 -6 0 -8 5 -5 10 3 6 1 10 -5 10 -6 0 -8 5 -5 10 3 6 1 10 -5 10 -6 0 -8 5 -5 10 3 6 1 10 -5 10 -6 0 -8 5 -5 10 3 6 1 10 -5 10 -6 0 -8 5 -5 10 3 6 1 10 -6 10 -7 0 -9 3 -6 7 4 3 -1 12 -11 20 -9 8 -11 12 -5 8 9 -4 11 -1 7 9 -3 9 -10 16 -16 16 -5 0 -6 5 -3 10 3 6 1 10 -5 10 -6 0 -8 5 -5 10 3 6 2 10 -4 10 -6 0 -8 7 -5 15 4 8 1 15 -5 15 -6 0 -11 11 -11 25 0 14 -4 25 -10 25 -5 0 -10 7 -10 16 0 8 -5 12 -10 9 -6 -4 -9 -3 -8 2 4 13 -44 113 -54 113 -4 0 -8 11 -8 25 0 14 -5 25 -11 25 -5 0 -8 4 -4 9 3 5 -2 17 -11 25 -8 9 -12 16 -7 16 4 0 -1 7 -11 15 -14 11 -16 15 -5 15 10 1 9 3 -4 11 -9 6 -15 14 -12 20 4 5 1 9 -4 9 -6 0 -11 11 -11 25 0 14 -7 28 -15 31 -8 4 -12 10 -9 15 3 5 0 9 -6 9 -6 0 -8 5 -5 10 3 6 -1 13 -9 16 -9 3 -14 10 -11 14 3 5 -2 15 -10 23 -8 9 -15 27 -15 42 0 15 -4 24 -10 20 -5 -3 -10 3 -10 14 0 12 -5 21 -11 21 -5 0 -7 5 -4 10 3 6 0 13 -9 16 -8 3 -17 12 -20 20 -4 10 -1 13 7 9 6 -4 4 0 -5 8 -10 8 -15 17 -11 20 3 4 1 7 -6 7 -7 0 -9 5 -6 10 3 6 1 10 -5 10 -6 0 -8 5 -5 10 3 6 1 10 -5 10 -6 0 -8 5 -5 10 3 6 1 10 -5 10 -6 0 -8 5 -5 10 3 6 1 10 -5 10 -6 0 -8 5 -5 10 3 6 1 10 -5 10 -6 0 -8 5 -5 10 3 6 1 10 -5 10 -6 0 -8 5 -5 10 3 6 1 10 -4 10 -6 0 -11 9 -11 20 0 11 -4 20 -10 20 -5 0 -10 9 -10 20 0 11 -5 20 -11 20 -5 0 -7 5 -4 10 3 6 1 10 -5 10 -6 0 -8 5 -5 10 3 6 2 10 -2 10 -5 0 -14 9 -21 21 -9 13 -9 18 -2 14 7 -4 7 1 -2 14 -7 12 -16 21 -20 21 -4 0 -5 6 -2 14 3 8 -3 19 -15 25 -12 7 -18 17 -15 26 4 8 1 15 -6 15 -6 0 -9 4 -5 9 3 5 -2 16 -10 24 -8 9 -15 21 -15 28 0 6 -8 18 -17 26 -12 10 -13 12 -3 8 10 -4 9 -2 -2 8 -10 8 -15 17 -11 20 3 4 1 7 -6 7 -7 0 -9 5 -6 10 3 6 1 10 -5 10 -6 0 -8 5 -5 10 3 6 1 10 -5 10 -6 0 -8 5 -5 10 3 6 1 10 -5 10 -6 0 -9 4 -6 9 3 5 -1 11 -9 15 -8 3 -15 15 -15 26 0 14 -4 19 -12 14 -8 -5 -9 -2 -5 10 4 10 1 19 -8 22 -8 4 -12 10 -9 15 3 5 0 9 -6 9 -6 0 -8 5 -5 10 3 6 1 10 -5 10 -6 0 -8 5 -5 10 3 6 1 10 -4 10 -6 0 -11 7 -11 16 0 9 -5 12 -11 8 -7 -4 -10 -1 -7 7 2 7 -5 22 -16 32 -12 10 -14 16 -6 12 8 -4 4 3 -10 15 -14 12 -18 19 -10 15 8 -3 2 6 -15 20 -16 15 -23 24 -15 20 8 -5 5 2 -7 14 -13 12 -23 27 -23 32 0 6 -7 8 -16 5 -8 -3 -13 -2 -10 3 7 11 -28 43 -37 34 -4 -3 -7 1 -7 11 0 9 -4 14 -10 11 -5 -3 -10 -1 -10 5 0 6 -4 8 -10 5 -5 -3 -10 1 -10 9 0 9 -7 13 -19 11 -11 -2 -22 3 -25 11 -3 9 -10 12 -16 9 -5 -3 -10 -1 -10 6 0 6 -8 9 -20 6 -13 -3 -18 -1 -13 6 4 6 -2 8 -15 5 -12 -4 -22 -2 -22 4 0 5 -4 6 -10 3 -5 -3 -10 -2 -10 3 0 6 -9 8 -20 5 -13 -3 -20 0 -20 8 0 11 -2 11 -10 -1 -8 -12 -10 -12 -10 -1 0 11 -3 11 -15 1 -8 -7 -15 -8 -15 -2 0 5 -11 12 -25 14 -14 3 -25 1 -25 -5 0 -5 -7 -4 -15 3 -12 10 -15 10 -15 -1 0 -11 -2 -11 -10 1 -9 13 -10 13 -10 0 0 -13 -1 -13 -10 0 -8 12 -10 12 -10 1 0 -10 -3 -11 -13 -2 -9 7 -17 7 -23 1z" transform="translate(0.000000,2000.000000) scale(0.100000,-0.100000)"/><path d="M10850 10681 c0 -6 4 -13 10 -16 6 -3 7 1 4 9 -7 18 -14 21 -14 7z" transform="translate(0.000000,2000.000000) scale(0.100000,-0.100000)"/><path d="M4982 8513 c-5 -10 -7 -24 -5 -30 3 -7 0 -13 -5 -13 -5 0 -13 -7 -16 -16 -4 -10 -2 -13 7 -9 6 4 5 1 -4 -7 -9 -7 -14 -19 -12 -25 3 -7 0 -13 -7 -13 -6 0 -8 -4 -5 -10 3 -5 1 -10 -5 -10 -6 0 -9 -4 -5 -9 3 -5 1 -12 -5 -16 -6 -4 -8 -11 -5 -16 4 -5 1 -9 -4 -9 -6 0 -11 -3 -10 -7 1 -5 -2 -19 -7 -33 -4 -14 -7 -27 -5 -28 1 -2 -6 -10 -16 -18 -10 -7 -14 -14 -9 -14 5 0 2 -8 -5 -17 -12 -14 -12 -16 1 -9 8 4 7 1 -4 -8 -10 -8 -15 -19 -11 -25 3 -6 1 -11 -5 -11 -6 0 -9 -4 -6 -9 3 -5 -1 -12 -10 -15 -9 -3 -14 -12 -11 -20 3 -8 -1 -23 -8 -34 -8 -10 -11 -22 -8 -26 3 -3 1 -6 -6 -6 -7 0 -10 -4 -6 -9 3 -5 1 -12 -5 -16 -5 -3 -10 -15 -10 -26 0 -11 -5 -17 -10 -14 -7 4 -9 -3 -6 -19 3 -15 1 -24 -5 -21 -8 6 -13 -8 -10 -27 0 -5 -3 -8 -9 -8 -5 0 -7 -7 -4 -15 4 -8 1 -15 -5 -15 -6 0 -10 -3 -9 -7 1 -5 -3 -18 -10 -29 -6 -12 -8 -24 -5 -28 3 -3 1 -6 -6 -6 -7 0 -9 -4 -6 -10 3 -5 1 -10 -5 -10 -7 0 -10 -7 -6 -15 3 -8 1 -15 -4 -15 -6 0 -10 -9 -10 -20 0 -11 -7 -23 -15 -26 -8 -4 -15 -15 -15 -25 0 -10 -5 -19 -12 -19 -6 0 -8 -3 -5 -6 3 -4 1 -16 -5 -28 -7 -11 -13 -24 -14 -28 -1 -5 -3 -10 -4 -13 -1 -3 -3 -8 -4 -12 -1 -5 -7 -18 -14 -29 -6 -12 -8 -24 -5 -28 3 -3 0 -6 -7 -6 -7 0 -11 -3 -7 -6 3 -3 -7 -31 -23 -61 -16 -30 -26 -62 -23 -71 4 -10 2 -13 -5 -8 -7 4 -12 2 -12 -3 0 -22 -2 -26 -16 -42 -8 -9 -14 -20 -13 -25 4 -22 -2 -35 -13 -28 -8 5 -9 2 -5 -9 3 -9 0 -23 -8 -31 -8 -7 -12 -16 -9 -18 2 -3 -2 -18 -10 -33 -8 -16 -12 -33 -9 -38 3 -6 2 -8 -3 -4 -5 3 -14 -6 -21 -19 -6 -13 -7 -24 -2 -24 5 0 0 -9 -11 -20 -11 -11 -20 -31 -20 -45 0 -14 -5 -25 -11 -25 -5 0 -7 -4 -4 -10 3 -5 1 -10 -5 -10 -7 0 -9 -7 -6 -16 4 -10 2 -13 -6 -8 -8 5 -9 2 -5 -9 3 -10 2 -17 -4 -17 -6 0 -7 -4 -4 -10 3 -5 1 -10 -4 -10 -6 0 -10 -3 -9 -7 1 -5 -3 -18 -10 -29 -6 -12 -8 -24 -5 -28 3 -3 1 -6 -5 -6 -7 0 -11 -3 -11 -7 3 -20 -2 -34 -10 -28 -6 3 -8 -4 -6 -15 2 -11 -1 -20 -6 -20 -6 0 -7 -4 -4 -10 3 -5 1 -10 -5 -10 -6 0 -8 -4 -5 -10 3 -5 1 -10 -5 -10 -6 0 -9 -4 -5 -9 3 -5 1 -12 -5 -16 -6 -4 -8 -11 -5 -16 4 -5 1 -9 -5 -9 -6 0 -8 -4 -5 -10 3 -5 1 -10 -5 -10 -6 0 -9 -4 -6 -9 3 -5 -1 -14 -9 -21 -8 -7 -15 -18 -15 -24 0 -6 5 -4 10 4 7 10 10 11 10 2 0 -7 -7 -15 -16 -19 -8 -3 -13 -12 -10 -19 3 -8 1 -14 -5 -14 -6 0 -8 -4 -5 -9 4 -5 2 -11 -3 -13 -5 -1 -11 -12 -13 -23 -1 -11 -9 -26 -16 -33 -7 -8 -10 -18 -7 -23 4 -5 1 -9 -6 -9 -7 0 -10 -3 -6 -6 3 -4 -5 -27 -19 -51 -13 -24 -22 -49 -19 -54 4 -5 1 -9 -5 -9 -6 0 -8 -4 -5 -10 3 -5 1 -10 -5 -10 -7 0 -9 -7 -6 -15 3 -9 -1 -18 -9 -21 -8 -4 -15 -14 -15 -24 0 -11 -5 -22 -10 -25 -6 -4 -8 -11 -5 -16 4 -5 1 -9 -5 -9 -7 0 -9 -8 -5 -21 5 -15 4 -19 -4 -15 -10 6 -15 -6 -12 -26 0 -5 -4 -8 -11 -8 -6 0 -8 -3 -5 -6 3 -4 1 -16 -5 -28 -7 -11 -11 -24 -10 -28 1 -5 -3 -8 -9 -8 -6 0 -9 -7 -5 -15 3 -8 2 -15 -2 -15 -5 0 -14 -16 -21 -35 -7 -19 -17 -35 -23 -35 -6 0 -5 -7 3 -17 10 -11 10 -14 2 -9 -9 5 -13 0 -13 -13 0 -12 -5 -21 -11 -21 -5 0 -7 -4 -4 -10 3 -5 2 -10 -3 -10 -6 0 -13 -7 -16 -16 -3 -8 -2 -12 4 -9 6 3 7 -1 4 -9 -3 -9 -10 -16 -16 -16 -5 0 -7 -4 -4 -9 4 -5 0 -11 -6 -13 -7 -3 -13 -11 -14 -19 -3 -46 -5 -50 -16 -43 -7 5 -9 2 -5 -8 3 -9 0 -21 -6 -28 -9 -10 -9 -11 3 -6 13 7 13 6 0 -6 -22 -20 -37 -51 -34 -71 1 -9 -1 -15 -6 -12 -7 4 -23 -31 -21 -47 1 -5 -4 -8 -10 -8 -6 0 -8 -9 -4 -21 5 -15 4 -19 -4 -15 -10 6 -15 -6 -12 -26 0 -5 -4 -8 -10 -8 -5 0 -8 -4 -4 -9 3 -5 1 -12 -5 -16 -6 -4 -8 -11 -5 -16 4 -5 1 -9 -4 -9 -6 0 -11 -9 -11 -19 0 -11 -5 -21 -10 -23 -6 -2 -12 -13 -13 -26 0 -12 -5 -22 -10 -22 -4 0 -5 -4 -2 -10 3 -5 2 -10 -4 -10 -5 0 -8 -9 -6 -20 2 -11 1 -19 -3 -17 -4 3 -16 -15 -28 -39 -11 -24 -17 -41 -12 -37 12 6 -14 -40 -26 -48 -5 -4 -5 -12 -2 -18 4 -6 3 -11 -2 -11 -6 0 -13 -7 -16 -16 -4 -10 -2 -13 7 -9 6 4 4 0 -5 -8 -10 -8 -15 -17 -11 -20 3 -4 1 -7 -6 -7 -8 0 -11 -7 -7 -15 3 -8 1 -15 -5 -15 -6 0 -8 -4 -5 -9 3 -5 -1 -11 -9 -15 -8 -3 -12 -12 -9 -20 3 -8 1 -17 -5 -21 -6 -3 -11 -15 -11 -25 0 -10 -5 -20 -10 -22 -6 -2 -12 -13 -13 -26 0 -12 -5 -22 -10 -22 -4 0 -6 -4 -2 -9 3 -6 -1 -16 -8 -23 -8 -7 -12 -21 -9 -32 3 -13 1 -17 -6 -12 -11 6 -16 -6 -13 -26 0 -5 -3 -8 -9 -8 -5 0 -7 -7 -4 -15 4 -8 1 -15 -6 -15 -6 0 -8 -4 -5 -10 3 -5 1 -10 -5 -10 -6 0 -8 -4 -5 -10 3 -5 2 -10 -2 -10 -5 0 -9 -10 -10 -22 -1 -11 -7 -24 -13 -28 -6 -4 -12 -17 -13 -28 -1 -12 -6 -22 -11 -22 -5 0 -6 -3 -3 -6 3 -4 1 -16 -5 -28 -7 -11 -11 -24 -10 -28 1 -5 -3 -8 -9 -8 -5 0 -8 -4 -5 -9 4 -5 1 -11 -4 -13 -6 -2 -12 -13 -13 -26 0 -12 -5 -22 -10 -22 -4 0 -5 -4 -2 -10 3 -5 1 -10 -5 -10 -6 0 -9 -4 -5 -9 3 -5 1 -12 -5 -16 -6 -4 -8 -11 -5 -16 4 -5 1 -9 -5 -9 -6 0 -8 -4 -5 -10 3 -5 1 -10 -5 -10 -6 0 -8 -4 -5 -10 3 -5 1 -10 -5 -10 -6 0 -8 -5 -4 -11 3 -6 1 -15 -5 -19 -7 -4 -13 -19 -15 -33 -1 -15 -6 -30 -11 -35 -4 -4 -5 -1 0 7 6 10 4 12 -4 7 -7 -5 -10 -14 -7 -22 3 -7 1 -16 -5 -19 -5 -4 -7 -11 -4 -16 4 -5 1 -9 -5 -9 -6 0 -8 -4 -5 -10 3 -5 1 -10 -4 -10 -6 0 -11 -11 -11 -25 0 -14 -5 -25 -11 -25 -5 0 -7 -4 -4 -10 3 -5 1 -10 -5 -10 -6 0 -8 -4 -5 -10 3 -5 2 -10 -4 -10 -6 0 -8 -7 -5 -15 4 -8 1 -15 -6 -15 -7 0 -10 -6 -7 -14 3 -8 -1 -17 -8 -20 -8 -3 -12 -12 -9 -21 3 -8 1 -15 -5 -15 -6 0 -11 -7 -11 -15 0 -9 -9 -33 -20 -54 -10 -21 -16 -41 -13 -45 4 -3 1 -6 -6 -6 -7 0 -10 -4 -6 -9 3 -5 1 -12 -5 -16 -6 -4 -8 -11 -5 -16 4 -5 1 -9 -5 -9 -6 0 -8 -4 -5 -10 3 -5 1 -10 -4 -10 -6 0 -11 -6 -11 -14 0 -8 -5 -27 -12 -43 -6 -15 -11 -31 -10 -35 1 -5 -3 -8 -9 -8 -5 0 -7 -4 -4 -10 3 -5 1 -10 -4 -10 -6 0 -11 -5 -11 -11 0 -5 6 -7 13 -4 6 4 4 0 -6 -8 -10 -8 -19 -24 -20 -36 -1 -12 -5 -21 -10 -21 -5 0 -6 -7 -3 -16 4 -10 2 -13 -6 -8 -7 5 -9 0 -6 -14 4 -12 1 -25 -4 -29 -7 -4 -8 -1 -3 7 5 8 4 11 -2 7 -6 -4 -10 -18 -10 -32 0 -14 -9 -33 -19 -41 -11 -9 -12 -12 -4 -8 13 7 13 5 2 -9 -8 -9 -11 -21 -7 -27 3 -5 -1 -13 -10 -16 -9 -4 -14 -13 -11 -20 3 -8 1 -14 -5 -14 -6 0 -8 -4 -4 -9 3 -5 0 -15 -7 -23 -7 -7 -13 -17 -14 -23 -1 -26 -17 -64 -24 -60 -5 3 -7 -6 -6 -19 2 -15 -3 -27 -13 -31 -13 -5 -13 -7 -1 -15 12 -8 12 -10 -3 -16 -9 -3 -17 -15 -17 -25 0 -10 -4 -19 -10 -19 -5 0 -10 -5 -10 -11 0 -5 6 -7 13 -3 6 4 4 -2 -6 -13 -9 -11 -14 -23 -10 -26 3 -4 1 -7 -6 -7 -7 0 -10 -4 -6 -9 3 -5 0 -13 -6 -16 -5 -4 -8 -13 -5 -21 3 -8 1 -14 -5 -14 -6 0 -9 -6 -6 -12 2 -7 -3 -19 -12 -26 -9 -8 -10 -11 -3 -7 16 8 15 0 -3 -19 -8 -8 -16 -23 -18 -33 -1 -10 -7 -24 -11 -32 -7 -10 -5 -12 5 -6 8 4 3 -2 -9 -15 -17 -16 -20 -25 -12 -30 8 -5 7 -9 -4 -13 -9 -4 -13 -13 -10 -22 3 -8 2 -15 -4 -15 -8 0 -23 -44 -26 -75 -1 -5 -8 -16 -16 -23 -13 -12 -13 -13 0 -6 12 7 13 5 3 -8 -7 -8 -10 -18 -6 -21 3 -4 1 -7 -6 -7 -7 0 -9 -4 -6 -10 3 -5 1 -10 -4 -10 -6 0 -11 -5 -11 -11 0 -5 6 -7 13 -3 6 4 4 -2 -6 -14 -11 -11 -16 -26 -12 -31 3 -6 1 -11 -5 -11 -6 0 -8 -4 -5 -10 3 -5 1 -10 -5 -10 -6 0 -9 -4 -6 -9 6 -9 -15 -61 -26 -61 -3 0 -5 -11 -3 -25 1 -14 -1 -25 -5 -25 -6 0 -8 -7 -12 -50 -1 -11 -5 -20 -9 -20 -4 0 -10 -7 -13 -16 -4 -10 -2 -13 7 -8 6 4 4 -2 -6 -14 -12 -13 -16 -28 -12 -41 4 -13 2 -21 -5 -21 -6 0 -10 -8 -9 -17 2 -10 -2 -28 -9 -39 -12 -22 -23 -82 -23 -122 1 -12 -4 -22 -9 -22 -6 0 -10 -5 -10 -11 0 -5 3 -8 7 -6 5 3 8 -6 8 -19 0 -13 -4 -24 -9 -24 -5 0 1 -12 15 -27 13 -14 17 -23 9 -18 -8 4 -5 -2 7 -14 12 -11 27 -21 32 -21 5 0 13 -5 17 -12 5 -7 3 -8 -6 -3 -8 5 -11 4 -6 -3 4 -6 13 -9 21 -5 10 3 15 -1 16 -13 0 -11 3 -14 5 -7 3 7 12 9 20 6 7 -3 11 -10 7 -16 -4 -6 0 -8 10 -4 10 3 17 2 17 -3 0 -5 7 -7 16 -3 10 4 20 -1 26 -11 5 -9 14 -14 19 -10 5 3 16 1 24 -6 9 -8 15 -8 20 0 3 6 11 8 16 4 5 -3 7 -10 4 -15 -3 -5 1 -6 9 -3 8 3 24 1 35 -5 14 -8 22 -8 27 0 5 8 11 6 21 -7 11 -15 16 -16 22 -6 6 10 10 10 21 -3 10 -12 16 -13 26 -4 9 7 14 7 14 1 0 -5 20 -9 45 -9 25 0 48 -3 52 -8 5 -4 2 -5 -6 0 -9 5 -12 4 -7 -3 4 -8 15 -8 31 -2 16 6 25 6 25 0 0 -5 15 -8 34 -6 19 1 33 -1 30 -6 -3 -4 0 -8 5 -8 6 0 11 5 11 11 0 8 6 7 17 -2 15 -12 16 -12 8 1 -5 9 0 8 13 -4 15 -13 22 -15 22 -6 0 10 3 10 15 0 12 -10 15 -10 15 1 0 11 2 11 10 -1 9 -13 10 -13 10 0 0 13 1 13 10 0 5 -8 10 -11 10 -6 0 5 7 3 15 -4 11 -9 15 -9 15 -1 0 7 4 10 8 7 5 -3 32 -6 60 -7 29 -2 52 -6 52 -11 0 -5 9 -4 20 2 15 8 20 8 20 -1 0 -8 5 -7 17 2 14 12 15 12 9 1 -7 -11 -4 -12 13 -3 16 9 21 9 21 -1 0 -10 2 -10 9 1 6 9 10 10 12 2 5 -14 70 -20 137 -11 38 5 55 3 64 -7 7 -9 15 -10 23 -3 8 6 15 6 23 -2 9 -9 12 -9 12 0 0 9 5 10 18 3 13 -7 23 -6 30 1 9 9 12 9 12 -1 0 -11 3 -11 17 0 11 10 14 10 9 2 -4 -7 -2 -13 3 -13 6 0 11 5 11 11 0 8 4 8 14 0 11 -9 15 -9 19 1 4 10 6 10 6 -1 1 -11 4 -11 16 -1 12 10 15 10 15 0 0 -10 3 -10 15 0 12 10 15 10 15 0 0 -9 3 -10 13 -1 10 8 17 7 25 -1 7 -7 12 -8 12 -4 0 5 7 3 15 -4 11 -9 15 -9 15 -1 0 9 5 9 20 1 14 -8 20 -8 20 0 0 6 5 8 10 5 6 -4 89 -7 185 -7 104 -1 175 -5 175 -11 0 -5 6 -5 13 2 10 8 17 7 25 -1 9 -9 12 -9 12 -1 0 8 9 9 30 3 18 -5 30 -5 30 1 0 5 5 9 11 9 5 0 7 -6 3 -12 -5 -9 -2 -9 9 1 12 9 17 10 17 2 0 -9 5 -9 20 -1 15 8 20 8 20 -2 0 -9 3 -9 10 2 5 8 10 10 10 5 0 -6 9 -11 20 -11 11 0 20 4 20 8 0 5 8 4 19 -1 10 -6 21 -7 25 -4 11 11 36 12 36 1 0 -6 6 -5 15 2 9 7 18 10 22 6 3 -3 0 -6 -7 -6 -7 0 -10 -3 -7 -6 4 -4 13 -1 22 6 11 9 15 9 15 1 0 -8 5 -9 19 -1 14 7 21 6 24 -3 3 -9 7 -9 20 2 12 9 17 10 17 2 0 -9 5 -9 20 -1 15 8 20 8 20 -2 0 -9 3 -9 10 2 5 8 10 10 10 5 0 -6 9 -11 20 -11 11 0 20 4 20 7 0 4 14 4 30 -1 21 -6 30 -5 30 3 0 7 6 6 15 -3 11 -12 35 -14 114 -10 54 3 97 2 94 -2 -2 -5 1 -8 6 -8 6 0 11 3 11 8 0 4 11 7 24 7 13 0 22 -3 19 -7 -2 -5 1 -8 6 -8 6 0 11 4 11 10 0 5 9 6 23 2 12 -4 68 -5 124 -2 55 3 99 2 96 -2 -2 -5 1 -8 6 -8 6 0 11 3 11 8 0 4 11 7 24 7 13 0 22 -3 19 -7 -2 -5 1 -8 6 -8 6 0 11 4 11 10 0 6 9 6 23 1 12 -4 54 -5 94 -2 39 3 69 3 66 -1 -2 -5 1 -8 6 -8 6 0 11 4 11 9 0 5 15 6 34 1 19 -4 53 -4 75 0 22 4 38 3 35 -1 -3 -5 0 -9 5 -9 6 0 11 4 11 10 0 5 6 7 13 5 29 -10 77 -13 71 -4 -3 5 0 9 5 9 6 0 11 -5 11 -11 0 -5 5 -7 10 -4 6 3 10 1 10 -6 0 -8 4 -9 13 0 10 8 17 7 25 -1 9 -9 12 -9 12 1 0 10 3 11 14 2 11 -9 15 -9 19 1 4 10 6 10 6 -1 1 -11 4 -11 16 -1 8 7 15 8 15 3 0 -5 9 -9 20 -9 11 0 20 4 20 9 0 5 7 4 15 -3 12 -10 15 -10 15 0 0 10 3 10 15 0 10 -9 15 -9 15 -1 0 6 5 11 11 11 5 0 8 -3 6 -7 -3 -5 23 -8 58 -8 35 0 62 2 60 5 -2 3 5 6 15 6 10 0 16 -4 14 -8 -3 -4 0 -8 5 -8 6 0 11 5 11 11 0 8 5 8 15 -1 12 -10 15 -10 15 0 0 10 3 10 15 0 10 -9 15 -9 15 -1 0 6 5 11 11 11 5 0 7 -5 3 -11 -5 -8 -1 -8 13 0 14 7 23 7 31 -1 9 -9 12 -9 12 1 0 11 3 11 15 1 12 -10 15 -10 15 0 0 10 3 10 15 0 12 -10 15 -10 15 1 0 9 3 10 8 4 8 -12 52 -12 70 -1 7 4 12 2 12 -5 0 -10 3 -10 12 -1 8 8 15 9 25 1 10 -9 13 -8 13 1 0 9 3 10 13 1 10 -8 17 -7 25 1 7 7 12 8 12 2 0 -12 29 -12 48 0 7 4 12 2 12 -5 0 -8 4 -9 13 0 10 8 17 7 25 -1 9 -9 12 -9 12 2 0 11 3 11 12 2 8 -8 17 -8 31 -1 14 8 18 8 13 0 -4 -6 -2 -11 3 -11 6 0 11 5 11 11 0 8 5 8 15 -1 12 -10 15 -10 15 0 0 10 3 10 15 0 10 -9 15 -9 15 -1 0 6 5 11 11 11 5 0 8 -3 6 -7 -3 -5 23 -8 58 -8 35 0 62 2 60 5 -2 3 5 6 15 6 10 0 16 -4 14 -8 -3 -4 0 -8 5 -8 6 0 11 5 11 11 0 8 5 8 15 -1 12 -10 15 -10 15 0 0 10 3 10 15 0 12 -10 15 -10 15 1 0 11 2 11 10 -1 8 -12 10 -12 10 -1 0 11 3 11 15 1 12 -10 15 -10 15 0 0 10 3 10 15 0 10 -9 15 -9 15 -1 0 6 5 11 11 11 5 0 8 -3 6 -7 -3 -5 23 -8 58 -8 35 0 62 2 60 5 -2 3 5 6 15 6 10 0 16 -4 14 -8 -3 -4 0 -8 5 -8 6 0 11 5 11 11 0 8 5 8 15 -1 12 -10 15 -10 15 0 0 10 3 10 15 0 12 -10 15 -10 15 1 0 11 2 11 10 -1 8 -12 10 -12 10 -1 0 11 3 11 15 1 12 -10 15 -10 15 0 0 10 3 10 15 0 10 -9 15 -9 15 -1 0 6 5 11 11 11 5 0 8 -3 6 -7 -3 -5 23 -8 58 -8 35 0 62 2 60 5 -2 3 5 6 15 6 10 0 16 -4 14 -8 -3 -4 0 -8 5 -8 6 0 11 5 11 11 0 8 5 8 15 -1 12 -10 15 -10 15 0 0 10 3 10 15 0 12 -10 15 -10 15 1 0 11 2 11 10 -1 8 -12 10 -12 10 -1 0 11 3 11 15 1 12 -10 15 -10 15 0 0 10 3 10 15 0 10 -9 15 -9 15 -1 0 6 5 11 11 11 5 0 8 -3 6 -7 -3 -5 23 -8 58 -8 35 0 62 2 60 5 -2 3 5 6 15 6 10 0 16 -4 14 -8 -3 -4 0 -8 5 -8 6 0 11 5 11 11 0 8 5 8 15 -1 12 -10 15 -10 15 0 0 10 3 10 15 0 11 -9 15 -9 15 -1 0 8 5 9 18 2 13 -7 23 -6 30 1 9 9 12 9 12 -1 0 -10 3 -11 13 -2 10 8 17 7 25 -1 9 -9 12 -9 12 1 0 10 3 11 13 2 10 -8 17 -7 25 1 7 7 12 8 12 2 0 -12 29 -12 48 0 7 4 12 2 12 -5 0 -8 4 -9 13 0 10 8 17 7 25 -1 9 -9 12 -9 12 1 0 7 5 9 12 5 18 -11 51 -13 69 -3 10 5 21 3 27 -3 9 -9 12 -9 12 1 0 11 3 11 15 1 12 -10 15 -10 15 0 0 10 3 10 14 1 11 -9 15 -9 19 1 4 11 6 10 6 0 1 -7 5 -10 11 -7 5 3 10 3 10 -2 0 -6 2490 -7 2563 -1 9 1 17 6 17 11 0 5 7 4 15 -3 12 -10 15 -10 15 0 0 10 3 10 15 0 10 -9 15 -9 15 -1 0 6 5 11 11 11 5 0 8 -3 6 -8 -3 -4 23 -7 58 -7 35 0 62 2 60 5 -2 3 5 6 15 6 10 0 16 -4 14 -8 -3 -4 0 -8 5 -8 6 0 11 5 11 11 0 8 5 8 15 -1 12 -10 15 -10 15 0 0 10 3 10 15 0 10 -9 15 -9 15 -1 0 6 5 11 11 11 5 0 7 -5 3 -11 -5 -8 -1 -8 13 0 14 7 23 7 31 -1 9 -9 12 -9 12 1 0 11 3 11 15 1 12 -10 15 -10 15 0 0 10 3 10 15 0 12 -10 15 -10 15 1 0 9 3 10 8 4 8 -12 52 -12 70 -1 7 4 12 2 12 -5 0 -8 4 -9 13 0 10 8 17 7 25 -1 9 -9 12 -9 12 1 0 10 3 11 13 2 10 -8 17 -7 25 1 7 7 12 8 12 2 0 -12 29 -12 48 0 7 4 12 2 12 -5 0 -8 4 -9 13 0 10 8 17 7 25 -1 9 -9 12 -9 12 2 0 11 3 11 12 2 8 -8 17 -8 31 -1 14 8 18 8 13 0 -4 -6 -2 -11 3 -11 6 0 11 5 11 11 0 8 5 8 15 -1 12 -10 15 -10 15 0 0 10 3 10 15 0 10 -9 15 -9 15 -1 0 6 5 11 11 11 5 0 8 -3 6 -8 -3 -4 23 -7 58 -7 35 0 62 2 60 5 -2 3 5 6 15 6 10 0 16 -4 14 -8 -3 -4 0 -8 5 -8 6 0 11 5 11 11 0 8 5 8 15 -1 12 -10 15 -10 15 0 0 10 3 10 15 0 12 -10 15 -10 15 1 0 11 2 11 10 -1 8 -12 10 -12 10 -1 0 11 3 11 15 1 12 -10 15 -10 15 0 0 10 3 10 15 0 10 -9 15 -9 15 -1 0 6 5 11 11 11 5 0 8 -3 6 -7 -3 -5 23 -8 58 -8 35 0 62 2 60 5 -2 3 5 6 15 6 10 0 16 -4 14 -8 -3 -4 0 -8 5 -8 6 0 11 5 11 11 0 8 5 8 15 -1 12 -10 15 -10 15 0 0 10 3 10 15 0 12 -10 15 -10 15 1 0 11 2 11 10 -1 8 -12 10 -12 10 -1 0 11 3 11 15 1 12 -10 15 -10 15 0 0 10 3 10 15 0 10 -9 15 -9 15 -1 0 6 5 11 11 11 5 0 8 -3 6 -7 -3 -5 23 -8 58 -8 35 0 62 2 60 5 -2 3 5 6 15 6 10 0 16 -4 14 -8 -3 -4 0 -8 5 -8 6 0 11 5 11 11 0 8 5 8 15 -1 12 -10 15 -10 15 0 0 10 3 10 15 0 12 -10 15 -10 15 1 0 11 2 11 10 -1 8 -12 10 -12 10 -1 0 11 3 11 15 1 12 -10 15 -10 15 0 0 10 3 10 15 0 10 -9 15 -9 15 -1 0 6 5 11 11 11 5 0 8 -3 6 -7 -3 -5 23 -8 58 -8 35 0 62 2 60 5 -2 3 5 6 15 6 10 0 16 -4 14 -8 -3 -4 0 -8 5 -8 6 0 11 5 11 11 0 8 5 8 15 -1 12 -10 15 -10 15 0 0 10 3 10 15 0 11 -9 15 -9 15 -1 0 8 5 9 18 2 13 -7 23 -6 30 1 9 9 12 9 12 -1 0 -10 3 -11 13 -2 10 8 17 7 25 -1 9 -9 12 -9 12 1 0 10 3 11 13 2 10 -8 17 -7 25 1 7 7 12 8 12 2 0 -12 29 -12 48 0 7 4 12 2 12 -5 0 -8 4 -9 13 0 10 8 17 7 25 -1 9 -9 12 -9 12 1 0 7 5 9 12 5 18 -11 51 -13 69 -3 10 5 21 3 27 -3 9 -9 12 -9 12 1 0 11 3 11 15 1 12 -10 15 -10 15 0 0 10 3 10 15 0 12 -10 15 -10 15 1 0 9 3 10 8 4 9 -13 42 -15 42 -3 0 6 6 5 15 -2 12 -10 15 -10 15 0 0 10 3 10 15 0 10 -9 15 -9 15 -1 0 6 5 11 11 11 5 0 8 -4 5 -8 -4 -7 19 -7 97 1 9 1 17 5 17 10 0 4 7 4 15 -1 9 -4 40 -5 70 -2 29 3 51 2 49 -2 -3 -4 0 -8 5 -8 6 0 11 3 11 8 0 4 11 7 24 7 13 0 22 -3 19 -7 -2 -5 1 -8 6 -8 6 0 11 4 11 10 0 6 9 6 24 0 15 -5 37 -5 56 0 19 5 28 5 25 -1 -4 -5 -1 -9 4 -9 6 0 11 4 11 9 0 5 15 6 34 1 19 -4 53 -4 75 0 22 4 38 3 35 -1 -3 -5 0 -9 5 -9 6 0 11 4 11 9 0 5 15 6 33 2 17 -4 64 -5 104 -2 39 4 69 3 66 -1 -2 -5 1 -8 6 -8 6 0 11 3 11 8 0 4 11 7 24 7 13 0 22 -3 19 -7 -2 -5 1 -8 6 -8 6 0 11 4 11 10 0 5 9 6 23 2 12 -4 68 -5 124 -2 55 3 99 2 96 -3 -2 -4 1 -7 6 -7 6 0 11 5 11 11 0 6 7 9 15 5 8 -3 15 0 15 7 0 8 3 8 9 -2 6 -8 14 -10 22 -5 21 13 39 14 39 2 0 -6 6 -5 15 2 9 7 18 10 22 6 3 -3 0 -6 -7 -6 -7 0 -10 -3 -7 -6 4 -4 13 -1 22 6 11 9 15 9 15 1 0 -8 5 -9 19 -1 14 7 21 6 24 -3 3 -9 7 -9 20 2 12 9 17 10 17 2 0 -9 5 -9 20 -1 15 8 20 8 20 -2 0 -9 3 -9 10 2 5 8 10 10 10 5 0 -6 9 -11 20 -11 11 0 20 4 20 8 0 5 8 4 19 -1 10 -6 21 -7 25 -4 11 11 36 12 36 1 0 -6 6 -5 15 2 9 7 18 10 22 6 3 -3 0 -6 -7 -6 -7 0 -10 -3 -7 -6 4 -4 13 -1 22 6 11 9 15 9 15 1 0 -8 5 -9 19 -1 14 7 21 6 24 -3 3 -9 7 -9 20 2 12 9 17 10 17 2 0 -9 5 -9 20 -1 15 8 20 8 20 -2 0 -9 3 -9 10 2 5 8 10 10 10 5 0 -6 9 -11 20 -11 11 0 20 4 20 9 0 4 4 6 9 2 5 -3 12 -2 15 3 3 5 27 6 53 2 62 -7 289 -3 305 6 7 4 8 3 4 -4 -4 -7 -2 -12 3 -12 6 0 11 4 11 10 0 5 7 7 16 3 9 -3 20 0 25 8 7 12 9 12 9 0 0 -11 3 -11 15 -1 8 7 15 8 15 3 0 -5 9 -9 20 -9 11 0 20 4 20 9 0 5 6 4 14 -2 11 -9 15 -9 19 1 4 10 6 10 6 -1 1 -11 4 -11 16 -1 12 10 15 10 15 0 0 -10 3 -10 14 -1 11 9 15 9 19 -1 4 -10 6 -10 6 1 1 11 4 11 16 1 8 -7 15 -8 15 -3 0 6 14 9 30 7 17 -2 30 1 30 7 0 6 5 7 12 3 6 -4 43 -6 82 -5 97 3 106 4 106 12 0 4 13 4 30 -1 18 -5 30 -5 30 0 0 6 11 5 26 0 18 -7 23 -7 18 1 -5 8 3 10 25 7 17 -2 31 -2 31 1 0 4 18 5 40 3 27 -3 40 0 40 8 0 10 3 10 15 0 12 -10 15 -10 15 0 0 10 3 10 15 0 8 -7 15 -8 15 -3 0 5 17 10 37 11 53 4 71 7 79 15 4 4 12 7 18 7 6 0 5 -4 -3 -9 -10 -7 -7 -9 12 -8 14 1 23 5 21 8 -2 4 7 9 21 11 13 3 22 1 19 -4 -3 -5 10 -2 30 6 26 11 36 12 36 3 0 -8 3 -7 9 2 5 8 18 12 30 8 12 -3 24 -1 27 4 3 5 10 7 15 4 5 -4 9 -2 9 4 0 5 9 8 20 6 11 -2 20 0 20 5 0 5 9 7 20 5 11 -2 20 2 20 8 0 7 4 6 10 -3 5 -8 10 -10 10 -4 0 11 46 29 63 26 4 -1 7 3 7 9 0 5 4 8 9 4 5 -3 12 -1 16 5 4 6 11 8 16 5 5 -4 9 -1 9 5 0 6 5 8 10 5 6 -3 10 -1 10 5 0 6 5 8 10 5 6 -3 10 1 10 10 0 9 4 14 10 10 5 -3 18 3 29 14 11 11 22 17 25 14 6 -6 10 12 7 30 0 4 4 7 10 7 5 0 8 4 4 9 -3 5 -1 12 5 16 6 4 8 11 5 16 -4 5 -1 9 6 9 8 0 8 4 -1 15 -8 10 -9 15 -1 15 7 0 8 8 0 26 -5 15 -7 29 -4 32 3 3 5 -1 5 -8 0 -7 2 -11 5 -8 3 3 1 17 -4 32 -7 17 -7 26 -1 26 6 0 10 5 10 11 0 5 -4 8 -9 5 -4 -3 -6 5 -4 18 3 13 0 33 -6 43 -7 14 -7 23 1 31 9 9 9 12 0 12 -6 0 -9 7 -5 17 4 11 3 14 -5 9 -9 -5 -9 -1 -2 18 7 20 6 27 -7 34 -11 7 -12 11 -4 17 9 5 7 13 -6 28 -12 14 -13 18 -3 12 12 -6 12 -5 3 5 -6 7 -9 19 -6 26 3 8 0 14 -7 14 -6 0 -8 5 -5 11 4 5 -1 20 -12 31 -10 12 -12 18 -5 14 6 -4 12 -2 12 3 0 6 -4 11 -10 11 -5 0 -7 7 -4 15 4 8 1 15 -4 15 -6 0 -9 9 -7 20 2 11 0 20 -6 20 -5 0 -8 3 -8 8 5 30 -2 62 -13 56 -8 -5 -9 -2 -5 9 3 9 2 19 -4 22 -5 4 -7 11 -4 16 4 5 2 9 -4 9 -6 0 -8 6 -5 14 3 7 -2 21 -11 30 -12 12 -13 16 -3 16 10 0 9 3 -2 10 -8 5 -11 10 -6 10 5 0 3 6 -3 13 -6 8 -8 17 -4 20 3 4 1 7 -5 7 -6 0 -9 7 -5 17 4 11 3 14 -5 9 -8 -5 -10 -2 -6 8 4 10 1 16 -7 16 -7 0 -10 3 -7 6 10 9 -23 94 -35 94 -7 0 -5 5 3 10 10 6 11 10 2 10 -6 0 -11 3 -10 8 1 4 -3 17 -10 30 -7 12 -9 22 -5 22 4 0 -1 7 -11 15 -12 9 -14 15 -7 15 7 0 11 6 8 13 -2 6 -10 11 -17 9 -7 -2 -10 3 -7 12 4 9 2 18 -4 21 -5 4 -7 11 -4 16 4 5 1 9 -6 9 -7 0 -9 3 -6 7 4 3 -1 15 -10 26 -10 11 -12 17 -6 13 9 -5 11 -2 7 8 -3 9 -11 16 -17 16 -6 0 -7 3 -4 7 4 3 1 13 -6 21 -10 13 -9 15 3 8 9 -4 8 -2 -2 7 -10 8 -15 17 -11 20 3 4 1 7 -5 7 -7 0 -11 3 -11 8 3 17 -14 72 -23 72 -5 0 -6 5 -3 10 3 6 1 10 -5 10 -6 0 -9 4 -6 9 4 5 2 11 -4 13 -5 1 -11 15 -12 30 -1 15 -6 24 -10 22 -7 -5 -12 18 -9 39 0 4 -4 7 -10 7 -5 0 -7 4 -4 10 3 5 1 10 -5 10 -6 0 -8 5 -5 10 3 6 1 10 -5 10 -6 0 -8 5 -5 10 3 5 1 10 -5 10 -6 0 -9 4 -5 9 3 5 1 12 -5 16 -5 3 -10 17 -10 31 0 13 -4 24 -9 24 -9 0 -22 28 -27 60 -2 8 -8 16 -13 18 -6 2 -11 12 -11 23 0 10 -5 19 -11 19 -6 0 -9 9 -6 20 3 12 -1 24 -11 30 -10 5 -13 10 -8 10 5 0 1 9 -9 20 -10 11 -14 20 -10 20 5 0 0 7 -11 16 -10 8 -13 13 -6 9 6 -3 12 -1 12 4 0 6 -5 11 -11 11 -5 0 -7 5 -4 10 3 5 1 10 -5 10 -6 0 -8 5 -5 10 3 6 1 10 -5 10 -6 0 -8 5 -5 10 3 6 1 10 -5 10 -6 0 -8 4 -5 10 3 5 1 10 -4 10 -6 0 -11 8 -11 18 0 9 -9 32 -21 51 -11 18 -18 36 -15 39 3 3 -2 11 -12 19 -9 8 -11 12 -4 8 6 -3 12 -2 12 3 0 6 -7 12 -15 16 -9 3 -12 12 -8 22 4 10 2 15 -3 11 -5 -3 -14 6 -21 19 -6 13 -7 22 -3 19 4 -3 3 6 -3 20 -7 14 -15 25 -19 25 -4 0 -4 7 -1 17 4 11 3 14 -5 9 -8 -5 -10 -2 -6 8 3 9 1 16 -6 16 -6 0 -8 5 -5 10 3 6 1 10 -5 10 -6 0 -8 5 -5 10 3 6 0 10 -7 10 -9 0 -9 3 2 10 14 9 7 15 -14 11 -5 -1 -6 5 -3 14 4 8 2 15 -4 15 -6 0 -9 7 -5 15 3 8 1 15 -4 15 -5 0 -6 7 -3 17 4 11 3 14 -5 9 -11 -6 -14 0 -11 20 0 4 -5 11 -13 15 -10 7 -10 9 2 9 12 1 11 3 -3 11 -9 6 -15 14 -12 20 4 5 1 9 -4 9 -6 0 -11 11 -11 25 0 14 -5 25 -11 25 -5 0 -7 5 -4 10 3 6 1 10 -5 10 -6 0 -8 5 -5 10 10 16 -16 41 -35 35 -10 -3 -20 0 -23 8 -3 9 -16 13 -31 12 -14 -2 -26 0 -26 5 0 4 -15 11 -32 15 -31 7 -37 9 -55 15 -5 1 -11 2 -15 1 -5 0 -8 3 -8 8 0 4 -11 7 -25 6 -14 -2 -23 1 -19 6 5 8 -9 12 -48 12 -10 0 -15 4 -11 10 4 6 0 8 -10 4 -10 -4 -17 -2 -17 4 0 6 -7 9 -15 6 -8 -4 -17 -2 -21 4 -3 6 -12 8 -19 5 -8 -3 -15 -1 -17 4 -2 6 -15 11 -30 12 -16 1 -28 6 -28 11 0 5 -7 7 -15 3 -8 -3 -15 -1 -15 5 0 6 -7 9 -15 5 -8 -3 -19 2 -24 12 -8 14 -10 14 -11 2 0 -13 -1 -13 -10 0 -5 8 -10 11 -10 6 0 -5 -7 -3 -15 4 -8 6 -19 9 -25 5 -5 -3 -10 -1 -10 5 0 6 -4 8 -10 5 -5 -3 -10 -1 -10 5 0 6 -4 9 -8 6 -5 -3 -21 2 -37 10 -15 8 -30 12 -33 9 -3 -3 1 -5 8 -5 7 0 11 -2 8 -5 -3 -3 -18 1 -33 9 -16 8 -32 13 -37 10 -4 -3 -8 0 -8 6 0 6 -4 8 -10 5 -5 -3 -10 -2 -10 4 0 5 -9 8 -20 6 -11 -2 -20 1 -20 7 0 6 -9 8 -20 5 -11 -3 -18 -1 -14 4 3 5 2 10 -3 10 -48 8 -60 10 -70 11 -7 1 -15 8 -18 17 -5 13 -7 14 -15 1 -8 -12 -10 -12 -10 -1 0 7 -6 11 -15 7 -8 -3 -15 -1 -15 5 0 6 -4 8 -9 4 -5 -3 -12 -1 -16 4 -3 6 -13 7 -22 4 -10 -4 -14 -2 -10 4 4 7 0 10 -10 8 -10 -1 -24 3 -32 9 -12 9 -13 8 -7 -4 4 -8 1 -7 -8 4 -8 10 -22 16 -31 13 -8 -4 -15 -2 -15 4 0 6 -4 7 -10 4 -5 -3 -10 -1 -10 4 0 6 -5 11 -11 11 -5 0 -7 -6 -4 -12 4 -7 1 -6 -7 2 -7 8 -22 17 -33 18 -11 2 -26 9 -34 15 -12 10 -13 9 -6 -3 5 -9 -1 -7 -15 5 -13 11 -20 15 -17 8 5 -8 1 -8 -18 0 -14 7 -25 16 -25 21 0 5 -8 2 -17 -5 -11 -10 -14 -10 -9 -1 5 8 -1 12 -18 12 -14 0 -26 6 -26 13 0 8 -4 7 -10 -3 -8 -12 -10 -12 -10 -1 0 8 -3 11 -7 8 -3 -4 -13 -2 -20 5 -8 7 -22 13 -31 14 -10 1 -29 4 -44 7 -15 2 -38 12 -50 23 -12 10 -18 13 -14 7 4 -7 2 -13 -3 -13 -6 0 -11 5 -11 11 0 5 -4 8 -9 4 -5 -3 -12 -1 -16 5 -4 6 -11 8 -16 5 -5 -4 -9 -1 -9 5 0 6 -4 9 -8 6 -5 -3 -20 1 -35 9 -15 8 -27 10 -27 5 0 -6 -16 -1 -36 10 -19 11 -32 15 -29 9 4 -6 -4 -4 -17 5 -14 9 -28 13 -31 9 -4 -3 -7 -1 -7 5 0 7 -5 12 -11 12 -5 0 -7 -5 -3 -12 4 -7 -6 -2 -23 10 -18 13 -46 22 -68 22 -25 0 -34 4 -29 12 5 8 2 9 -9 5 -10 -3 -17 -2 -17 3 0 5 -7 7 -16 3 -9 -3 -19 -1 -23 6 -4 6 -21 13 -38 14 -17 1 -29 5 -27 8 2 4 -3 10 -12 13 -8 3 -12 2 -9 -4 3 -6 -1 -7 -9 -4 -9 3 -14 10 -11 15 3 4 -4 6 -15 4 -11 -2 -20 0 -20 5 0 5 -7 7 -15 4 -8 -4 -15 -1 -15 5 0 6 -6 8 -14 5 -8 -3 -17 -1 -20 5 -4 6 -14 7 -23 4 -12 -5 -14 -3 -8 7 6 10 4 12 -7 7 -9 -3 -25 1 -37 9 -14 11 -21 11 -21 3 0 -8 -3 -9 -13 0 -8 6 -17 8 -20 4 -4 -3 -7 -1 -7 6 0 7 -4 9 -10 6 -5 -3 -10 -1 -10 5 0 7 -6 10 -14 7 -7 -3 -19 0 -26 6 -10 9 -11 9 -6 -3 6 -12 5 -11 -6 1 -7 9 -21 15 -30 13 -10 -1 -18 2 -18 8 0 6 -7 8 -15 4 -8 -3 -15 -1 -15 4 0 6 -11 10 -25 10 -14 0 -25 4 -25 8 0 7 -16 11 -57 14 -7 1 -13 5 -13 10 0 4 -8 8 -18 8 -10 0 -28 8 -41 17 -14 9 -21 11 -17 5 10 -17 -6 -15 -33 5 -14 9 -21 11 -16 4 4 -8 -4 -6 -19 4 -14 10 -26 14 -26 10 0 -4 -7 -2 -15 5 -8 7 -21 10 -29 7 -8 -3 -20 0 -26 8 -6 7 -20 12 -31 10 -11 -2 -17 0 -14 6 4 5 0 9 -7 10 -7 0 -22 3 -33 6 -11 2 -28 5 -37 6 -9 1 -15 4 -12 8 4 7 -50 22 -78 22 -10 0 -18 4 -18 9 0 5 -4 6 -10 3 -5 -3 -10 -1 -10 6 0 6 -8 9 -20 6 -11 -3 -20 -1 -20 4 0 4 -7 5 -17 2 -12 -5 -14 -3 -8 7 6 10 3 12 -13 8 -12 -4 -22 -2 -22 4 0 5 -4 7 -9 4 -5 -4 -12 0 -14 6 -4 10 -6 10 -6 0 -1 -10 -5 -10 -17 2 -8 9 -20 14 -25 11 -5 -4 -9 -1 -9 5 0 6 -4 9 -8 6 -5 -3 -21 1 -36 9 -18 10 -25 11 -21 2 4 -7 0 -4 -8 6 -10 12 -17 15 -22 7 -5 -8 -11 -7 -22 2 -8 6 -24 14 -36 15 -12 2 -25 9 -29 16 -6 9 -8 8 -8 -3 0 -13 -1 -13 -10 0 -5 8 -22 15 -39 15 -16 0 -34 5 -38 9 -5 5 -2 6 6 1 9 -5 12 -4 8 2 -3 5 -16 9 -29 8 -13 -1 -29 5 -36 14 -11 12 -12 13 -6 1 7 -13 5 -13 -9 -1 -9 7 -17 10 -17 6 0 -4 -7 -2 -15 5 -8 7 -15 9 -15 4 0 -5 -4 -3 -9 5 -10 16 -69 23 -78 8 -4 -6 -1 -7 7 -2 10 6 12 4 7 -8 -4 -10 -1 -17 6 -17 9 0 8 -3 -1 -9 -11 -7 -11 -9 2 -14 9 -4 16 -16 16 -27 0 -14 4 -19 13 -14 9 6 9 4 -1 -8 -11 -14 -10 -18 5 -27 10 -6 14 -11 8 -11 -5 0 -5 -4 2 -8 6 -4 13 -16 15 -27 1 -11 9 -26 16 -33 7 -8 10 -18 7 -23 -4 -5 -1 -9 4 -9 6 0 10 -3 9 -7 -1 -5 3 -18 10 -29 6 -12 8 -24 5 -28 -3 -3 -1 -6 6 -6 7 0 9 -4 6 -10 -3 -5 -1 -10 4 -10 6 0 11 -9 11 -19 0 -11 5 -23 10 -26 5 -3 10 -15 10 -26 0 -10 5 -19 10 -19 6 0 10 -9 10 -20 0 -11 5 -20 10 -20 6 0 10 -7 10 -15 0 -8 5 -15 10 -15 6 0 10 -5 10 -11 0 -5 -6 -7 -12 -3 -7 4 -2 -5 12 -21 14 -16 18 -24 10 -20 -11 6 -10 3 3 -12 9 -11 14 -23 10 -26 -3 -4 -1 -7 6 -7 7 0 9 -4 6 -10 -3 -5 -1 -10 5 -10 6 0 8 -4 5 -10 -3 -5 -1 -10 5 -10 6 0 8 -4 5 -10 -3 -5 -1 -10 5 -10 6 0 9 -4 5 -9 -3 -5 -1 -12 5 -16 6 -4 8 -11 5 -16 -4 -5 1 -12 10 -15 13 -6 14 -8 3 -15 -10 -7 -10 -9 0 -9 6 0 12 -9 12 -20 0 -11 4 -20 8 -20 5 0 9 -7 10 -15 1 -8 3 -22 4 -30 1 -8 5 -15 10 -15 5 0 6 -4 3 -10 -3 -5 0 -10 7 -10 9 0 9 -3 -2 -10 -11 -7 -11 -10 -2 -10 7 0 10 -4 7 -10 -3 -5 -1 -10 4 -10 6 0 11 -13 11 -30 0 -17 5 -30 13 -30 9 0 8 -3 -2 -9 -8 -5 -9 -10 -3 -12 6 -2 12 -15 14 -29 2 -14 7 -31 11 -37 5 -7 4 -13 -2 -13 -6 0 -6 -11 -1 -30 6 -21 5 -30 -3 -30 -7 0 -6 -4 3 -10 8 -5 10 -10 4 -10 -14 0 -13 -32 1 -42 6 -5 5 -8 -3 -8 -7 0 -10 -4 -7 -10 3 -5 1 -10 -5 -10 -6 0 -9 -4 -5 -9 4 -8 -20 -22 -45 -26 -3 0 -14 -5 -25 -11 -11 -6 -30 -9 -42 -8 -13 0 -23 -3 -23 -8 0 -5 -4 -7 -9 -3 -5 3 -12 2 -15 -3 -2 -4 -23 -7 -45 -6 -23 0 -41 -4 -41 -9 0 -5 -7 -4 -15 3 -11 9 -15 9 -15 1 0 -7 -4 -10 -8 -7 -4 2 -14 1 -21 -4 -8 -4 -27 -4 -43 0 -19 6 -26 5 -22 -2 5 -7 -2 -9 -20 -4 -14 3 -26 2 -26 -3 0 -6 -12 -6 -30 -1 -16 5 -30 5 -30 1 0 -4 -17 -8 -37 -9 -21 -2 -39 -5 -42 -7 -2 -3 -10 0 -18 6 -10 9 -13 8 -13 -2 0 -11 -2 -11 -10 1 -9 13 -10 13 -10 0 0 -13 -1 -13 -10 0 -7 11 -10 11 -10 2 0 -7 -4 -10 -10 -7 -5 3 -10 0 -10 -7 0 -8 -3 -9 -8 -3 -8 12 -32 13 -49 2 -8 -5 -13 -3 -13 4 0 8 -4 8 -15 -1 -11 -9 -15 -9 -15 -1 0 8 -5 9 -19 1 -14 -7 -21 -6 -24 3 -4 9 -6 9 -6 -1 -1 -7 -5 -10 -11 -7 -5 3 -10 2 -10 -3 0 -6 -8 -9 -17 -7 -61 12 -87 14 -74 6 10 -7 7 -9 -12 -8 -14 1 -23 5 -20 10 2 4 -1 7 -6 7 -6 0 -11 -4 -11 -9 0 -4 -11 -6 -25 -3 -14 2 -32 -1 -40 -8 -8 -7 -15 -8 -15 -3 0 5 -9 9 -20 9 -11 0 -20 -3 -20 -6 0 -3 -9 -6 -20 -6 -11 0 -20 4 -20 8 0 5 -9 4 -20 -2 -14 -8 -20 -8 -20 0 0 7 -6 8 -19 0 -14 -7 -21 -6 -24 3 -3 9 -7 9 -20 -2 -10 -7 -17 -9 -17 -3 0 10 -17 11 -35 1 -5 -3 -27 -5 -47 -5 -21 1 -38 -2 -38 -6 0 -4 -6 -5 -12 -3 -21 8 -168 11 -168 3 0 -4 -13 -3 -30 2 -16 5 -30 6 -30 2 0 -4 -26 -6 -57 -5 -32 1 -64 -3 -71 -9 -8 -7 -12 -7 -12 3 0 10 -3 10 -12 1 -8 -8 -15 -9 -25 -1 -10 9 -13 8 -13 -2 0 -10 -3 -10 -12 -1 -8 8 -17 8 -31 1 -14 -8 -18 -8 -13 0 4 6 2 11 -3 11 -6 0 -11 -5 -11 -11 0 -8 -5 -8 -15 1 -12 10 -15 10 -15 0 0 -10 -3 -10 -15 0 -10 9 -15 9 -15 1 0 -6 -5 -11 -11 -11 -5 0 -8 4 -5 9 6 9 -37 7 -53 -3 -5 -4 -13 -2 -16 4 -5 8 -11 7 -21 -1 -11 -9 -14 -9 -14 1 0 10 -3 10 -15 0 -11 -9 -15 -9 -15 -1 0 9 -5 9 -20 1 -15 -8 -20 -8 -20 1 0 8 -4 9 -13 0 -10 -8 -17 -7 -25 1 -9 9 -12 9 -12 0 0 -9 -5 -10 -18 -3 -13 7 -23 6 -30 -1 -9 -9 -12 -9 -12 1 0 11 -3 11 -15 1 -12 -10 -15 -10 -15 0 0 10 -3 10 -15 0 -12 -10 -15 -10 -15 0 0 10 -3 10 -15 0 -11 -9 -15 -9 -15 -1 0 9 -5 9 -20 1 -15 -8 -20 -8 -20 1 0 9 -3 9 -14 0 -11 -9 -16 -9 -21 0 -6 8 -10 7 -17 -2 -8 -11 -11 -11 -15 -1 -4 10 -8 10 -21 0 -13 -11 -14 -11 -8 0 7 11 4 12 -13 3 -12 -7 -26 -9 -31 -6 -6 3 -10 2 -10 -4 0 -7 -9 -7 -22 -2 -13 4 -55 5 -95 2 -39 -3 -69 -3 -66 1 2 5 -1 8 -6 8 -6 0 -11 -4 -11 -9 0 -5 -15 -6 -32 -2 -18 4 -65 5 -105 2 -39 -4 -69 -3 -66 1 2 5 -1 8 -6 8 -6 0 -11 -3 -11 -7 0 -5 -11 -8 -24 -8 -13 0 -22 3 -19 8 2 4 -1 7 -6 7 -6 0 -11 -4 -11 -10 0 -5 -9 -6 -22 -2 -13 4 -69 5 -125 2 -55 -3 -99 -2 -96 3 2 4 -1 7 -6 7 -6 0 -11 -3 -11 -7 0 -5 -11 -8 -24 -8 -13 0 -22 3 -19 8 2 4 -1 7 -6 7 -6 0 -11 -4 -11 -10 0 -6 -9 -6 -22 -1 -13 4 -55 5 -95 2 -39 -3 -69 -3 -66 1 2 5 -1 8 -6 8 -6 0 -11 -4 -11 -9 0 -5 -15 -6 -32 -2 -18 4 -65 5 -105 2 -39 -4 -69 -3 -66 1 2 5 -1 8 -6 8 -6 0 -11 -3 -11 -7 0 -5 -11 -8 -24 -8 -13 0 -22 3 -19 8 2 4 -1 7 -6 7 -6 0 -11 -3 -11 -7 0 -5 -11 -8 -24 -8 -13 0 -22 3 -19 8 2 4 -1 7 -6 7 -6 0 -11 -4 -11 -9 0 -10 -50 -2 -67 12 -9 6 -13 6 -13 -2 0 -8 -5 -9 -18 -2 -13 7 -23 6 -30 -1 -9 -9 -12 -9 -12 1 0 10 -3 11 -13 2 -10 -8 -17 -7 -25 1 -9 9 -12 9 -12 -2 0 -11 -3 -11 -12 -2 -8 8 -17 8 -31 1 -14 -8 -18 -8 -13 0 4 6 2 11 -3 11 -6 0 -11 -5 -11 -11 0 -8 -5 -8 -15 1 -12 10 -15 10 -15 0 0 -10 -3 -10 -15 0 -10 9 -15 9 -15 1 0 -6 -5 -11 -11 -11 -5 0 -8 4 -5 9 6 9 -37 7 -53 -3 -5 -4 -13 -2 -16 4 -5 8 -11 7 -21 -1 -11 -9 -14 -9 -14 1 0 10 -3 10 -15 0 -11 -9 -15 -9 -15 -1 0 9 -5 9 -20 1 -15 -8 -20 -8 -20 1 0 8 -4 9 -13 0 -10 -8 -17 -7 -25 1 -9 9 -12 9 -12 0 0 -9 -6 -10 -17 -4 -20 9 -55 8 -72 -2 -6 -4 -11 -2 -11 5 0 8 -4 8 -15 -1 -12 -10 -15 -10 -15 0 0 10 -3 10 -15 0 -12 -10 -15 -10 -15 0 0 9 -3 10 -13 1 -10 -8 -17 -7 -25 1 -7 7 -72 11 -194 10 -111 0 -188 4 -195 10 -7 6 -13 6 -13 1 0 -5 -9 -9 -20 -9 -11 0 -20 4 -20 8 0 5 -9 4 -20 -2 -14 -8 -20 -8 -20 0 0 7 -6 8 -19 0 -14 -7 -21 -6 -24 3 -3 9 -7 9 -20 -2 -10 -7 -17 -9 -17 -3 0 11 -25 10 -36 -1 -4 -4 -14 -1 -22 6 -13 10 -14 9 -7 -2 6 -11 5 -12 -6 -5 -27 17 -99 23 -166 14 -29 -3 -50 -3 -47 1 7 11 -21 18 -37 9 -8 -5 -19 -4 -26 2 -8 6 -13 6 -13 1 0 -5 -7 -10 -15 -10 -8 0 -15 5 -15 10 0 5 -7 4 -15 -3 -10 -8 -15 -9 -15 -2 0 7 -8 8 -22 3 -14 -5 -31 -3 -47 5 -18 9 -27 10 -32 3 -4 -8 -8 -7 -12 2 -4 11 -6 11 -6 1 -1 -7 -5 -11 -9 -8 -5 3 -27 6 -50 7 -23 2 -42 6 -42 9 0 3 -9 6 -20 6 -11 0 -20 -3 -20 -6 0 -3 -9 -6 -20 -6 -11 0 -20 3 -20 7 0 4 -7 10 -16 13 -8 3 -12 2 -9 -4 9 -14 -9 -12 -23 2 -7 7 -12 8 -12 3 0 -15 -63 -12 -68 3 -3 10 -7 10 -18 1 -11 -9 -14 -9 -14 0 0 8 -5 9 -19 1 -11 -6 -22 -6 -25 -1 -8 13 -56 20 -56 8 0 -6 -9 -2 -20 8 -11 10 -20 13 -20 8 0 -12 -32 -12 -40 -1 -3 4 -27 9 -53 10 -27 2 -49 9 -52 16 -4 10 -9 10 -26 1 -17 -9 -20 -8 -14 2 6 9 3 11 -9 6 -10 -4 -19 -1 -23 8 -4 13 -8 13 -21 3 -12 -10 -14 -10 -8 0 7 11 -5 17 -27 13 -4 -1 -10 6 -13 14 -3 8 -10 13 -14 10 -5 -3 -11 -1 -15 5 -3 5 -1 10 6 10 10 0 10 3 1 12 -8 8 -8 17 -1 30 5 10 7 23 4 28 -3 6 0 10 7 10 10 0 9 3 -2 10 -12 8 -12 10 3 15 13 6 14 11 6 26 -8 15 -6 21 6 26 13 5 14 7 3 14 -9 6 -10 9 -1 9 7 0 10 7 7 15 -4 8 -1 15 6 15 7 0 10 7 6 16 -4 10 -2 13 6 8 8 -5 9 -2 5 9 -3 9 -2 19 4 23 6 3 8 11 6 17 -2 7 0 21 6 32 6 11 12 31 13 44 2 13 7 27 11 30 5 3 10 17 10 29 1 13 10 31 20 39 10 8 12 12 6 8 -7 -3 -13 -1 -13 4 0 6 4 11 9 11 5 0 12 15 15 34 4 19 12 37 19 39 9 4 9 6 0 6 -9 1 -7 11 7 33 10 17 17 35 14 40 -3 4 0 8 6 8 6 0 8 5 5 10 -4 6 -1 17 5 25 7 8 9 15 5 15 -4 0 0 11 9 25 9 14 13 25 10 25 -4 0 1 10 12 22 10 12 14 18 7 15 -6 -4 -2 12 9 35 11 23 21 47 22 54 1 7 8 20 16 30 9 11 10 15 3 10 -7 -4 -13 -3 -13 3 0 5 5 11 10 13 6 2 12 14 15 27 2 14 8 27 12 30 5 3 10 15 11 26 2 11 7 22 11 25 4 3 8 16 8 29 1 13 8 28 15 32 7 4 9 11 5 15 -4 4 1 13 11 21 9 8 12 12 5 9 -14 -7 13 50 28 60 6 4 6 11 -1 19 -8 10 -7 16 6 23 11 6 15 16 11 26 -4 10 -1 19 8 22 8 4 13 10 10 14 -3 5 -1 11 5 15 6 4 8 11 5 16 -4 5 -1 9 6 9 7 0 9 3 6 6 -3 4 -1 16 5 28 7 11 11 24 10 29 -1 4 2 7 8 7 5 0 7 7 4 15 -4 8 -2 15 3 15 5 0 15 21 23 48 7 26 21 53 29 60 9 8 10 11 4 7 -9 -4 -11 -1 -7 9 3 9 11 13 17 9 5 -3 7 -1 3 5 -3 6 -1 23 6 39 6 15 11 31 10 36 -1 4 3 7 9 7 5 0 8 4 4 9 -3 5 -1 12 5 16 6 4 8 11 5 16 -4 5 -1 9 5 9 6 0 9 4 5 9 -3 5 -1 12 5 16 6 4 8 11 5 16 -4 5 -2 9 3 9 6 0 13 7 16 16 3 9 2 12 -5 8 -6 -3 1 13 16 36 15 23 22 39 16 36 -7 -4 -8 -1 -5 8 3 9 11 13 17 9 6 -4 8 2 5 15 -4 12 -2 22 3 22 5 0 9 3 8 8 -2 15 14 52 23 52 5 0 6 10 3 21 -5 15 -4 19 5 14 7 -4 11 -1 10 6 -3 22 11 59 20 54 5 -3 6 5 2 17 -4 16 -2 19 8 13 10 -6 12 -4 8 7 -4 8 4 34 17 57 14 23 19 39 12 35 -7 -4 -3 3 8 16 13 15 15 21 5 16 -12 -6 -12 -5 1 6 9 7 14 19 12 26 -3 6 0 12 7 12 6 0 8 5 5 10 -3 6 -1 10 5 10 6 0 9 4 5 9 -3 5 -1 12 5 16 6 4 8 11 5 16 -4 5 -1 9 5 9 6 0 9 4 6 9 -3 5 0 11 8 14 9 4 12 14 9 26 -3 13 -1 21 6 21 7 0 9 5 6 10 -3 6 -1 10 5 10 6 0 9 4 5 9 -3 5 -1 12 5 16 6 4 8 11 5 16 -4 5 1 12 9 15 9 3 16 10 16 16 0 5 -5 6 -11 3 -12 -8 11 37 25 46 5 4 5 12 2 18 -4 6 -2 11 4 11 6 0 9 4 6 9 -3 5 1 12 10 15 8 3 13 10 10 15 -8 12 19 73 28 64 4 -4 4 1 0 11 -5 13 -4 17 4 12 8 -5 10 -2 6 8 -3 9 -1 16 5 16 6 0 8 7 5 15 -4 8 -1 15 6 15 6 0 9 4 5 9 -3 5 -1 12 5 16 5 3 10 12 10 18 0 7 -4 6 -10 -3 -8 -13 -10 -12 -10 4 0 12 -5 16 -15 12 -8 -3 -15 -1 -15 4 0 6 -5 10 -11 10 -5 0 -7 -6 -4 -12 4 -7 0 -5 -8 5 -9 10 -17 17 -19 16 -1 -2 -26 5 -55 14 -29 10 -56 17 -60 16 -20 -3 -34 2 -28 11 4 6 -1 7 -11 3 -11 -4 -15 -3 -11 4 5 7 0 9 -13 6 -12 -3 -20 0 -20 6 0 7 -5 9 -11 6 -5 -4 -20 1 -31 12 -12 10 -18 12 -14 6 4 -7 3 -13 -3 -13 -5 0 -11 4 -13 10 -1 5 -18 11 -36 13 -17 2 -35 7 -40 12 -4 5 0 5 8 0 8 -5 12 -4 7 0 -7 8 -20 11 -64 17 -7 1 -13 6 -13 12 0 6 -4 4 -10 -4 -8 -12 -10 -12 -16 3 -5 15 -9 15 -22 5 -13 -11 -14 -11 -7 1 6 11 4 13 -8 8 -10 -4 -17 -2 -17 4 0 6 -7 9 -15 5 -8 -3 -15 -1 -15 5 0 6 -7 9 -15 5 -8 -3 -15 -1 -15 5 0 6 -4 8 -9 4 -5 -3 -13 0 -16 6 -4 5 -13 8 -21 5 -8 -3 -14 -1 -14 5 0 6 -4 7 -10 4 -5 -3 -10 0 -10 7 0 9 -3 9 -10 -2 -7 -12 -10 -12 -10 -1 0 8 -6 11 -15 7 -9 -3 -18 1 -21 8 -3 8 -13 15 -22 15 -38 1 -52 5 -52 13 0 4 -11 8 -25 8 -14 0 -25 3 -25 8 0 4 -14 8 -31 8 -17 1 -35 8 -40 15 -5 8 -9 10 -9 4 0 -5 -5 -4 -12 3 -14 14 -32 16 -23 2 3 -5 0 -7 -9 -4 -8 3 -17 11 -19 18 -3 7 -19 12 -36 11 -16 -1 -28 2 -26 6 3 4 -2 10 -11 13 -10 4 -13 2 -8 -7 6 -9 4 -8 -8 1 -9 7 -29 15 -45 18 -15 3 -29 9 -31 14 -2 5 -10 6 -19 3 -10 -4 -14 -2 -10 4 4 6 -3 9 -18 7 -14 -1 -25 2 -25 8 0 6 -6 8 -14 5 -7 -3 -23 1 -35 9 -12 8 -25 13 -30 9 -5 -3 -12 -1 -16 5 -4 6 -11 8 -16 5 -5 -4 -9 -1 -9 6 0 7 -10 9 -26 6 -15 -3 -28 0 -30 8 -3 7 -17 12 -31 10 -13 -1 -27 3 -30 10 -2 7 -15 12 -28 10 -15 -1 -22 2 -18 8 4 6 0 8 -10 4 -10 -4 -17 -2 -17 4 0 6 -7 9 -15 5 -8 -3 -15 -1 -15 4 0 6 -3 9 -7 8 -9 -1 -40 9 -65 23 -25 13 -40 11 -33 -3 4 -7 1 -6 -7 3 -7 9 -19 14 -25 12 -7 -3 -13 0 -13 7 0 6 -5 8 -11 5 -5 -4 -20 1 -31 12 -12 10 -18 12 -14 6 4 -7 2 -13 -3 -13 -6 0 -11 5 -11 11 0 5 -4 8 -9 4 -5 -3 -13 0 -16 6 -4 5 -13 8 -21 5 -8 -3 -14 -1 -14 5 0 6 -4 7 -10 4 -5 -3 -10 -1 -10 4 0 6 -5 11 -11 11 -5 0 -7 -4 -4 -10 11 -18 -4 -11 -26 13 -12 12 -18 15 -14 7 8 -13 7 -13 -10 0 -10 8 -20 14 -22 13 -1 -2 -4 -3 -5 -2 -20 6 -47 10 -61 10 -10 0 -15 5 -11 11 5 7 0 9 -14 6 -12 -4 -22 -2 -22 3 0 5 -3 8 -7 8 -5 -1 -11 0 -15 1 -5 1 -12 4 -18 5 -5 1 -11 3 -12 5 -2 1 -12 3 -23 5 -11 2 -21 8 -23 14 -2 5 -10 7 -17 5 -8 -3 -20 -2 -27 2 -7 5 -19 9 -27 11 -8 1 -18 8 -22 15 -7 10 -9 10 -9 -2 0 -13 -1 -13 -10 0 -5 8 -10 11 -10 6 0 -6 -5 -5 -12 2 -16 16 -31 15 -22 0 5 -8 1 -7 -10 2 -10 8 -27 16 -39 17 -12 2 -24 7 -27 12 -3 4 -15 7 -27 6 -12 -1 -20 2 -17 7 3 4 -2 8 -10 8 -28 0 -31 1 -55 17 -17 11 -21 11 -16 2 5 -8 -1 -6 -12 4 -11 9 -23 14 -26 11 -4 -4 -14 -1 -23 7 -10 8 -19 13 -21 12 -1 -2 -10 -3 -19 -3 -9 0 -12 5 -8 13 5 8 2 8 -9 -2 -13 -10 -17 -10 -17 -1 0 7 -7 10 -15 6 -8 -3 -15 -1 -15 4 0 5 -7 6 -17 3 -12 -5 -14 -3 -8 7 6 10 3 12 -13 8 -12 -4 -22 -2 -22 4 0 5 -4 6 -10 3 -5 -3 -10 -1 -10 5 0 7 -7 10 -15 7 -8 -4 -17 -2 -21 4 -3 6 -12 8 -19 5 -8 -3 -15 0 -17 5 -2 6 -18 11 -35 11 -18 1 -30 5 -27 10 3 4 3 8 0 8 -3 0 -9 -8 -14 -17z" transform="translate(0.000000,2000.000000) scale(0.100000,-0.100000)"/></g></svg>