<?xml version="1.0" standalone="no"?>
<!DOCTYPE svg PUBLIC "-//W3C//DTD SVG 20010904//EN"
 "http://www.w3.org/TR/2001/REC-SVG-20010904/DTD/svg10.dtd">
<svg version="1.0" xmlns="http://www.w3.org/2000/svg"
 width="6000.000000pt" height="6000.000000pt" viewBox="0 0 6000.000000 6000.000000"
 preserveAspectRatio="xMidYMid meet">
<metadata>
Created by potrace 1.11, written by Peter Selinger 2001-2013
</metadata>
<g transform="translate(0.000000,6000.000000) scale(0.100000,-0.100000)"
fill="#000000" stroke="none">
<path d="M29185 59794 c-44 -2 -210 -8 -370 -14 -2902 -108 -5860 -665 -8605
-1622 -3822 -1332 -7321 -3420 -10315 -6157 -704 -644 -1499 -1448 -2136
-2162 -2339 -2621 -4197 -5630 -5484 -8884 -1098 -2774 -1776 -5735 -1995
-8705 -63 -860 -75 -1220 -75 -2250 0 -1007 12 -1376 70 -2185 217 -3007 893
-5971 2000 -8770 1283 -3246 3138 -6252 5475 -8874 635 -713 1438 -1525 2145
-2172 2683 -2452 5785 -4393 9150 -5724 2774 -1098 5735 -1776 8705 -1995 860
-63 1220 -75 2250 -75 904 0 1107 5 1720 40 4443 258 8695 1474 12575 3597
2083 1140 4047 2546 5810 4157 704 644 1499 1448 2136 2162 2339 2621 4199
5634 5484 8884 1107 2799 1783 5763 2000 8770 58 809 70 1178 70 2185 0 1030
-12 1390 -75 2250 -417 5664 -2471 11117 -5903 15668 -836 1109 -1662 2062
-2652 3060 -1440 1453 -2925 2679 -4610 3807 -3590 2402 -7635 3987 -11885
4654 -1141 180 -2140 279 -3450 342 -200 10 -1856 20 -2035 13z m8475 -6968
c19 -2 82 -7 140 -11 58 -3 121 -8 140 -10 19 -2 64 -7 100 -10 83 -7 158 -15
190 -20 14 -2 50 -7 80 -10 30 -3 66 -8 80 -10 14 -2 50 -6 80 -10 96 -11 611
-100 670 -115 19 -5 51 -12 70 -15 27 -5 508 -125 555 -139 6 -1 30 -8 55 -15
118 -33 553 -176 660 -217 259 -100 357 -141 570 -237 204 -92 611 -294 680
-339 30 -19 95 -56 144 -83 48 -26 110 -62 136 -79 26 -17 74 -47 106 -66 62
-38 260 -166 309 -200 191 -134 270 -191 341 -245 29 -22 64 -49 79 -59 14
-11 35 -27 45 -35 10 -9 30 -25 45 -35 26 -19 56 -43 85 -68 8 -7 37 -31 65
-53 27 -21 61 -49 75 -61 32 -29 64 -56 120 -104 151 -129 258 -229 480 -450
225 -225 315 -319 415 -435 33 -39 62 -72 65 -75 5 -4 189 -223 249 -295 9
-11 54 -69 101 -130 46 -60 88 -114 93 -120 12 -14 169 -228 187 -255 8 -12
33 -47 56 -78 131 -182 594 -921 594 -949 0 -3 15 -31 34 -62 83 -139 446
-860 446 -886 0 -1 18 -42 40 -89 22 -47 40 -88 40 -90 0 -3 13 -33 29 -68 17
-35 42 -92 56 -128 15 -36 33 -78 40 -95 7 -16 39 -95 70 -175 31 -80 60 -154
65 -165 14 -33 88 -238 150 -415 354 -1007 645 -2258 800 -3445 42 -324 43
-334 65 -550 9 -82 18 -172 21 -200 8 -81 12 -125 19 -215 4 -47 8 -96 10
-110 2 -14 7 -74 10 -135 4 -60 9 -117 10 -126 2 -8 6 -85 10 -170 7 -146 11
-189 17 -194 2 -1 75 -46 163 -100 1173 -720 2255 -1539 3162 -2393 196 -186
620 -613 786 -792 1483 -1609 2457 -3378 2862 -5199 208 -937 269 -1908 179
-2851 -130 -1366 -568 -2704 -1309 -3995 -452 -789 -1050 -1594 -1732 -2335
-176 -190 -647 -663 -843 -845 -1745 -1621 -3922 -2985 -6545 -4102 -1692
-720 -3618 -1331 -5570 -1768 -202 -45 -243 -58 -258 -77 -10 -13 -28 -34 -40
-48 -12 -14 -78 -90 -147 -170 -68 -80 -129 -150 -135 -156 -5 -6 -35 -40 -65
-75 -30 -35 -66 -74 -79 -89 -12 -14 -51 -56 -85 -94 -33 -38 -72 -81 -85 -95
-12 -14 -49 -55 -81 -91 -32 -36 -73 -81 -91 -101 -19 -20 -73 -79 -120 -130
-574 -623 -1270 -1323 -1835 -1845 -59 -55 -217 -199 -234 -214 -9 -8 -59 -53
-110 -100 -51 -47 -98 -89 -104 -95 -6 -5 -47 -41 -91 -80 -44 -38 -82 -72
-85 -75 -3 -3 -36 -32 -75 -65 -38 -33 -72 -62 -75 -65 -3 -3 -36 -32 -75 -65
-38 -33 -75 -65 -81 -71 -14 -13 -63 -54 -274 -230 -91 -76 -170 -143 -177
-149 -6 -5 -24 -20 -40 -32 -15 -12 -39 -31 -53 -43 -14 -12 -38 -31 -53 -43
-15 -12 -37 -29 -48 -39 -20 -16 -43 -35 -149 -120 -30 -24 -95 -75 -145 -113
-49 -39 -99 -78 -110 -87 -11 -9 -112 -86 -225 -172 -113 -85 -209 -159 -215
-163 -19 -15 -270 -199 -333 -243 -35 -25 -87 -63 -117 -85 -30 -22 -100 -71
-155 -110 -56 -38 -136 -95 -180 -125 -231 -163 -697 -468 -950 -624 -63 -38
-117 -73 -120 -76 -3 -3 -14 -10 -25 -17 -11 -6 -96 -58 -190 -114 -93 -57
-183 -110 -200 -118 -16 -8 -32 -17 -35 -20 -3 -3 -21 -14 -40 -25 -19 -10
-109 -61 -200 -113 -91 -52 -199 -113 -240 -135 -41 -23 -88 -48 -105 -58
-244 -136 -756 -397 -1075 -548 -131 -62 -350 -162 -412 -188 -34 -14 -90 -39
-123 -54 -33 -16 -89 -40 -125 -55 -36 -15 -83 -35 -105 -45 -22 -9 -143 -59
-270 -109 -126 -51 -239 -96 -250 -101 -31 -13 -229 -85 -475 -172 -687 -243
-1384 -435 -2100 -578 -222 -44 -194 -39 -445 -79 -258 -41 -312 -49 -370 -57
-27 -3 -61 -8 -75 -10 -14 -2 -50 -6 -80 -9 -30 -4 -89 -10 -130 -15 -65 -8
-124 -14 -245 -25 -16 -2 -73 -6 -125 -10 -52 -4 -106 -8 -120 -11 -14 -2 -99
-6 -190 -9 -91 -4 -178 -8 -195 -10 -33 -5 -755 -5 -850 0 -159 8 -296 16
-350 20 -166 13 -202 16 -225 20 -14 2 -61 6 -105 10 -44 3 -91 8 -105 10 -14
2 -63 9 -110 15 -176 23 -209 28 -264 36 -21 3 -48 8 -60 10 -11 2 -61 11
-111 20 -119 20 -290 52 -340 64 -22 5 -56 12 -75 15 -19 3 -69 15 -110 25
-41 10 -86 21 -100 24 -29 6 -83 19 -127 31 -153 40 -224 60 -288 79 -27 8
-79 24 -115 34 -100 30 -394 129 -500 168 -145 54 -158 59 -265 104 -55 22
-120 49 -145 59 -211 86 -720 335 -877 429 -56 34 -124 73 -150 87 -26 14 -91
52 -143 85 -52 32 -120 74 -150 92 -30 17 -59 36 -65 41 -5 4 -45 32 -89 60
-113 75 -148 98 -192 129 -22 15 -50 36 -64 45 -14 10 -30 22 -37 28 -6 5 -28
21 -48 35 -44 31 -418 320 -425 329 -3 4 -27 25 -55 46 -27 22 -57 47 -65 55
-15 14 -112 98 -164 143 -169 145 -610 587 -756 757 -12 14 -36 41 -53 60 -63
68 -294 346 -362 435 -85 109 -87 113 -101 128 -6 7 -68 91 -137 187 -70 96
-130 180 -134 185 -12 14 -233 349 -278 420 -288 454 -618 1073 -825 1545 -23
52 -50 113 -60 135 -10 22 -32 74 -50 115 -17 41 -35 84 -40 95 -53 116 -324
838 -358 955 -6 19 -40 127 -76 240 -96 296 -181 594 -287 1009 -58 227 -187
824 -224 1036 -9 50 -27 153 -41 230 -28 161 -99 623 -109 705 -3 30 -8 66
-10 80 -7 38 -33 242 -45 360 -6 58 -13 116 -15 130 -11 73 -46 461 -60 655
-3 44 -8 98 -10 120 -2 22 -9 128 -15 235 -10 181 -13 196 -33 213 -12 11
-134 89 -272 174 -1095 680 -2083 1430 -2975 2258 -196 182 -667 654 -843 845
-1794 1948 -2829 4102 -3041 6330 -40 419 -51 999 -27 1385 85 1329 423 2553
1046 3790 507 1004 1180 1961 2022 2875 166 179 590 606 786 792 2561 2413
6263 4346 10587 5529 553 151 1731 439 1796 439 17 0 64 46 129 124 22 26 49
58 60 71 11 12 45 51 75 85 30 35 60 68 65 74 12 13 130 149 165 190 14 16 36
41 50 56 14 14 54 60 90 101 36 40 76 86 90 100 14 14 53 57 86 95 34 38 77
85 95 105 19 20 73 79 120 130 96 104 103 111 298 319 265 282 1229 1238 1380
1369 13 11 58 53 100 93 74 71 234 218 277 255 12 10 63 56 114 103 51 47 98
90 104 95 6 6 43 37 81 70 38 33 79 69 91 80 12 11 34 31 50 44 47 40 159 136
164 141 4 5 146 125 285 242 11 9 30 26 43 36 13 11 42 35 64 54 23 18 69 56
102 84 67 55 189 154 281 228 33 27 69 56 80 65 11 9 40 32 65 51 25 19 50 39
57 45 19 17 583 447 623 475 16 12 123 90 255 187 6 5 33 24 60 43 28 19 55
39 62 45 6 5 57 42 112 80 56 39 138 96 184 128 45 31 89 62 97 67 8 6 44 30
80 55 36 25 72 50 80 55 29 20 541 356 613 401 170 109 858 522 967 581 39 22
123 68 280 156 115 64 542 288 725 380 948 477 2152 952 3010 1188 50 14 109
32 133 40 47 16 630 163 727 184 33 7 74 16 90 20 17 5 48 12 70 16 22 4 45 8
50 10 67 16 472 90 620 114 66 10 134 21 150 24 107 17 471 64 640 81 123 12
433 35 570 41 83 4 152 8 154 10 6 6 1009 -4 1051 -10z"/>
<path d="M36838 49445 c-2 -1 -88 -5 -193 -9 -167 -5 -416 -24 -570 -42 -276
-32 -514 -66 -630 -89 -38 -8 -86 -17 -105 -20 -433 -70 -1145 -264 -1725
-470 -88 -32 -182 -65 -210 -75 -162 -57 -693 -277 -878 -364 -55 -25 -100
-46 -102 -46 -13 0 -651 -315 -780 -385 -27 -15 -97 -52 -155 -83 -58 -30
-122 -66 -142 -79 -21 -13 -40 -23 -43 -23 -4 0 -56 -29 -116 -65 -61 -36
-113 -65 -115 -65 -7 0 -535 -318 -616 -371 -37 -24 -107 -69 -155 -99 -93
-58 -569 -375 -639 -425 -23 -17 -52 -37 -64 -45 -36 -24 -329 -233 -405 -290
-113 -83 -640 -483 -645 -489 -3 -4 -25 -22 -50 -41 -25 -19 -47 -37 -50 -40
-3 -3 -25 -21 -50 -40 -25 -19 -54 -43 -65 -52 -38 -32 -64 -53 -92 -75 -15
-12 -38 -30 -51 -41 -13 -11 -42 -35 -64 -54 -52 -41 -393 -327 -422 -353 -6
-6 -42 -37 -81 -70 -38 -33 -77 -67 -85 -75 -8 -9 -46 -42 -85 -75 -38 -33
-75 -64 -81 -70 -151 -138 -194 -178 -191 -181 2 -2 104 3 228 11 1425 92
3079 105 4539 35 4463 -214 8674 -1135 12324 -2695 l38 -16 -6 48 c-7 59 -28
175 -62 343 -15 69 -28 137 -30 152 -3 14 -25 115 -50 225 -25 109 -47 208
-49 219 -10 45 -97 381 -111 429 -9 28 -33 111 -54 185 -67 233 -237 736 -299
885 -5 11 -30 74 -56 140 -51 128 -127 306 -174 408 -16 34 -39 85 -51 112
-96 214 -305 607 -440 825 -5 8 -35 58 -66 110 -112 186 -286 437 -467 673
-45 58 -164 205 -207 256 -25 29 -53 63 -63 75 -147 173 -465 491 -656 656
-35 30 -69 60 -75 65 -6 6 -33 28 -61 50 -27 22 -54 45 -60 51 -11 12 -175
139 -215 167 -14 9 -50 35 -80 57 -67 49 -265 182 -344 230 -31 19 -78 49
-104 66 -65 43 -556 304 -571 304 -7 0 -38 13 -69 30 -31 16 -91 44 -132 61
-41 16 -84 34 -95 39 -36 16 -100 42 -125 50 -14 5 -63 23 -110 40 -153 56
-365 125 -500 161 -25 7 -49 14 -55 15 -43 13 -165 44 -187 48 -16 4 -40 8
-55 11 -16 3 -44 10 -63 15 -51 14 -237 50 -332 65 -18 3 -44 7 -58 10 -14 2
-45 7 -70 10 -25 3 -56 8 -70 10 -41 7 -91 13 -155 20 -33 3 -78 8 -100 10
-105 12 -272 25 -385 30 -131 7 -557 14 -562 10z"/>
<path d="M29060 41844 c-867 -29 -1144 -42 -1710 -79 -846 -57 -1637 -137
-2490 -251 -307 -41 -755 -106 -823 -120 -20 -4 -49 -32 -105 -102 -42 -54
-79 -99 -82 -102 -7 -5 -542 -690 -575 -736 -11 -15 -54 -72 -95 -126 -41 -53
-93 -122 -115 -153 -22 -30 -58 -79 -80 -108 -22 -30 -49 -66 -60 -81 -11 -16
-31 -43 -45 -61 -14 -18 -32 -43 -40 -55 -8 -12 -26 -37 -40 -56 -14 -18 -36
-49 -50 -69 -14 -20 -30 -42 -35 -48 -6 -7 -19 -25 -30 -41 -11 -16 -29 -41
-40 -57 -11 -15 -40 -56 -64 -91 -72 -102 -105 -148 -129 -182 -12 -17 -33
-47 -46 -66 -14 -19 -45 -64 -70 -100 -93 -131 -214 -309 -273 -401 -12 -19
-26 -38 -30 -44 -10 -11 -246 -368 -304 -460 -21 -33 -48 -73 -59 -90 -11 -16
-39 -59 -62 -95 -23 -36 -57 -89 -75 -117 -18 -29 -48 -76 -67 -105 -35 -56
-85 -136 -150 -240 -21 -35 -53 -85 -71 -113 -18 -27 -41 -66 -52 -85 -11 -19
-46 -75 -76 -125 -31 -49 -71 -115 -88 -145 -17 -30 -48 -82 -69 -115 -20 -33
-70 -116 -110 -185 -40 -69 -87 -147 -103 -175 -17 -27 -50 -86 -75 -130 -25
-44 -58 -102 -75 -130 -17 -27 -70 -120 -117 -205 -48 -85 -119 -211 -158
-280 -322 -573 -933 -1767 -1232 -2410 -73 -157 -145 -312 -161 -345 -15 -33
-58 -127 -94 -210 -37 -82 -75 -168 -85 -190 -38 -81 -206 -468 -250 -575 -10
-25 -36 -88 -58 -140 -23 -52 -59 -140 -82 -195 -22 -55 -49 -120 -59 -145
-11 -25 -27 -65 -37 -90 -10 -25 -25 -63 -34 -85 -9 -22 -24 -60 -34 -85 -20
-50 -38 -96 -86 -215 -18 -44 -39 -98 -47 -120 -8 -22 -21 -56 -29 -75 -30
-79 -97 -257 -109 -290 -23 -63 -42 -114 -68 -180 -14 -36 -33 -85 -41 -110
-8 -25 -28 -81 -44 -125 -66 -181 -123 -341 -127 -358 -2 -9 -7 -22 -10 -27
-3 -5 -8 -18 -10 -27 -2 -10 -18 -56 -35 -103 -39 -107 -121 -349 -125 -373
-2 -9 -7 -22 -10 -27 -3 -5 -8 -18 -10 -27 -2 -10 -19 -63 -38 -118 -19 -55
-49 -147 -67 -205 -41 -131 -69 -221 -119 -380 -21 -69 -49 -159 -61 -200 -12
-41 -25 -86 -30 -100 -5 -14 -18 -58 -29 -97 -12 -40 -30 -103 -40 -140 -11
-38 -25 -88 -32 -113 -7 -25 -14 -49 -15 -55 -2 -5 -12 -41 -23 -80 -11 -38
-32 -113 -46 -165 -96 -338 -221 -827 -304 -1190 -29 -124 -61 -261 -71 -305
-10 -44 -22 -96 -25 -115 -3 -19 -10 -51 -15 -70 -5 -19 -12 -51 -15 -70 -3
-19 -10 -51 -15 -70 -5 -19 -12 -51 -15 -70 -3 -19 -10 -51 -15 -70 -5 -19
-11 -46 -14 -60 -2 -14 -20 -104 -39 -200 -20 -96 -43 -215 -51 -265 -9 -49
-18 -101 -21 -115 -3 -14 -9 -50 -15 -80 -6 -30 -12 -66 -15 -80 -6 -28 -54
-310 -61 -352 -2 -16 -6 -43 -9 -60 -3 -18 -8 -44 -10 -58 -2 -14 -7 -40 -10
-57 -18 -112 -22 -134 -35 -228 -6 -44 -13 -92 -16 -107 -10 -66 -23 -153 -29
-198 -2 -14 -6 -43 -9 -65 -3 -22 -8 -62 -12 -90 -3 -27 -7 -61 -9 -75 -8 -46
-64 -514 -70 -580 -3 -36 -8 -76 -10 -90 -4 -24 -9 -79 -20 -210 -3 -36 -8
-76 -10 -90 -2 -14 -6 -63 -10 -110 -3 -47 -8 -101 -10 -120 -2 -19 -7 -73
-10 -120 -3 -47 -8 -110 -10 -140 -3 -30 -7 -107 -11 -170 -3 -63 -8 -123 -9
-132 -2 -9 -7 -95 -11 -190 l-7 -174 144 -68 c79 -38 239 -111 354 -163 3322
-1493 7341 -2396 11605 -2608 729 -36 928 -40 1965 -40 1037 0 1236 4 1965 40
1335 67 2675 204 3960 405 426 67 1361 236 1327 239 -4 1 -3 7 3 14 12 14 86
111 115 151 11 15 38 51 60 81 22 29 78 105 125 170 47 64 96 132 110 150 14
18 32 43 40 55 8 12 26 37 40 56 14 18 35 48 48 66 75 107 124 176 139 197 26
34 77 107 131 186 26 39 49 72 52 75 4 3 20 25 36 50 17 25 70 104 119 175 49
72 123 182 165 245 42 63 85 128 96 144 10 16 30 45 44 66 14 21 34 50 44 66
22 32 195 297 231 354 13 19 44 69 70 110 26 41 62 98 80 125 64 101 111 176
150 240 22 37 58 95 80 130 22 35 58 94 80 130 22 36 56 92 76 123 19 31 69
114 110 183 41 70 83 142 94 160 56 94 144 245 179 306 21 37 67 115 101 173
34 58 89 155 122 215 33 61 83 149 111 196 89 152 615 1144 763 1439 127 253
261 526 421 860 28 58 68 141 89 185 21 44 86 186 144 315 59 129 115 253 125
275 48 103 236 531 272 620 11 28 28 68 39 90 10 22 29 67 42 100 14 33 38 92
55 130 16 39 42 102 57 140 14 39 39 99 55 135 15 36 40 97 54 135 15 39 38
95 51 125 13 30 35 87 50 125 48 128 53 140 76 195 26 65 57 145 69 180 5 14
18 50 30 80 45 115 72 187 90 240 10 30 28 80 40 110 70 180 393 1105 405
1160 2 8 19 62 38 120 55 164 128 390 143 443 8 26 21 70 29 97 8 28 22 73 30
100 8 28 22 73 30 100 8 28 21 71 29 98 103 343 97 323 171 592 14 52 28 102
30 110 2 8 18 67 35 130 33 126 38 141 45 168 13 50 185 731 189 752 13 62 17
83 46 205 59 247 69 290 75 325 3 19 10 51 15 70 9 35 86 410 96 465 2 17 7
37 9 45 2 8 7 31 10 50 3 19 8 42 10 50 2 8 6 27 9 43 10 55 47 253 56 297 6
25 14 74 20 110 9 61 14 88 26 150 10 57 73 438 78 480 3 25 8 55 10 66 8 39
49 320 62 419 2 22 7 51 9 65 6 34 12 84 20 155 4 33 8 71 11 85 4 30 31 252
40 335 3 33 7 67 9 75 1 8 6 49 9 90 8 90 16 166 21 200 2 14 6 61 10 105 7
92 14 174 20 225 2 19 7 80 11 135 3 55 8 107 9 115 2 8 6 78 10 155 4 77 9
156 10 175 2 19 6 89 10 155 3 66 8 145 10 175 2 30 7 178 11 328 l7 272 -314
154 c-1588 779 -3399 1428 -5348 1916 -1576 394 -3235 681 -4941 855 -829 84
-1524 132 -2550 176 -232 10 -2105 20 -2330 13z"/>
<path d="M18565 40046 c-839 -294 -1611 -604 -2350 -944 -286 -132 -951 -464
-1223 -611 -2105 -1140 -3738 -2488 -4818 -3977 -781 -1077 -1263 -2229 -1418
-3388 -44 -327 -51 -442 -51 -861 0 -419 7 -534 51 -861 191 -1425 868 -2820
1994 -4109 402 -461 874 -919 1385 -1345 191 -159 507 -411 511 -407 1 1 5 40
9 87 4 47 8 87 10 90 2 3 6 43 10 90 3 47 8 96 10 110 6 41 33 260 40 325 3
33 8 69 10 80 5 25 11 64 25 180 13 102 19 149 25 185 2 14 7 45 10 70 3 25
10 70 15 100 5 30 12 78 15 105 3 28 21 145 40 260 19 116 36 226 39 245 3 19
17 100 31 180 14 80 32 181 40 225 7 44 16 95 19 113 3 17 8 47 11 65 3 17 8
39 10 47 2 8 7 29 10 46 2 17 30 157 60 310 30 154 58 293 61 309 2 17 7 37 9
45 2 8 7 29 10 45 13 64 16 81 25 115 5 19 12 51 15 70 3 19 12 60 20 90 8 30
16 69 19 85 7 40 42 190 82 355 18 74 36 151 39 170 5 29 166 674 180 720 2 8
23 85 45 170 22 85 43 162 45 170 2 8 16 58 30 110 32 117 89 322 119 425 1 6
8 30 15 55 15 54 30 104 69 230 17 52 40 129 52 170 12 41 25 86 30 100 5 14
18 59 30 100 12 41 29 95 37 120 8 25 16 50 17 55 3 15 106 331 217 665 89
266 141 416 215 625 13 39 36 104 50 145 14 41 36 102 49 135 13 33 35 94 50
135 15 41 33 91 40 110 7 19 32 85 55 145 23 61 47 124 53 140 7 17 12 32 12
35 0 6 17 50 57 150 17 41 37 93 45 115 32 85 43 113 78 200 20 50 43 106 50
125 7 19 30 76 50 125 20 50 45 110 55 135 10 25 37 90 60 145 23 55 49 120
60 145 130 320 506 1178 620 1415 16 33 98 209 184 390 280 597 827 1671 1051
2065 45 80 122 219 170 310 49 91 101 183 115 205 15 22 46 76 70 120 23 44
73 132 110 195 116 198 147 252 196 340 26 47 57 99 69 115 12 17 41 64 64
105 24 41 64 109 89 151 26 42 60 99 76 125 16 27 46 76 66 109 21 33 79 128
130 210 51 83 107 173 125 200 18 28 38 61 45 75 7 14 16 27 20 30 3 3 17 23
30 45 13 22 53 85 88 140 36 55 81 125 100 155 20 30 53 81 74 113 22 31 36
57 31 56 -4 0 -89 -28 -188 -63z"/>
<path d="M47389 36949 c-5 -26 -7 -46 -13 -114 -4 -44 -9 -98 -11 -120 -2 -22
-7 -67 -10 -100 -3 -33 -8 -76 -10 -95 -2 -19 -7 -71 -10 -114 -3 -44 -8 -82
-9 -85 -2 -3 -7 -42 -10 -86 -4 -44 -9 -91 -11 -105 -2 -14 -7 -54 -11 -90 -3
-36 -7 -72 -9 -80 -1 -8 -6 -42 -9 -75 -9 -83 -17 -145 -21 -175 -6 -39 -33
-250 -40 -305 -3 -27 -10 -75 -15 -105 -9 -55 -13 -80 -25 -175 -10 -77 -10
-76 -54 -350 -16 -104 -32 -206 -35 -225 -3 -19 -17 -100 -31 -180 -14 -80
-35 -197 -45 -260 -22 -126 -23 -131 -51 -273 -10 -53 -21 -112 -24 -130 -3
-17 -8 -39 -10 -47 -2 -8 -7 -31 -10 -50 -3 -19 -24 -125 -46 -235 -23 -110
-43 -211 -45 -225 -3 -14 -9 -41 -14 -60 -5 -19 -12 -51 -15 -70 -3 -19 -12
-62 -20 -95 -8 -33 -23 -100 -35 -150 -11 -49 -23 -101 -25 -115 -19 -105
-336 -1376 -390 -1560 -2 -8 -15 -55 -29 -105 -20 -74 -45 -165 -71 -255 -2
-8 -11 -40 -20 -70 -9 -30 -17 -59 -19 -65 -1 -5 -8 -30 -15 -55 -15 -54 -30
-104 -69 -230 -17 -52 -40 -129 -52 -170 -12 -41 -25 -86 -30 -100 -10 -29
-54 -173 -55 -180 -2 -10 -50 -162 -110 -345 -34 -104 -76 -233 -93 -285 -54
-167 -276 -809 -327 -945 -52 -137 -86 -231 -101 -275 -9 -25 -34 -92 -56
-150 -22 -58 -46 -121 -53 -140 -7 -19 -20 -53 -28 -75 -9 -22 -37 -94 -62
-160 -26 -66 -52 -136 -60 -155 -17 -46 -60 -154 -150 -375 -20 -49 -43 -108
-52 -130 -8 -22 -33 -83 -55 -135 -22 -52 -48 -115 -58 -140 -27 -67 -171
-405 -245 -575 -163 -372 -251 -570 -316 -710 -15 -33 -90 -193 -165 -355
-275 -594 -937 -1902 -1115 -2205 -25 -44 -95 -170 -154 -280 -59 -110 -126
-231 -150 -270 -23 -38 -59 -101 -80 -140 -21 -38 -69 -124 -108 -190 -38 -66
-100 -172 -137 -235 -89 -154 -116 -198 -177 -299 -28 -47 -70 -119 -93 -159
-23 -40 -56 -95 -73 -122 -18 -27 -50 -79 -72 -115 -40 -67 -87 -142 -159
-255 -21 -34 -36 -64 -32 -67 18 -19 1088 401 1671 656 499 219 1194 557 1643
800 2105 1140 3738 2488 4818 3977 781 1077 1263 2228 1419 3389 43 326 50
441 50 860 0 419 -7 534 -51 861 -191 1425 -868 2820 -1994 4109 -403 461
-877 922 -1385 1345 -251 209 -464 378 -466 369z"/>
<path d="M16130 17714 c0 -54 96 -548 170 -874 173 -766 429 -1550 707 -2160
14 -30 41 -90 59 -132 41 -91 192 -394 265 -528 102 -188 374 -639 399 -660 3
-3 17 -23 30 -45 26 -43 272 -385 293 -407 7 -7 28 -33 47 -58 32 -43 178
-219 190 -230 3 -3 32 -36 65 -75 141 -166 390 -415 609 -610 43 -38 83 -75
90 -80 20 -18 157 -129 179 -145 12 -8 29 -22 38 -30 9 -8 29 -24 44 -35 16
-11 52 -38 81 -60 29 -22 62 -47 74 -55 12 -8 38 -27 58 -42 19 -16 38 -28 43
-28 4 0 14 -6 21 -13 18 -18 156 -107 335 -218 86 -53 549 -299 563 -299 7 0
38 -13 69 -29 31 -16 83 -40 116 -54 33 -14 94 -39 135 -57 41 -18 86 -36 100
-41 14 -4 63 -22 110 -39 121 -44 302 -104 390 -130 41 -12 95 -27 120 -35 63
-19 238 -63 280 -70 19 -3 51 -10 70 -15 63 -17 300 -62 395 -75 23 -3 50 -7
60 -9 11 -2 45 -7 75 -11 30 -4 63 -9 72 -10 9 -2 48 -7 85 -11 37 -4 79 -8
93 -9 14 -2 61 -6 105 -10 44 -3 94 -8 110 -10 157 -21 811 -24 1094 -5 152
10 433 35 506 45 43 6 172 23 225 30 25 4 70 10 100 15 30 6 73 12 95 15 189
28 655 126 920 195 433 113 943 276 1325 425 52 20 123 48 157 61 172 67 492
205 788 339 258 117 1044 524 1190 617 22 14 50 28 63 32 12 4 22 12 22 17 0
5 5 9 12 9 10 0 577 336 588 349 5 6 11 10 90 57 69 41 549 355 575 377 6 4
48 33 95 65 87 59 247 170 265 184 6 4 123 90 260 190 289 210 260 190 305
225 19 16 62 49 95 73 33 24 65 49 72 55 15 12 25 20 83 65 68 52 334 264 340
270 3 3 25 21 50 40 25 19 50 39 56 45 6 5 30 26 54 45 24 19 103 84 175 145
172 145 176 148 189 160 6 6 56 48 111 95 55 47 105 89 111 95 12 11 126 112
163 145 24 20 153 137 211 190 15 14 65 59 110 100 91 82 96 87 192 178 78 73
92 69 -157 47 -1655 -143 -3625 -178 -5365 -95 -3949 190 -7701 931 -11050
2185 -207 77 -787 304 -852 333 -5 2 -8 -4 -8 -14z"/>
</g>
</svg>
