<?xml version="1.0" encoding="UTF-8"?>
<svg width="6000px" height="6000px" viewBox="0 0 6000 6000" xmlns="http://www.w3.org/2000/svg" xmlns:xlink="http://www.w3.org/1999/xlink" version="1.1">
 <!-- Generated by Pixelmator Pro 2.0.3 -->
 <g id="group">
  <path id="Path" d="M2917.939 0.101 C2913.509 0.302 2896.795 0.907 2880.685 1.511 2588.488 12.385 2290.653 68.468 2014.264 164.827 1629.435 298.943 1277.127 509.18 975.667 784.763 904.783 849.606 824.736 930.56 760.598 1002.451 525.089 1266.354 338.01 1569.324 208.425 1896.963 97.869 2176.271 29.603 2474.409 7.552 2773.452 1.209 2860.044 0 2896.292 0 3000 0 3101.393 1.209 3138.547 7.049 3220.004 28.898 3522.772 96.963 3821.212 208.425 4103.038 337.607 4429.871 524.384 4732.539 759.692 4996.543 823.629 5068.334 904.481 5150.092 975.667 5215.238 1245.813 5462.125 1558.148 5657.56 1896.963 5791.576 2176.272 5902.131 2474.409 5970.398 2773.452 5992.448 2860.044 5998.792 2896.292 6000 3000 6000 3091.022 6000 3111.462 5999.497 3173.184 5995.973 3620.541 5969.995 4048.666 5847.559 4439.335 5633.797 4649.069 5519.013 4846.82 5377.446 5024.333 5215.238 5095.217 5150.395 5175.264 5069.441 5239.403 4997.55 5474.912 4733.646 5662.192 4430.273 5791.576 4103.038 5903.038 3821.212 5971.103 3522.772 5992.952 3220.004 5998.792 3138.547 6000 3101.393 6000 3000 6000 2896.292 5998.792 2860.044 5992.448 2773.452 5950.462 2203.155 5743.648 1654.103 5398.087 1195.873 5313.912 1084.209 5230.744 988.253 5131.063 887.767 4986.072 741.467 4836.55 618.023 4666.891 504.447 4305.42 262.595 3898.137 103.004 3470.213 35.846 3355.328 17.722 3254.741 7.753 3122.84 1.41 3102.702 0.403 2935.963 -0.604 2917.939 0.101 Z M3771.271 701.695 C3773.184 701.897 3779.527 702.4 3785.367 702.803 3791.207 703.105 3797.55 703.608 3799.463 703.81 3801.376 704.011 3805.907 704.515 3809.532 704.817 3817.889 705.521 3825.441 706.327 3828.663 706.831 3830.073 707.032 3833.697 707.536 3836.718 707.837 3839.738 708.139 3843.363 708.643 3844.773 708.844 3846.183 709.046 3849.807 709.448 3852.828 709.851 3862.494 710.958 3914.348 719.92 3920.289 721.43 3922.202 721.934 3925.424 722.639 3927.337 722.94 3930.055 723.444 3978.487 735.526 3983.219 736.936 3983.823 737.037 3986.24 737.742 3988.757 738.446 4000.638 741.77 4044.437 756.167 4055.211 760.296 4081.289 770.365 4091.156 774.493 4112.603 784.159 4133.143 793.422 4174.124 813.761 4181.071 818.292 4184.091 820.205 4190.636 823.93 4195.57 826.649 4200.403 829.267 4206.646 832.892 4209.264 834.604 4211.881 836.315 4216.714 839.336 4219.937 841.249 4226.179 845.075 4246.115 857.963 4251.049 861.387 4270.28 874.878 4278.235 880.618 4285.384 886.055 4288.304 888.271 4291.828 890.989 4293.338 891.996 4294.748 893.103 4296.862 894.714 4297.869 895.52 4298.876 896.426 4300.89 898.037 4302.4 899.044 4305.018 900.957 4308.039 903.374 4310.958 905.891 4311.764 906.595 4314.684 909.012 4317.503 911.227 4320.222 913.342 4323.645 916.161 4325.055 917.369 4328.277 920.289 4331.499 923.008 4337.137 927.841 4352.341 940.829 4363.115 950.898 4385.467 973.15 4408.122 995.805 4417.184 1005.27 4427.253 1016.95 4430.576 1020.876 4433.496 1024.199 4433.798 1024.501 4434.301 1024.904 4452.828 1046.955 4458.869 1054.204 4459.775 1055.312 4464.307 1061.151 4469.039 1067.293 4473.67 1073.335 4477.899 1078.772 4478.403 1079.376 4479.611 1080.786 4495.419 1102.333 4497.231 1105.052 4498.037 1106.26 4500.554 1109.784 4502.87 1112.905 4516.06 1131.23 4562.678 1205.639 4562.678 1208.458 4562.678 1208.76 4564.189 1211.579 4566.102 1214.701 4574.459 1228.696 4611.009 1301.292 4611.009 1303.911 4611.009 1304.011 4612.821 1308.14 4615.036 1312.872 4617.251 1317.604 4619.063 1321.732 4619.063 1321.934 4619.063 1322.236 4620.373 1325.256 4621.983 1328.781 4623.695 1332.305 4626.213 1338.043 4627.622 1341.668 4629.132 1345.293 4630.945 1349.522 4631.65 1351.234 4632.354 1352.845 4635.577 1360.799 4638.698 1368.854 4641.819 1376.909 4644.739 1384.36 4645.243 1385.468 4646.652 1388.79 4654.104 1409.431 4660.346 1427.253 4695.989 1528.646 4725.29 1654.606 4740.896 1774.124 4745.125 1806.746 4745.226 1807.753 4747.441 1829.502 4748.347 1837.758 4749.253 1846.82 4749.556 1849.64 4750.361 1857.795 4750.764 1862.226 4751.468 1871.288 4751.871 1876.02 4752.274 1880.954 4752.476 1882.363 4752.677 1883.772 4753.18 1889.814 4753.482 1895.956 4753.885 1901.997 4754.388 1907.737 4754.489 1908.643 4754.691 1909.448 4755.093 1917.201 4755.496 1925.76 4756.201 1940.46 4756.604 1944.79 4757.208 1945.293 4757.409 1945.394 4764.759 1949.925 4773.62 1955.362 4891.727 2027.857 5000.671 2110.321 5091.996 2196.308 5111.73 2215.036 5154.422 2258.03 5171.136 2276.053 5320.457 2438.06 5418.527 2616.177 5459.305 2799.53 5480.249 2893.875 5486.39 2991.643 5477.328 3086.592 5464.239 3224.132 5420.138 3358.852 5345.528 3488.841 5300.017 3568.283 5239.805 3649.337 5171.136 3723.947 5153.415 3743.078 5105.991 3790.703 5086.256 3809.029 4910.556 3972.244 4691.358 4109.582 4427.253 4222.051 4256.889 4294.546 4062.964 4356.066 3866.421 4400.067 3846.082 4404.598 3841.953 4405.907 3840.443 4407.82 3839.436 4409.129 3837.624 4411.244 3836.416 4412.653 3835.208 4414.063 3828.562 4421.715 3821.615 4429.771 3814.768 4437.825 3808.626 4444.874 3808.022 4445.478 3807.518 4446.082 3804.498 4449.505 3801.477 4453.029 3798.456 4456.553 3794.832 4460.48 3793.523 4461.99 3792.314 4463.4 3788.387 4467.629 3784.964 4471.455 3781.641 4475.281 3777.715 4479.611 3776.406 4481.021 3775.198 4482.43 3771.472 4486.558 3768.25 4490.183 3765.028 4493.808 3760.9 4498.339 3759.087 4500.353 3757.174 4502.366 3751.737 4508.307 3747.005 4513.442 3689.21 4576.17 3619.131 4646.652 3562.242 4699.211 3556.302 4704.749 3540.393 4719.248 3538.681 4720.759 3537.775 4721.564 3532.741 4726.095 3527.605 4730.827 3522.47 4735.56 3517.738 4739.789 3517.134 4740.393 3516.53 4740.896 3512.402 4744.521 3507.971 4748.448 3503.541 4752.274 3499.715 4755.697 3499.413 4756 3499.111 4756.301 3495.788 4759.222 3491.861 4762.544 3488.035 4765.867 3484.612 4768.787 3484.31 4769.089 3484.008 4769.391 3480.685 4772.311 3476.758 4775.634 3472.932 4778.956 3469.207 4782.178 3468.603 4782.783 3467.193 4784.091 3462.259 4788.22 3441.014 4805.941 3431.851 4813.593 3423.897 4820.339 3423.192 4820.943 3422.588 4821.447 3420.776 4822.957 3419.165 4824.166 3417.654 4825.374 3415.238 4827.286 3413.828 4828.495 3412.418 4829.703 3410.002 4831.616 3408.491 4832.824 3406.981 4834.033 3404.766 4835.745 3403.659 4836.751 3401.645 4838.362 3399.329 4840.275 3388.656 4848.834 3385.635 4851.25 3379.091 4856.386 3374.056 4860.211 3369.123 4864.138 3364.088 4868.065 3362.98 4868.972 3361.873 4869.878 3351.704 4877.63 3340.326 4886.29 3328.948 4894.848 3319.282 4902.299 3318.678 4902.702 3316.765 4904.212 3291.492 4922.739 3285.149 4927.169 3281.625 4929.687 3276.389 4933.512 3273.368 4935.728 3270.348 4937.943 3263.299 4942.876 3257.761 4946.803 3252.123 4950.629 3244.068 4956.369 3239.638 4959.389 3216.379 4975.801 3169.458 5006.511 3143.984 5022.218 3137.641 5026.045 3132.204 5029.569 3131.902 5029.871 3131.599 5030.173 3130.492 5030.878 3129.384 5031.583 3128.277 5032.187 3119.719 5037.422 3110.254 5043.061 3100.89 5048.8 3091.828 5054.137 3090.116 5054.942 3088.505 5055.748 3086.894 5056.654 3086.592 5056.956 3086.29 5057.258 3084.478 5058.365 3082.564 5059.473 3080.651 5060.48 3071.59 5065.615 3062.427 5070.851 3053.264 5076.086 3042.39 5082.229 3038.262 5084.444 3034.134 5086.76 3029.401 5089.277 3027.689 5090.284 3003.122 5103.978 2951.569 5130.257 2919.45 5145.46 2906.26 5151.703 2884.209 5161.772 2877.966 5164.39 2874.543 5165.8 2868.905 5168.317 2865.582 5169.827 2862.259 5171.438 2856.621 5173.854 2852.996 5175.365 2849.371 5176.875 2844.639 5178.889 2842.424 5179.896 2840.208 5180.802 2828.025 5185.836 2815.238 5190.871 2802.551 5196.006 2791.173 5200.537 2790.066 5201.041 2786.945 5202.349 2767.008 5209.599 2742.239 5218.359 2673.066 5242.826 2602.887 5262.158 2530.794 5276.557 2508.441 5280.987 2511.261 5280.483 2485.988 5284.511 2460.01 5288.639 2454.573 5289.444 2448.733 5290.25 2446.015 5290.552 2442.592 5291.056 2441.182 5291.257 2439.772 5291.458 2436.147 5291.861 2433.127 5292.163 2430.106 5292.566 2424.166 5293.17 2420.037 5293.673 2413.492 5294.479 2407.552 5295.083 2395.369 5296.19 2393.758 5296.392 2388.018 5296.795 2382.783 5297.198 2377.547 5297.6 2372.11 5298.003 2370.7 5298.305 2369.291 5298.506 2360.732 5298.91 2351.569 5299.211 2342.407 5299.614 2333.647 5300.017 2331.935 5300.218 2328.612 5300.722 2255.916 5300.722 2246.35 5300.218 2230.341 5299.413 2216.547 5298.607 2211.11 5298.205 2194.396 5296.896 2190.771 5296.593 2188.455 5296.19 2187.045 5295.989 2182.313 5295.586 2177.883 5295.184 2173.452 5294.882 2168.72 5294.378 2167.31 5294.177 2165.901 5293.976 2160.967 5293.271 2156.235 5292.667 2138.514 5290.351 2135.191 5289.848 2129.653 5289.042 2127.539 5288.74 2124.82 5288.236 2123.612 5288.035 2122.504 5287.834 2117.47 5286.927 2112.435 5286.021 2100.454 5284.007 2083.236 5280.786 2078.201 5279.577 2075.986 5279.074 2072.563 5278.369 2070.65 5278.067 2068.737 5277.765 2063.702 5276.557 2059.574 5275.55 2055.446 5274.543 2050.915 5273.435 2049.505 5273.133 2046.585 5272.529 2041.148 5271.22 2036.718 5270.012 2021.313 5265.984 2014.164 5263.971 2007.72 5262.058 2005.001 5261.252 1999.765 5259.641 1996.141 5258.634 1986.072 5255.614 1956.469 5245.645 1945.797 5241.718 1931.197 5236.281 1929.888 5235.778 1919.114 5231.247 1913.576 5229.032 1907.032 5226.313 1904.515 5225.307 1883.269 5216.647 1832.019 5191.576 1816.211 5182.111 1810.573 5178.688 1803.726 5174.761 1801.108 5173.352 1798.49 5171.942 1791.945 5168.115 1786.709 5164.793 1781.474 5161.571 1774.627 5157.342 1771.606 5155.529 1768.586 5153.818 1765.666 5151.905 1765.062 5151.401 1764.558 5150.999 1760.531 5148.179 1756.1 5145.36 1744.723 5137.809 1741.199 5135.493 1736.768 5132.371 1734.553 5130.861 1731.734 5128.747 1730.324 5127.84 1728.915 5126.833 1727.304 5125.625 1726.599 5125.021 1725.995 5124.518 1723.78 5122.906 1721.766 5121.497 1717.335 5118.375 1679.678 5089.277 1678.973 5088.371 1678.671 5087.968 1676.255 5085.854 1673.435 5083.739 1670.717 5081.523 1667.696 5079.006 1666.891 5078.201 1665.38 5076.792 1655.614 5068.334 1650.378 5063.803 1633.362 5049.203 1588.958 5004.699 1574.258 4987.582 1573.05 4986.172 1570.633 4983.454 1568.921 4981.541 1562.578 4974.694 1539.319 4946.702 1532.472 4937.741 1523.914 4926.767 1523.712 4926.364 1522.303 4924.854 1521.699 4924.148 1515.456 4915.69 1508.509 4906.024 1501.46 4896.358 1495.419 4887.901 1495.016 4887.397 1493.808 4885.988 1471.556 4852.257 1467.025 4845.108 1438.027 4799.396 1404.8 4737.07 1383.957 4689.545 1381.642 4684.31 1378.923 4678.168 1377.916 4675.952 1376.909 4673.737 1374.694 4668.501 1372.882 4664.373 1371.17 4660.245 1369.358 4655.916 1368.854 4654.808 1363.518 4643.128 1336.231 4570.432 1332.808 4558.651 1332.204 4556.738 1328.78 4545.863 1325.156 4534.486 1315.49 4504.682 1306.931 4474.677 1296.258 4432.892 1290.418 4410.035 1277.43 4349.925 1273.704 4328.579 1272.798 4323.544 1270.985 4313.174 1269.576 4305.42 1266.756 4289.209 1259.608 4242.692 1258.601 4234.436 1258.299 4231.415 1257.795 4227.79 1257.594 4226.38 1256.889 4222.555 1254.271 4202.014 1253.063 4190.133 1252.459 4184.293 1251.754 4178.453 1251.553 4177.043 1250.445 4169.693 1246.921 4130.626 1245.511 4111.093 1245.209 4106.663 1244.706 4101.225 1244.505 4099.01 1244.303 4096.795 1243.598 4086.122 1242.994 4075.348 1241.987 4057.124 1241.685 4055.613 1239.672 4053.902 1238.463 4052.794 1226.179 4044.941 1212.284 4036.382 1102.031 3967.914 1002.551 3892.398 912.737 3809.029 893.003 3790.703 845.578 3743.178 827.857 3723.947 647.223 3527.807 543.011 3310.925 521.665 3086.592 517.638 3044.404 516.53 2986.004 518.947 2947.139 527.505 2813.324 561.538 2690.083 624.266 2565.531 675.315 2464.44 743.078 2368.082 827.857 2276.053 844.572 2258.03 887.263 2215.036 906.998 2196.308 1164.86 1953.348 1537.607 1758.718 1972.982 1639.604 2028.663 1624.4 2147.273 1595.402 2153.818 1595.402 2155.53 1595.402 2160.262 1590.771 2166.807 1582.917 2169.022 1580.299 2171.741 1577.077 2172.848 1575.768 2173.956 1574.56 2177.379 1570.633 2180.4 1567.209 2183.42 1563.686 2186.441 1560.363 2186.944 1559.759 2188.153 1558.45 2200.034 1544.756 2203.558 1540.628 2204.968 1539.017 2207.183 1536.5 2208.592 1534.989 2210.002 1533.58 2214.03 1528.948 2217.654 1524.82 2221.279 1520.792 2225.307 1516.161 2226.716 1514.751 2228.126 1513.341 2232.053 1509.012 2235.375 1505.186 2238.799 1501.36 2243.128 1496.627 2244.941 1494.613 2246.854 1492.6 2252.291 1486.659 2257.023 1481.524 2266.689 1471.053 2267.394 1470.348 2287.029 1449.405 2313.711 1421.01 2410.774 1324.753 2425.978 1311.563 2427.287 1310.455 2431.818 1306.226 2436.047 1302.199 2443.498 1295.05 2459.608 1280.249 2463.937 1276.523 2465.146 1275.516 2470.281 1270.885 2475.416 1266.152 2480.551 1261.42 2485.283 1257.09 2485.887 1256.587 2486.491 1255.983 2490.217 1252.861 2494.043 1249.539 2497.869 1246.216 2501.997 1242.591 2503.206 1241.484 2504.414 1240.376 2506.629 1238.362 2508.24 1237.054 2512.972 1233.026 2524.249 1223.36 2524.753 1222.856 2525.156 1222.353 2539.453 1210.271 2553.449 1198.49 2554.556 1197.584 2556.469 1195.873 2557.779 1194.865 2559.087 1193.758 2562.007 1191.341 2564.222 1189.428 2566.538 1187.616 2571.17 1183.79 2574.493 1180.97 2581.239 1175.433 2593.523 1165.464 2602.786 1158.014 2606.109 1155.295 2609.734 1152.375 2610.841 1151.469 2611.949 1150.563 2614.868 1148.247 2617.386 1146.333 2619.903 1144.421 2622.42 1142.407 2623.125 1141.803 2625.038 1140.091 2681.826 1096.795 2685.854 1093.976 2687.465 1092.768 2698.238 1084.914 2711.529 1075.147 2712.133 1074.644 2714.852 1072.73 2717.57 1070.818 2720.39 1068.905 2723.108 1066.891 2723.813 1066.287 2724.417 1065.783 2729.552 1062.058 2735.09 1058.231 2740.729 1054.305 2748.985 1048.565 2753.617 1045.344 2758.148 1042.222 2762.578 1039.101 2763.383 1038.598 2764.189 1037.993 2767.814 1035.577 2771.438 1033.06 2775.063 1030.542 2778.688 1028.025 2779.493 1027.522 2782.414 1025.508 2833.966 991.677 2841.215 987.146 2858.332 976.171 2927.606 934.587 2938.581 928.646 2942.508 926.431 2950.965 921.799 2966.773 912.939 2978.352 906.495 3021.346 883.94 3039.772 874.678 3135.224 826.649 3256.453 778.822 3342.843 755.06 3347.877 753.65 3353.818 751.838 3356.235 751.032 3360.967 749.421 3419.668 734.621 3429.435 732.506 3432.757 731.801 3436.886 730.895 3438.497 730.492 3440.208 729.989 3443.33 729.284 3445.545 728.881 3447.76 728.479 3450.076 728.076 3450.579 727.874 3457.325 726.263 3498.104 718.812 3513.006 716.396 3519.651 715.389 3526.498 714.281 3528.109 713.979 3538.883 712.268 3575.533 707.536 3592.549 705.824 3604.934 704.615 3636.147 702.299 3649.941 701.695 3658.299 701.292 3665.246 700.89 3665.448 700.688 3666.052 700.084 3767.042 701.091 3771.271 701.695 Z" fill="#000000" fill-opacity="1" stroke="none"/>
  <path id="Path-1" d="M3688.505 1042.122 C3688.304 1042.222 3679.645 1042.625 3669.072 1043.028 3652.257 1043.531 3627.186 1045.444 3611.68 1047.257 3583.89 1050.479 3559.927 1053.902 3548.247 1056.218 3544.42 1057.023 3539.587 1057.93 3537.674 1058.231 3494.076 1065.28 3422.386 1084.813 3363.988 1105.555 3355.127 1108.777 3345.662 1112.1 3342.843 1113.106 3326.531 1118.846 3273.066 1140.998 3254.439 1149.757 3248.901 1152.274 3244.37 1154.389 3244.169 1154.389 3242.86 1154.389 3178.621 1186.105 3165.632 1193.154 3162.914 1194.664 3155.865 1198.39 3150.025 1201.51 3144.186 1204.531 3137.741 1208.156 3135.728 1209.465 3133.613 1210.774 3131.7 1211.781 3131.398 1211.781 3130.995 1211.781 3125.76 1214.701 3119.719 1218.326 3113.576 1221.951 3108.341 1224.87 3108.139 1224.87 3107.434 1224.87 3054.271 1256.889 3046.115 1262.226 3042.39 1264.642 3035.342 1269.173 3030.509 1272.194 3021.145 1278.033 2973.217 1309.952 2966.169 1314.986 2963.853 1316.698 2960.933 1318.712 2959.725 1319.517 2956.1 1321.934 2926.599 1342.977 2918.946 1348.717 2907.569 1357.074 2854.506 1397.349 2854.003 1397.953 2853.7 1398.355 2851.485 1400.168 2848.968 1402.081 2846.451 1403.994 2844.236 1405.807 2843.934 1406.109 2843.632 1406.411 2841.417 1408.223 2838.899 1410.136 2836.382 1412.049 2833.462 1414.466 2832.355 1415.372 2828.529 1418.594 2825.911 1420.708 2823.091 1422.924 2821.581 1424.132 2819.265 1425.944 2817.956 1427.052 2816.647 1428.159 2813.727 1430.576 2811.512 1432.489 2806.277 1436.617 2771.942 1465.414 2769.022 1468.032 2768.418 1468.636 2764.793 1471.757 2760.866 1475.08 2757.04 1478.402 2753.113 1481.826 2752.308 1482.632 2751.502 1483.538 2747.676 1486.861 2743.749 1490.183 2739.923 1493.506 2736.198 1496.627 2735.594 1497.231 2720.39 1511.126 2716.06 1515.154 2716.362 1515.456 2716.563 1515.657 2726.833 1515.154 2739.319 1514.349 2882.8 1505.085 3049.337 1503.776 3196.342 1510.824 3645.713 1532.372 4069.71 1625.105 4437.221 1782.179 L4441.047 1783.79 4440.443 1778.957 C4439.738 1773.016 4437.624 1761.336 4434.2 1744.42 4432.69 1737.473 4431.381 1730.626 4431.18 1729.116 4430.878 1727.706 4428.663 1717.537 4426.146 1706.461 4423.628 1695.486 4421.413 1685.518 4421.212 1684.41 4420.205 1679.879 4411.445 1646.048 4410.035 1641.215 4409.129 1638.396 4406.713 1630.039 4404.598 1622.588 4397.853 1599.128 4380.735 1548.481 4374.493 1533.479 4373.989 1532.372 4371.472 1526.028 4368.854 1519.383 4363.719 1506.495 4356.067 1488.572 4351.334 1478.302 4349.723 1474.878 4347.408 1469.744 4346.199 1467.025 4336.533 1445.478 4315.489 1405.907 4301.896 1383.958 4301.393 1383.152 4298.373 1378.118 4295.251 1372.882 4283.974 1354.154 4266.455 1328.881 4248.23 1305.119 4243.699 1299.279 4231.717 1284.478 4227.387 1279.343 4224.87 1276.423 4222.051 1272.999 4221.044 1271.791 4206.243 1254.372 4174.224 1222.353 4154.993 1205.74 4151.469 1202.719 4148.045 1199.698 4147.441 1199.195 4146.837 1198.591 4144.119 1196.376 4141.299 1194.161 4138.581 1191.945 4135.862 1189.629 4135.258 1189.025 4134.15 1187.817 4117.637 1175.03 4113.61 1172.21 4112.2 1171.304 4108.575 1168.687 4105.555 1166.471 4098.809 1161.538 4078.873 1148.146 4070.918 1143.313 4067.797 1141.4 4063.064 1138.379 4060.447 1136.667 4053.902 1132.338 4004.464 1106.059 4002.954 1106.059 4002.249 1106.059 3999.128 1104.75 3996.006 1103.038 3992.885 1101.427 3986.844 1098.607 3982.715 1096.896 3978.587 1095.285 3974.258 1093.473 3973.15 1092.969 3969.525 1091.358 3963.081 1088.74 3960.564 1087.935 3959.155 1087.431 3954.221 1085.619 3949.488 1083.907 3934.083 1078.269 3912.737 1071.321 3899.144 1067.696 3896.627 1066.992 3894.211 1066.287 3893.606 1066.186 3889.277 1064.877 3876.993 1061.756 3874.778 1061.353 3873.167 1060.95 3870.75 1060.547 3869.24 1060.246 3867.629 1059.943 3864.81 1059.238 3862.897 1058.735 3857.762 1057.326 3839.034 1053.701 3829.468 1052.19 3827.656 1051.889 3825.038 1051.485 3823.628 1051.184 3822.219 1050.982 3819.097 1050.479 3816.58 1050.177 3814.063 1049.875 3810.942 1049.371 3809.532 1049.17 3805.404 1048.465 3800.369 1047.861 3793.925 1047.156 3790.603 1046.854 3786.072 1046.351 3783.856 1046.149 3773.284 1044.94 3756.469 1043.632 3745.092 1043.128 3731.902 1042.423 3689.009 1041.719 3688.505 1042.122 Z" fill="#000000" fill-opacity="1" stroke="none"/>
  <path id="Path-2" d="M2905.354 1807.451 C2818.057 1810.371 2790.167 1811.68 2733.177 1815.406 2647.995 1821.145 2568.351 1829.2 2482.464 1840.678 2451.552 1844.807 2406.444 1851.352 2399.597 1852.761 2397.584 1853.164 2394.664 1855.983 2389.025 1863.031 2384.796 1868.468 2381.071 1873 2380.769 1873.301 2380.064 1873.805 2326.196 1942.776 2322.873 1947.408 2321.766 1948.918 2317.436 1954.657 2313.308 1960.094 2309.18 1965.431 2303.944 1972.378 2301.729 1975.5 2299.514 1978.52 2295.889 1983.454 2293.674 1986.374 2291.459 1989.394 2288.74 1993.019 2287.632 1994.53 2286.525 1996.141 2284.511 1998.859 2283.102 2000.672 2281.692 2002.484 2279.879 2005.001 2279.074 2006.209 2278.268 2007.418 2276.456 2009.935 2275.046 2011.848 2273.637 2013.66 2271.422 2016.782 2270.012 2018.795 2268.603 2020.809 2266.991 2023.024 2266.488 2023.628 2265.884 2024.333 2264.575 2026.146 2263.467 2027.757 2262.36 2029.368 2260.547 2031.885 2259.44 2033.496 2258.332 2035.006 2255.412 2039.134 2252.996 2042.658 2245.746 2052.928 2242.424 2057.56 2240.007 2060.984 2238.799 2062.695 2236.684 2065.716 2235.375 2067.629 2233.966 2069.542 2230.844 2074.073 2228.327 2077.698 2218.963 2090.888 2206.78 2108.81 2200.839 2118.074 2199.631 2119.987 2198.221 2121.9 2197.819 2122.504 2196.812 2123.612 2173.049 2159.557 2167.21 2168.821 2165.095 2172.143 2162.377 2176.171 2161.269 2177.883 2160.162 2179.493 2157.342 2183.823 2155.026 2187.448 2152.71 2191.073 2149.287 2196.409 2147.475 2199.228 2145.662 2202.148 2142.642 2206.881 2140.729 2209.801 2137.205 2215.439 2132.17 2223.494 2125.625 2233.966 2123.511 2237.49 2120.289 2242.524 2118.477 2245.344 2116.664 2248.062 2114.348 2251.989 2113.241 2253.902 2112.133 2255.815 2108.609 2261.454 2105.588 2266.488 2102.467 2271.422 2098.44 2278.067 2096.728 2281.088 2095.016 2284.108 2091.895 2289.344 2089.781 2292.667 2087.767 2295.99 2082.732 2304.346 2078.705 2311.294 2074.677 2318.241 2069.945 2326.095 2068.334 2328.915 2066.622 2331.633 2063.3 2337.573 2060.782 2342.004 2058.265 2346.434 2054.943 2352.274 2053.231 2355.094 2051.519 2357.812 2046.182 2367.176 2041.45 2375.734 2036.617 2384.293 2029.468 2396.979 2025.542 2403.927 1993.12 2461.621 1931.6 2581.843 1901.494 2646.585 1894.144 2662.393 1886.894 2678 1885.283 2681.323 1883.773 2684.645 1879.443 2694.11 1875.818 2702.467 1872.093 2710.723 1868.267 2719.383 1867.26 2721.598 1863.434 2729.753 1846.518 2768.72 1842.088 2779.493 1841.081 2782.011 1838.463 2788.354 1836.248 2793.59 1833.932 2798.825 1830.307 2807.686 1827.992 2813.224 1825.776 2818.762 1823.058 2825.306 1822.051 2827.824 1820.943 2830.341 1819.332 2834.368 1818.326 2836.886 1817.319 2839.403 1815.808 2843.229 1814.902 2845.444 1813.996 2847.659 1812.486 2851.485 1811.479 2854.003 1809.465 2859.037 1807.653 2863.668 1802.82 2875.651 1801.007 2880.081 1798.893 2885.518 1798.087 2887.733 1797.282 2889.948 1795.973 2893.372 1795.167 2895.285 1792.147 2903.239 1785.401 2921.161 1784.192 2924.484 1781.877 2930.828 1779.964 2935.963 1777.346 2942.608 1775.936 2946.233 1774.023 2951.167 1773.217 2953.684 1772.412 2956.201 1770.398 2961.839 1768.787 2966.27 1762.142 2984.494 1756.402 3000.604 1756 3002.316 1755.798 3003.222 1755.295 3004.531 1754.993 3005.035 1754.691 3005.538 1754.187 3006.847 1753.986 3007.753 1753.785 3008.76 1752.174 3013.392 1750.462 3018.124 1746.535 3028.898 1738.279 3053.264 1737.876 3055.681 1737.674 3056.587 1737.171 3057.896 1736.869 3058.399 1736.567 3058.903 1736.063 3060.212 1735.862 3061.118 1735.661 3062.125 1733.949 3067.461 1732.036 3072.999 1730.123 3078.537 1727.102 3087.8 1725.29 3093.64 1721.162 3106.83 1718.342 3115.892 1713.308 3131.902 1711.193 3138.849 1708.374 3147.911 1707.166 3152.039 1705.958 3156.167 1704.649 3160.698 1704.145 3162.108 1703.642 3163.518 1702.333 3167.948 1701.225 3171.875 1700.017 3175.902 1698.205 3182.246 1697.198 3185.971 1696.09 3189.797 1694.681 3194.832 1693.976 3197.349 1693.271 3199.866 1692.566 3202.282 1692.466 3202.887 1692.264 3203.39 1691.257 3207.015 1690.15 3210.942 1689.042 3214.768 1686.928 3222.319 1685.518 3227.555 1675.852 3261.588 1663.266 3310.824 1654.909 3347.374 1651.989 3359.859 1648.767 3373.653 1647.76 3378.084 1646.753 3382.514 1645.545 3387.75 1645.243 3389.663 1644.941 3391.576 1644.236 3394.798 1643.733 3396.711 1643.229 3398.624 1642.524 3401.846 1642.222 3403.759 1641.92 3405.672 1641.215 3408.894 1640.712 3410.807 1640.208 3412.72 1639.504 3415.942 1639.202 3417.855 1638.9 3419.769 1638.195 3422.99 1637.691 3424.904 1637.188 3426.817 1636.584 3429.535 1636.282 3430.945 1636.08 3432.354 1634.268 3441.417 1632.355 3451.083 1630.341 3460.749 1628.025 3472.73 1627.22 3477.765 1626.314 3482.698 1625.407 3487.934 1625.105 3489.344 1624.803 3490.754 1624.199 3494.378 1623.595 3497.399 1622.991 3500.42 1622.387 3504.044 1622.085 3505.454 1621.48 3508.273 1616.647 3536.667 1615.943 3540.896 1615.741 3542.507 1615.339 3545.226 1615.036 3546.938 1614.734 3548.75 1614.231 3551.368 1614.03 3552.778 1613.828 3554.187 1613.325 3556.805 1613.023 3558.517 1611.21 3569.794 1610.808 3572.009 1609.499 3581.474 1608.895 3585.904 1608.19 3590.737 1607.888 3592.247 1606.881 3598.893 1605.572 3607.653 1604.968 3612.183 1604.766 3613.593 1604.364 3616.513 1604.061 3618.728 1603.759 3620.943 1603.256 3624.971 1602.853 3627.79 1602.551 3630.509 1602.148 3633.932 1601.947 3635.342 1601.142 3639.973 1595.503 3687.095 1594.899 3693.741 1594.597 3697.365 1594.093 3701.393 1593.892 3702.803 1593.489 3705.219 1592.986 3710.757 1591.878 3723.947 1591.576 3727.572 1591.073 3731.599 1590.871 3733.009 1590.67 3734.419 1590.267 3739.353 1589.864 3744.085 1589.562 3748.817 1589.059 3754.254 1588.858 3756.167 1588.656 3758.08 1588.153 3763.518 1587.851 3768.25 1587.549 3772.982 1587.045 3779.325 1586.844 3782.346 1586.542 3785.367 1586.139 3793.12 1585.736 3799.463 1585.434 3805.807 1584.931 3811.848 1584.83 3812.754 1584.629 3813.66 1584.125 3822.319 1583.722 3831.885 L1583.018 3849.404 1597.517 3856.251 C1605.471 3860.077 1621.581 3867.427 1633.16 3872.663 1967.646 4022.991 2372.311 4113.912 2801.645 4135.258 2875.047 4138.883 2895.083 4139.285 2999.497 4139.285 3103.91 4139.285 3123.947 4138.883 3197.349 4135.258 3331.767 4128.512 3466.689 4114.718 3596.073 4094.479 3638.967 4087.733 3733.11 4070.717 3729.686 4070.415 3729.284 4070.314 3729.385 4069.71 3729.989 4069.005 3731.197 4067.595 3738.648 4057.829 3741.568 4053.801 3742.675 4052.291 3745.394 4048.666 3747.609 4045.646 3749.824 4042.725 3755.463 4035.073 3760.195 4028.528 3764.927 4022.084 3769.861 4015.238 3771.271 4013.425 3772.68 4011.613 3774.492 4009.096 3775.298 4007.887 3776.104 4006.679 3777.916 4004.162 3779.325 4002.249 3780.735 4000.436 3782.85 3997.416 3784.159 3995.604 3791.71 3984.83 3796.644 3977.882 3798.154 3975.768 3800.772 3972.344 3805.907 3964.994 3811.344 3957.04 3813.962 3953.113 3816.278 3949.791 3816.58 3949.488 3816.983 3949.186 3818.594 3946.971 3820.205 3944.454 3821.917 3941.937 3827.253 3933.982 3832.187 3926.833 3837.121 3919.584 3844.572 3908.508 3848.8 3902.165 3853.029 3895.822 3857.359 3889.277 3858.467 3887.666 3859.473 3886.055 3861.487 3883.135 3862.897 3881.021 3864.306 3878.906 3866.32 3875.986 3867.327 3874.375 3869.542 3871.153 3886.961 3844.471 3890.586 3838.731 3891.895 3836.818 3895.016 3831.784 3897.634 3827.656 3900.252 3823.528 3903.877 3817.788 3905.689 3815.07 3912.133 3804.9 3916.865 3797.349 3920.792 3790.905 3923.007 3787.179 3926.632 3781.339 3928.847 3777.815 3931.062 3774.291 3934.687 3768.35 3936.902 3764.726 3939.117 3761.101 3942.541 3755.463 3944.555 3752.341 3946.468 3749.22 3951.502 3740.863 3955.63 3733.915 3959.759 3726.867 3963.988 3719.617 3965.095 3717.805 3970.734 3708.341 3979.594 3693.136 3983.118 3686.995 3985.233 3683.269 3989.864 3675.416 3993.288 3669.576 3996.711 3663.736 4002.249 3653.969 4005.572 3647.928 4008.894 3641.786 4013.929 3632.925 4016.748 3628.193 4025.709 3612.888 4078.671 3513.006 4093.573 3483.303 4106.36 3457.829 4119.853 3430.341 4135.963 3396.711 4138.782 3390.871 4142.81 3382.514 4144.924 3378.084 4147.039 3373.653 4153.583 3359.356 4159.423 3346.367 4165.363 3333.378 4171.002 3320.893 4172.009 3318.678 4176.842 3308.307 4195.771 3265.212 4199.396 3256.251 4200.504 3253.432 4202.215 3249.405 4203.323 3247.189 4204.33 3244.974 4206.243 3240.443 4207.552 3237.121 4208.961 3233.798 4211.378 3227.857 4213.09 3224.031 4214.701 3220.104 4217.318 3213.761 4218.829 3209.935 4220.238 3206.008 4222.755 3199.967 4224.367 3196.342 4225.877 3192.717 4228.394 3186.575 4229.804 3182.749 4231.314 3178.822 4233.63 3173.184 4234.939 3170.163 4236.248 3167.142 4238.463 3161.403 4239.973 3157.577 4244.807 3144.689 4245.31 3143.481 4247.625 3137.943 4250.244 3131.398 4253.365 3123.343 4254.573 3119.819 4255.077 3118.409 4256.386 3114.785 4257.594 3111.764 4262.125 3100.185 4264.843 3092.935 4266.656 3087.599 4267.663 3084.578 4269.475 3079.544 4270.683 3076.523 4277.731 3058.399 4310.254 2965.263 4311.462 2959.725 4311.664 2958.919 4313.375 2953.482 4315.288 2947.643 4320.826 2931.129 4328.176 2908.374 4329.687 2903.038 4330.492 2900.42 4331.801 2895.99 4332.606 2893.271 4333.412 2890.452 4334.822 2885.921 4335.627 2883.202 4336.433 2880.383 4337.842 2875.852 4338.647 2873.133 4339.453 2870.314 4340.762 2865.984 4341.567 2863.266 4351.938 2828.73 4351.334 2830.744 4358.785 2803.659 4360.195 2798.423 4361.604 2793.388 4361.806 2792.583 4362.007 2791.777 4363.619 2785.837 4365.33 2779.493 4368.653 2766.807 4369.156 2765.296 4369.861 2762.578 4371.17 2757.543 4388.488 2688.975 4388.891 2686.86 4390.2 2680.618 4390.603 2678.503 4393.522 2666.219 4399.463 2641.35 4400.47 2637.02 4401.074 2633.496 4401.376 2631.583 4402.081 2628.361 4402.584 2626.448 4403.491 2622.924 4411.244 2585.166 4412.25 2579.628 4412.452 2577.916 4412.956 2575.902 4413.157 2575.097 4413.358 2574.291 4413.862 2571.975 4414.164 2570.062 4414.466 2568.149 4414.969 2565.833 4415.17 2565.028 4415.372 2564.222 4415.775 2562.309 4416.077 2560.698 4417.083 2555.16 4420.809 2535.224 4421.715 2530.794 4422.319 2528.277 4423.125 2523.343 4423.729 2519.718 4424.635 2513.576 4425.139 2510.858 4426.347 2504.615 4427.354 2498.876 4433.697 2460.514 4434.2 2456.285 4434.503 2453.768 4435.006 2450.747 4435.207 2449.639 4436.013 2445.713 4440.142 2417.419 4441.45 2407.451 4441.652 2405.236 4442.155 2402.316 4442.356 2400.906 4442.96 2397.483 4443.564 2392.448 4444.37 2385.3 4444.772 2381.977 4445.176 2378.151 4445.478 2376.741 4445.88 2373.721 4448.599 2351.368 4449.505 2343.011 4449.807 2339.688 4450.21 2336.265 4450.411 2335.459 4450.512 2334.654 4451.016 2330.525 4451.317 2326.397 4452.123 2317.335 4452.928 2309.683 4453.432 2306.26 4453.633 2304.85 4454.036 2300.118 4454.439 2295.688 4455.144 2286.424 4455.848 2278.168 4456.453 2273.033 4456.654 2271.119 4457.158 2264.978 4457.56 2259.44 4457.862 2253.902 4458.366 2248.666 4458.466 2247.861 4458.668 2247.055 4459.07 2240.007 4459.473 2232.254 4459.876 2224.501 4460.379 2216.547 4460.48 2214.634 4460.682 2212.72 4461.084 2205.672 4461.487 2199.027 4461.789 2192.381 4462.293 2184.427 4462.494 2181.406 4462.695 2178.386 4463.199 2163.484 4463.602 2148.381 L4464.307 2120.994 4432.69 2105.488 C4272.798 2027.052 4090.452 1961.705 3894.211 1912.57 3735.526 1872.898 3568.485 1844.001 3396.711 1826.481 3313.241 1818.023 3243.263 1813.19 3139.957 1808.76 3116.597 1807.753 2928.008 1806.746 2905.354 1807.451 Z" fill="#000000" fill-opacity="1" stroke="none"/>
  <path id="Path-3" d="M1848.633 1988.488 C1764.155 2018.09 1686.424 2049.304 1612.016 2083.538 1583.219 2096.829 1516.261 2130.257 1488.874 2145.058 1276.926 2259.843 1112.502 2395.57 1003.759 2545.494 925.122 2653.936 876.59 2769.928 860.984 2886.625 856.554 2919.55 855.849 2931.129 855.849 2973.318 855.849 3015.506 856.554 3027.085 860.984 3060.01 880.215 3203.49 948.381 3343.95 1061.756 3473.737 1102.232 3520.155 1149.757 3566.27 1201.209 3609.163 1220.44 3625.172 1252.258 3650.545 1252.66 3650.143 1252.761 3650.042 1253.164 3646.115 1253.566 3641.383 1253.969 3636.651 1254.372 3632.623 1254.573 3632.321 1254.775 3632.019 1255.177 3627.991 1255.58 3623.259 1255.882 3618.527 1256.386 3613.593 1256.587 3612.183 1257.191 3608.055 1259.91 3586.005 1260.615 3579.46 1260.917 3576.137 1261.42 3572.512 1261.621 3571.405 1262.125 3568.888 1262.729 3564.961 1264.139 3553.281 1265.448 3543.011 1266.052 3538.278 1266.656 3534.654 1266.857 3533.244 1267.361 3530.123 1267.663 3527.605 1267.965 3525.088 1268.67 3520.557 1269.173 3517.537 1269.677 3514.516 1270.381 3509.683 1270.683 3506.964 1270.985 3504.145 1272.798 3492.365 1274.711 3480.786 1276.624 3469.106 1278.336 3458.03 1278.638 3456.117 1278.94 3454.204 1280.349 3446.048 1281.759 3437.993 1283.169 3429.938 1284.981 3419.769 1285.787 3415.338 1286.491 3410.908 1287.398 3405.773 1287.7 3403.96 1288.002 3402.249 1288.505 3399.228 1288.807 3397.416 1289.109 3395.704 1289.613 3393.489 1289.814 3392.684 1290.016 3391.878 1290.519 3389.763 1290.821 3388.052 1291.022 3386.34 1293.842 3372.244 1296.862 3356.838 1299.883 3341.333 1302.702 3327.337 1303.004 3325.726 1303.206 3324.014 1303.709 3322 1303.91 3321.195 1304.112 3320.389 1304.615 3318.275 1304.917 3316.664 1306.226 3310.22 1306.528 3308.508 1307.434 3305.085 1307.938 3303.172 1308.643 3299.95 1308.945 3298.037 1309.247 3296.124 1310.153 3291.996 1310.959 3288.975 1311.764 3285.954 1312.57 3282.027 1312.872 3280.417 1313.576 3276.389 1317.1 3261.286 1321.128 3244.672 1322.94 3237.221 1324.753 3229.468 1325.055 3227.555 1325.558 3224.635 1341.769 3159.691 1343.179 3155.06 1343.38 3154.254 1345.495 3146.501 1347.71 3137.943 1349.925 3129.384 1352.039 3121.631 1352.241 3120.826 1352.442 3120.02 1353.852 3114.986 1355.261 3109.75 1358.483 3097.97 1364.223 3077.329 1367.243 3066.958 1367.344 3066.354 1368.049 3063.937 1368.754 3061.42 1370.264 3055.983 1371.774 3050.948 1375.701 3038.262 1377.413 3033.026 1379.729 3025.273 1380.937 3021.145 1382.145 3017.016 1383.454 3012.485 1383.957 3011.076 1384.461 3009.666 1385.77 3005.135 1386.978 3001.007 1388.186 2996.879 1389.898 2991.442 1390.704 2988.925 1391.509 2986.407 1392.315 2983.89 1392.415 2983.387 1392.717 2981.876 1403.088 2950.059 1414.265 2916.429 1423.226 2889.646 1428.462 2874.543 1435.912 2853.499 1437.221 2849.572 1439.537 2843.027 1440.947 2838.899 1442.356 2834.771 1444.572 2828.629 1445.88 2825.306 1447.19 2821.984 1449.405 2815.842 1450.915 2811.714 1452.425 2807.585 1454.238 2802.551 1454.943 2800.638 1455.647 2798.725 1458.165 2792.079 1460.48 2786.038 1462.796 2779.896 1465.213 2773.553 1465.817 2771.942 1466.522 2770.23 1467.025 2768.72 1467.025 2768.418 1467.025 2767.813 1468.737 2763.383 1472.764 2753.314 1474.476 2749.186 1476.49 2743.95 1477.295 2741.735 1480.517 2733.177 1481.625 2730.358 1485.149 2721.598 1487.163 2716.563 1489.479 2710.925 1490.183 2709.012 1490.888 2707.099 1493.204 2701.359 1495.218 2696.426 1497.231 2691.391 1499.749 2685.35 1500.755 2682.833 1501.762 2680.316 1504.481 2673.771 1506.797 2668.233 1509.113 2662.695 1511.73 2656.151 1512.838 2653.633 1525.927 2621.413 1563.786 2535.023 1575.265 2511.16 1576.876 2507.837 1585.132 2490.116 1593.791 2471.892 1621.984 2411.781 1677.06 2303.642 1699.614 2263.971 1704.145 2255.916 1711.898 2241.92 1716.731 2232.758 1721.665 2223.595 1726.901 2214.332 1728.31 2212.116 1729.821 2209.901 1732.942 2204.464 1735.359 2200.034 1737.674 2195.604 1742.709 2186.743 1746.434 2180.4 1758.114 2160.463 1761.235 2155.026 1766.169 2146.166 1768.787 2141.434 1771.908 2136.198 1773.117 2134.587 1774.325 2132.875 1777.245 2128.142 1779.561 2124.014 1781.977 2119.886 1786.005 2113.039 1788.522 2108.81 1791.14 2104.582 1794.563 2098.842 1796.174 2096.224 1797.785 2093.506 1800.806 2088.572 1802.82 2085.25 1804.934 2081.927 1810.774 2072.361 1815.909 2064.105 1821.044 2055.748 1826.683 2046.686 1828.495 2043.968 1830.307 2041.148 1832.321 2037.825 1833.026 2036.416 1833.731 2035.006 1834.637 2033.697 1835.04 2033.395 1835.342 2033.093 1836.752 2031.079 1838.06 2028.864 1839.369 2026.649 1843.397 2020.306 1846.921 2014.768 1850.546 2009.23 1855.077 2002.182 1856.99 1999.161 1859.004 1996.141 1862.326 1991.005 1864.441 1987.783 1866.656 1984.662 1868.065 1982.044 1867.562 1982.145 1867.159 1982.145 1858.601 1984.964 1848.633 1988.488 Z" fill="#000000" fill-opacity="1" stroke="none"/>
  <path id="Path-4" d="M4750.864 2300.319 C4750.361 2302.937 4750.16 2304.951 4749.556 2311.798 4749.153 2316.228 4748.649 2321.665 4748.448 2323.88 4748.247 2326.095 4747.743 2330.626 4747.441 2333.949 4747.139 2337.272 4746.636 2341.601 4746.434 2343.514 4746.233 2345.427 4745.729 2350.663 4745.427 2354.993 4745.125 2359.423 4744.622 2363.249 4744.521 2363.551 4744.319 2363.853 4743.816 2367.78 4743.514 2372.21 4743.111 2376.641 4742.608 2381.373 4742.407 2382.783 4742.206 2384.192 4741.702 2388.22 4741.299 2391.844 4740.997 2395.469 4740.594 2399.094 4740.393 2399.9 4740.292 2400.705 4739.789 2404.128 4739.487 2407.451 4738.581 2415.808 4737.775 2422.051 4737.372 2425.072 4736.768 2428.998 4734.05 2450.244 4733.345 2455.781 4733.043 2458.5 4732.338 2463.333 4731.834 2466.354 4730.928 2471.892 4730.525 2474.409 4729.317 2483.974 4728.31 2491.727 4728.31 2491.626 4723.88 2519.215 4722.269 2529.686 4720.658 2539.957 4720.356 2541.87 4720.054 2543.783 4718.644 2551.938 4717.234 2559.994 4715.825 2568.049 4713.71 2579.829 4712.704 2586.172 4710.489 2598.859 4710.388 2599.362 4707.568 2613.66 4706.562 2618.997 4705.454 2624.937 4705.152 2626.75 4704.85 2628.461 4704.347 2630.677 4704.145 2631.482 4703.944 2632.288 4703.44 2634.603 4703.138 2636.516 4702.836 2638.429 4700.722 2649.103 4698.506 2660.178 4696.191 2671.254 4694.177 2681.423 4693.976 2682.833 4693.674 2684.242 4693.069 2686.961 4692.566 2688.874 4692.063 2690.787 4691.358 2694.009 4691.056 2695.922 4690.754 2697.835 4689.848 2702.165 4689.042 2705.488 4688.237 2708.811 4686.726 2715.557 4685.518 2720.591 4684.41 2725.525 4683.202 2730.76 4683 2732.17 4681.087 2742.742 4649.169 2870.717 4643.732 2889.243 4643.531 2890.049 4642.222 2894.781 4640.813 2899.816 4638.799 2907.266 4636.281 2916.429 4633.664 2925.491 4633.462 2926.297 4632.556 2929.519 4631.65 2932.539 4630.744 2935.56 4629.938 2938.48 4629.737 2939.084 4629.636 2939.587 4628.932 2942.105 4628.227 2944.622 4626.716 2950.059 4625.206 2955.093 4621.279 2967.78 4619.567 2973.016 4617.251 2980.769 4616.043 2984.897 4614.835 2989.025 4613.526 2993.556 4613.022 2994.966 4612.016 2997.886 4607.585 3012.385 4607.484 3013.09 4607.284 3014.096 4602.45 3029.401 4596.409 3047.827 4592.986 3058.299 4588.756 3071.287 4587.045 3076.523 4581.608 3093.338 4559.255 3157.98 4554.12 3171.673 4548.884 3185.468 4545.46 3194.932 4543.95 3199.363 4543.044 3201.88 4540.527 3208.626 4538.312 3214.466 4536.097 3220.306 4533.681 3226.649 4532.976 3228.562 4532.271 3230.475 4530.962 3233.899 4530.156 3236.114 4529.25 3238.329 4526.431 3245.578 4523.914 3252.224 4521.295 3258.869 4518.678 3265.917 4517.872 3267.83 4516.161 3272.462 4511.831 3283.336 4502.769 3305.588 4500.755 3310.522 4498.439 3316.463 4497.534 3318.678 4496.728 3320.893 4494.21 3327.035 4491.996 3332.271 4489.78 3337.506 4487.163 3343.85 4486.155 3346.367 4483.437 3353.113 4468.938 3387.146 4461.487 3404.263 4445.075 3441.719 4436.214 3461.655 4429.669 3475.751 4428.159 3479.074 4420.607 3495.184 4413.056 3511.495 4385.367 3571.304 4318.711 3703.004 4300.789 3733.512 4298.271 3737.943 4291.224 3750.629 4285.283 3761.705 4279.342 3772.781 4272.596 3784.964 4270.18 3788.891 4267.864 3792.717 4264.239 3799.06 4262.125 3802.987 4260.01 3806.813 4255.177 3815.472 4251.25 3822.118 4247.424 3828.763 4241.182 3839.436 4237.456 3845.78 4228.495 3861.285 4225.776 3865.716 4219.635 3875.885 4216.815 3880.618 4212.586 3887.867 4210.271 3891.895 4207.955 3895.922 4204.632 3901.46 4202.92 3904.179 4201.107 3906.897 4197.886 3912.133 4195.67 3915.758 4191.643 3922.504 4186.911 3930.055 4179.661 3941.433 4177.547 3944.857 4176.037 3947.877 4176.439 3948.179 4178.252 3950.092 4285.988 3907.803 4344.689 3882.128 4394.932 3860.077 4464.91 3826.045 4510.12 3801.577 4722.068 3686.793 4886.491 3551.066 4995.234 3401.141 5073.872 3292.7 5122.403 3176.808 5138.11 3059.91 5142.44 3027.085 5143.145 3015.506 5143.145 2973.318 5143.145 2931.129 5142.44 2919.55 5138.01 2886.625 5118.779 2743.145 5050.613 2602.685 4937.238 2472.898 4896.661 2426.481 4848.935 2380.064 4797.785 2337.473 4772.512 2316.429 4751.066 2299.413 4750.864 2300.319 Z" fill="#000000" fill-opacity="1" stroke="none"/>
  <path id="Path-5" d="M1603.457 4237.054 C1603.457 4242.49 1613.123 4292.23 1620.574 4325.055 1637.993 4402.182 1663.769 4481.121 1691.761 4542.541 1693.17 4545.562 1695.889 4551.603 1697.701 4555.832 1701.83 4564.994 1717.033 4595.503 1724.384 4608.995 1734.654 4627.924 1762.041 4673.334 1764.558 4675.449 1764.86 4675.751 1766.27 4677.765 1767.579 4679.98 1770.197 4684.31 1794.966 4718.745 1797.08 4720.96 1797.785 4721.665 1799.9 4724.283 1801.813 4726.8 1805.035 4731.129 1819.735 4748.851 1820.943 4749.958 1821.246 4750.26 1824.166 4753.583 1827.488 4757.51 1841.685 4774.224 1866.756 4799.295 1888.807 4818.93 1893.137 4822.755 1897.164 4826.481 1897.869 4826.984 1899.883 4828.797 1913.677 4839.973 1915.892 4841.584 1917.1 4842.39 1918.812 4843.8 1919.718 4844.605 1920.625 4845.41 1922.638 4847.021 1924.149 4848.129 1925.76 4849.237 1929.385 4851.955 1932.304 4854.17 1935.224 4856.386 1938.547 4858.903 1939.755 4859.708 1940.964 4860.514 1943.582 4862.427 1945.595 4863.937 1947.508 4865.548 1949.421 4866.756 1949.925 4866.756 1950.328 4866.756 1951.334 4867.36 1952.039 4868.065 1953.852 4869.878 1967.747 4878.839 1985.77 4890.015 1994.429 4895.352 2041.047 4920.121 2042.457 4920.121 2043.162 4920.121 2046.283 4921.43 2049.405 4923.041 2052.526 4924.652 2057.762 4927.068 2061.084 4928.478 2064.407 4929.888 2070.549 4932.405 2074.677 4934.217 2078.806 4936.029 2083.336 4937.842 2084.746 4938.346 2086.156 4938.748 2091.089 4940.561 2095.822 4942.272 2108.005 4946.702 2126.229 4952.744 2135.09 4955.362 2139.219 4956.57 2144.656 4958.081 2147.173 4958.886 2153.516 4960.799 2171.136 4965.229 2175.365 4965.934 2177.279 4966.236 2180.5 4966.941 2182.413 4967.444 2188.757 4969.156 2212.62 4973.687 2222.185 4974.996 2224.501 4975.298 2227.22 4975.701 2228.227 4975.902 2229.334 4976.104 2232.758 4976.607 2235.778 4977.01 2238.799 4977.412 2242.122 4977.916 2243.028 4978.017 2243.934 4978.218 2247.861 4978.722 2251.586 4979.124 2255.312 4979.527 2259.541 4979.93 2260.95 4980.03 2262.36 4980.232 2267.092 4980.635 2271.522 4981.037 2275.953 4981.339 2280.987 4981.842 2282.598 4982.044 2298.406 4984.159 2364.256 4984.46 2392.751 4982.547 2408.055 4981.541 2436.349 4979.023 2443.699 4978.017 2448.029 4977.412 2461.017 4975.701 2466.354 4974.996 2468.871 4974.593 2473.402 4973.989 2476.423 4973.485 2479.443 4972.881 2483.773 4972.277 2485.988 4971.975 2505.018 4969.156 2551.938 4959.289 2578.621 4952.341 2622.219 4940.963 2673.57 4924.551 2712.032 4909.549 2717.268 4907.535 2724.417 4904.716 2727.84 4903.407 2745.159 4896.661 2777.379 4882.766 2807.183 4869.273 2833.16 4857.493 2912.301 4816.513 2927.001 4807.149 2929.217 4805.739 2932.036 4804.33 2933.345 4803.927 2934.553 4803.524 2935.56 4802.719 2935.56 4802.215 2935.56 4801.712 2936.063 4801.309 2936.768 4801.309 2937.775 4801.309 2994.865 4767.478 2995.973 4766.169 2996.476 4765.565 2997.08 4765.162 3005.035 4760.43 3011.982 4756.301 3060.313 4724.686 3062.93 4722.471 3063.534 4722.067 3067.763 4719.147 3072.496 4715.926 3081.255 4709.985 3097.365 4698.809 3099.178 4697.399 3099.782 4696.996 3111.563 4688.337 3125.357 4678.268 3154.456 4657.124 3151.536 4659.137 3156.067 4655.613 3157.98 4654.003 3162.309 4650.68 3165.632 4648.263 3168.955 4645.847 3172.177 4643.33 3172.882 4642.726 3174.392 4641.517 3175.399 4640.712 3181.239 4636.181 3188.085 4630.945 3214.869 4609.599 3215.473 4608.995 3215.775 4608.693 3217.99 4606.88 3220.507 4604.967 3223.024 4603.055 3225.542 4601.041 3226.146 4600.437 3226.75 4599.933 3229.166 4597.818 3231.583 4595.905 3233.999 4593.992 3241.954 4587.448 3249.203 4581.306 3266.521 4566.706 3266.924 4566.404 3268.233 4565.195 3268.837 4564.591 3273.872 4560.363 3279.409 4555.63 3284.947 4550.897 3289.982 4546.669 3290.586 4546.065 3291.794 4544.957 3303.272 4534.788 3306.998 4531.465 3309.415 4529.451 3322.403 4517.671 3328.243 4512.334 3329.753 4510.925 3334.788 4506.394 3339.319 4502.266 3348.482 4494.009 3348.985 4493.505 3358.651 4484.343 3366.505 4476.993 3367.915 4477.396 3342.843 4479.611 3176.204 4494.009 2977.849 4497.533 2802.652 4489.176 2405.035 4470.045 2027.253 4395.436 1690.049 4269.173 1669.207 4261.42 1610.808 4238.563 1604.263 4235.644 1603.759 4235.442 1603.457 4236.046 1603.457 4237.054 Z" fill="#000000" fill-opacity="1" stroke="none"/>
 </g>
</svg>
